<svg width="317" height="330" viewBox="0 0 317 330" fill="none" xmlns="http://www.w3.org/2000/svg">
<path d="M75.7347 30C64.742 30 55.1545 37.4684 52.4644 48.1269L7.53958 226.127C3.71326 241.287 15.1739 256 30.8099 256L286.063 256C301.738 256 313.206 241.218 309.31 226.034L263.628 48.034C260.904 37.4209 251.339 30 240.382 30L75.7347 30Z" fill="url(#paint0_linear_1601_17331)"/>
<g opacity="0.6" clip-path="url(#clip0_1601_17331)">
<path d="M100.907 41.8141C107.483 41.8141 112.814 36.4831 112.814 29.9071C112.814 23.331 107.483 18 100.907 18C94.331 18 89 23.331 89 29.9071C89 36.4831 94.331 41.8141 100.907 41.8141Z" fill="#3CB054"/>
<path d="M95.9636 23.5895C104.81 23.9065 108.222 29.0501 106.509 33.6406C106.024 34.9179 105.508 35.617 104.424 36.3454C104.468 36.1613 104.514 35.9763 104.548 35.7879C105.189 32.2066 103.974 27.8974 98.0289 25.517C102.759 28.2442 104.668 33.0963 102.462 36.2284C98.7076 36.8001 95.9636 33.694 95.9636 30.1154V23.5895Z" fill="white"/>
</g>
<path d="M159.09 0.32512V0.354677C159.12 0.50246 159.12 0.6798 159.12 0.85714V22.1675C159.09 22.2857 159.001 22.3153 158.913 22.3744C158.292 22.6699 157.701 22.936 157.08 23.202C156.223 23.5862 155.336 24 154.479 24.3842L151.376 25.803C150.519 26.1872 149.661 26.5714 148.834 26.9557C147.829 27.4286 146.794 27.8719 145.789 28.3448C144.932 28.7291 144.075 29.1429 143.188 29.5271C142.479 29.8522 141.77 30.1478 141.09 30.4729C141.031 30.5025 140.972 30.532 140.913 30.532C140.883 30.532 140.883 30.532 140.854 30.5025L141.652 29.1724C143.188 26.6305 144.696 24.1182 146.233 21.5764C147.858 18.8571 149.514 16.1379 151.139 13.4187C152.647 10.9064 154.184 8.39409 155.691 5.88177C156.785 4.04926 157.908 2.21675 159.001 0.384233C159.031 0.32512 159.06 0.295563 159.06 0.23645H159.09C159.06 0.266007 159.09 0.295563 159.09 0.32512Z" fill="#8A92B2"/>
<path d="M177.236 30.5025L177.266 30.532L172.921 33.1035L159.266 41.1724C159.207 41.202 159.148 41.2315 159.118 41.2611C159.03 41.2611 159.03 41.1724 159.03 41.1429V40.8769V22.6109C159.03 22.5222 159.03 22.404 159.059 22.3153C159.089 22.1971 159.177 22.2266 159.266 22.2562C159.65 22.4335 160.064 22.6109 160.448 22.7882C161.601 23.3202 162.754 23.8522 163.906 24.3547C164.911 24.798 165.887 25.2709 166.892 25.7143C167.897 26.1576 168.901 26.6306 169.906 27.0739C170.764 27.4581 171.65 27.8719 172.507 28.2562C173.365 28.6404 174.251 29.0542 175.108 29.4384C175.788 29.734 176.468 30.0591 177.148 30.3547C177.148 30.4434 177.177 30.4729 177.236 30.5025Z" fill="#454A75"/>
<path d="M159.089 59.6158C159.089 59.6454 159.059 59.6749 159.059 59.7045H159.03C159.03 59.6454 158.971 59.6158 158.941 59.5567C157.108 56.9853 155.276 54.3843 153.443 51.8129C151.581 49.1823 149.69 46.5222 147.828 43.8917C146.025 41.3498 144.192 38.7784 142.389 36.2365C141.916 35.5567 141.443 34.9065 140.971 34.2267C140.941 34.1675 140.911 34.138 140.852 34.0493C140.941 34.0493 141 34.1084 141.03 34.138C143.601 35.6454 146.143 37.1528 148.714 38.6602C151.67 40.404 154.596 42.1478 157.552 43.8917L159.059 44.7784C159.118 44.8375 159.118 44.8966 159.118 44.9557V59.202C159.118 59.3498 159.118 59.4976 159.089 59.6158Z" fill="#8A92B2"/>
<path d="M140.823 30.5615V30.532C141.769 30.1182 142.685 29.6748 143.631 29.261C144.842 28.6995 146.054 28.1674 147.266 27.6059C148.182 27.1921 149.128 26.7487 150.044 26.3349C151.404 25.7142 152.734 25.1231 154.094 24.5024C155.01 24.0886 155.926 23.6748 156.872 23.2315C157.522 22.9359 158.202 22.6404 158.852 22.3448C158.911 22.3152 159 22.2857 159.03 22.2266C159.059 22.2266 159.059 22.2561 159.03 22.2857V41.0541C159.03 41.1428 159 41.2315 159.059 41.2906C159 41.3793 158.941 41.2906 158.911 41.261C158.645 41.1133 158.379 40.9655 158.113 40.7881C152.409 37.4187 146.675 34.0197 140.971 30.6502C140.941 30.6207 140.882 30.5911 140.823 30.5615Z" fill="#62688F"/>
<path d="M177.178 34.0493H177.207C177.207 34.1084 177.148 34.1675 177.118 34.2267C171.68 41.8818 166.242 49.5666 160.803 57.2217C160.242 58.0198 159.65 58.8178 159.089 59.6158C159.059 59.5863 159.059 59.5567 159.059 59.5272V59.3498V45.0148V44.7488C160.301 44.0099 161.513 43.3005 162.754 42.5616C167.542 39.7242 172.33 36.9163 177.089 34.0789C177.118 34.1084 177.148 34.0789 177.178 34.0493Z" fill="#62688F"/>
<path d="M159.059 22.2856V22.2265V22.0492V0.591067C159.059 0.502398 159.03 0.443284 159.089 0.354614C165.089 10.3152 171.089 20.2462 177.059 30.2068C177.118 30.2955 177.207 30.4137 177.236 30.532C176.823 30.3842 176.438 30.1773 176.054 29.9999C175.581 29.793 175.079 29.5566 174.606 29.3497C174.31 29.2019 173.985 29.0837 173.69 28.9359C173.187 28.6994 172.685 28.4925 172.182 28.2561C171.887 28.1379 171.591 27.9901 171.296 27.8423L169.345 26.9556C169.02 26.8078 168.695 26.66 168.34 26.5123L166.921 25.8916C166.626 25.7733 166.33 25.6256 166.034 25.4778L164.084 24.5911C163.759 24.4433 163.433 24.2955 163.079 24.1477L161.66 23.527C161.335 23.3792 161.039 23.2315 160.714 23.0837C160.153 22.8177 159.591 22.5517 159 22.3152C159.089 22.2857 159.059 22.2856 159.059 22.2856Z" fill="#62688F"/>
<g opacity="0.6" clip-path="url(#clip1_1601_17331)">
<path d="M228.623 32.9204C227.02 39.3491 220.509 43.2614 214.08 41.6583C207.653 40.0556 203.741 33.5441 205.344 27.1159C206.946 20.6866 213.457 16.774 219.885 18.3767C226.313 19.9793 230.226 26.4916 228.623 32.9206L228.623 32.9204H228.623Z" fill="#F7931A"/>
<path d="M222.292 28.2903C222.53 26.6934 221.315 25.835 219.652 25.2623L220.191 23.0991L218.875 22.771L218.35 24.8773C218.003 24.7909 217.648 24.7096 217.295 24.6289L217.823 22.5088L216.507 22.1807L215.968 24.3432C215.681 24.2779 215.4 24.2135 215.127 24.1455L215.128 24.1387L213.313 23.6853L212.962 25.0917C212.962 25.0917 213.939 25.3157 213.919 25.3294C214.452 25.4625 214.548 25.8155 214.532 26.0953L213.918 28.5597C213.955 28.569 214.002 28.5825 214.055 28.6036C214.011 28.5927 213.964 28.5808 213.916 28.5692L213.055 32.0214C212.989 32.1834 212.824 32.4266 212.451 32.3342C212.464 32.3534 211.494 32.0954 211.494 32.0954L210.84 33.6027L212.554 34.0299C212.873 34.1098 213.185 34.1935 213.493 34.2721L212.948 36.4601L214.263 36.7883L214.803 34.6235C215.162 34.721 215.511 34.811 215.852 34.8958L215.314 37.0504L216.631 37.3785L217.176 35.1946C219.421 35.6196 221.11 35.4482 221.821 33.4172C222.393 31.7821 221.792 30.8389 220.611 30.2238C221.471 30.0254 222.119 29.4595 222.292 28.2905L222.292 28.2902L222.292 28.2903ZM219.283 32.5091C218.876 34.1443 216.123 33.2604 215.23 33.0387L215.953 30.14C216.846 30.3628 219.708 30.8038 219.283 32.5091H219.283ZM219.69 28.2666C219.319 29.754 217.027 28.9984 216.284 28.8131L216.94 26.1841C217.683 26.3694 220.077 26.7152 219.69 28.2666H219.69Z" fill="white"/>
</g>
<path d="M74.922 74.124C75.194 74.38 75.33 74.704 75.33 75.096C75.33 75.488 75.194 75.812 74.922 76.068C74.654 76.32 74.302 76.446 73.866 76.446H73.122V78H72.564V73.74H73.866C74.302 73.74 74.654 73.868 74.922 74.124ZM74.532 75.696C74.696 75.54 74.778 75.34 74.778 75.096C74.778 74.852 74.696 74.652 74.532 74.496C74.372 74.34 74.15 74.262 73.866 74.262H73.122V75.93H73.866C74.15 75.93 74.372 75.852 74.532 75.696ZM75.9606 78V75H76.4766V75.582C76.5326 75.398 76.6406 75.25 76.8006 75.138C76.9646 75.026 77.1366 74.97 77.3166 74.97C77.4046 74.97 77.4826 74.978 77.5506 74.994V75.528C77.4786 75.496 77.3846 75.48 77.2686 75.48C77.0606 75.48 76.8766 75.57 76.7166 75.75C76.5566 75.93 76.4766 76.184 76.4766 76.512V78H75.9606ZM78.6799 74.094C78.6119 74.162 78.5259 74.196 78.4219 74.196C78.3179 74.196 78.2299 74.162 78.1579 74.094C78.0859 74.022 78.0499 73.934 78.0499 73.83C78.0499 73.73 78.0859 73.644 78.1579 73.572C78.2299 73.5 78.3179 73.464 78.4219 73.464C78.5259 73.464 78.6119 73.5 78.6799 73.572C78.7479 73.644 78.7819 73.73 78.7819 73.83C78.7819 73.934 78.7479 74.022 78.6799 74.094ZM78.1579 78V75H78.6739V78H78.1579ZM80.984 78.06C80.532 78.06 80.158 77.91 79.862 77.61C79.566 77.306 79.418 76.936 79.418 76.5C79.418 76.064 79.566 75.696 79.862 75.396C80.158 75.092 80.532 74.94 80.984 74.94C81.356 74.94 81.678 75.044 81.95 75.252C82.222 75.456 82.404 75.724 82.496 76.056H81.944C81.872 75.86 81.752 75.704 81.584 75.588C81.416 75.472 81.216 75.414 80.984 75.414C80.676 75.414 80.424 75.518 80.228 75.726C80.036 75.934 79.94 76.192 79.94 76.5C79.94 76.808 80.036 77.066 80.228 77.274C80.424 77.482 80.676 77.586 80.984 77.586C81.216 77.586 81.416 77.528 81.584 77.412C81.752 77.296 81.872 77.14 81.944 76.944H82.496C82.408 77.276 82.228 77.546 81.956 77.754C81.684 77.958 81.36 78.06 80.984 78.06ZM84.4574 78.06C84.0214 78.06 83.6594 77.912 83.3714 77.616C83.0874 77.32 82.9454 76.948 82.9454 76.5C82.9454 76.048 83.0834 75.676 83.3594 75.384C83.6394 75.088 84.0094 74.94 84.4694 74.94C84.9334 74.94 85.2974 75.104 85.5614 75.432C85.8254 75.76 85.9414 76.162 85.9094 76.638H83.4674C83.4754 76.91 83.5754 77.138 83.7674 77.322C83.9594 77.502 84.1914 77.592 84.4634 77.592C84.8714 77.592 85.1614 77.424 85.3334 77.088H85.8614C85.7854 77.368 85.6234 77.6 85.3754 77.784C85.1274 77.968 84.8214 78.06 84.4574 78.06ZM85.0454 75.612C84.8814 75.468 84.6834 75.396 84.4514 75.396C84.2194 75.396 84.0114 75.466 83.8274 75.606C83.6474 75.746 83.5354 75.954 83.4914 76.23H85.3634C85.3154 75.958 85.2094 75.752 85.0454 75.612ZM89.4332 78.06C88.9812 78.06 88.6072 77.91 88.3112 77.61C88.0152 77.306 87.8672 76.936 87.8672 76.5C87.8672 76.064 88.0152 75.696 88.3112 75.396C88.6072 75.092 88.9812 74.94 89.4332 74.94C89.8052 74.94 90.1272 75.044 90.3992 75.252C90.6712 75.456 90.8532 75.724 90.9452 76.056H90.3932C90.3212 75.86 90.2012 75.704 90.0332 75.588C89.8652 75.472 89.6652 75.414 89.4332 75.414C89.1252 75.414 88.8732 75.518 88.6772 75.726C88.4852 75.934 88.3892 76.192 88.3892 76.5C88.3892 76.808 88.4852 77.066 88.6772 77.274C88.8732 77.482 89.1252 77.586 89.4332 77.586C89.6652 77.586 89.8652 77.528 90.0332 77.412C90.2012 77.296 90.3212 77.14 90.3932 76.944H90.9452C90.8572 77.276 90.6772 77.546 90.4052 77.754C90.1332 77.958 89.8092 78.06 89.4332 78.06ZM92.1446 78H91.6286V73.5H92.1446V75.462C92.3486 75.114 92.6666 74.94 93.0986 74.94C93.4386 74.94 93.7126 75.05 93.9206 75.27C94.1286 75.49 94.2326 75.784 94.2326 76.152V78H93.7226V76.23C93.7226 75.978 93.6586 75.78 93.5306 75.636C93.4026 75.488 93.2306 75.414 93.0146 75.414C92.7666 75.414 92.5586 75.512 92.3906 75.708C92.2266 75.904 92.1446 76.172 92.1446 76.512V78ZM96.3978 78.06C95.9818 78.06 95.6318 77.908 95.3478 77.604C95.0678 77.3 94.9278 76.932 94.9278 76.5C94.9278 76.068 95.0678 75.7 95.3478 75.396C95.6318 75.092 95.9818 74.94 96.3978 74.94C96.6178 74.94 96.8218 74.99 97.0098 75.09C97.2018 75.186 97.3498 75.31 97.4538 75.462V75H97.9698V78H97.4538V77.538C97.3498 77.69 97.2018 77.816 97.0098 77.916C96.8218 78.012 96.6178 78.06 96.3978 78.06ZM96.4758 77.586C96.7718 77.586 97.0158 77.482 97.2078 77.274C97.3998 77.066 97.4958 76.808 97.4958 76.5C97.4958 76.192 97.3998 75.934 97.2078 75.726C97.0158 75.518 96.7718 75.414 96.4758 75.414C96.1758 75.414 95.9298 75.518 95.7378 75.726C95.5458 75.934 95.4498 76.192 95.4498 76.5C95.4498 76.808 95.5458 77.066 95.7378 77.274C95.9298 77.482 96.1758 77.586 96.4758 77.586ZM98.9411 78V75H99.4571V75.462C99.6611 75.114 99.9791 74.94 100.411 74.94C100.751 74.94 101.025 75.05 101.233 75.27C101.441 75.49 101.545 75.784 101.545 76.152V78H101.035V76.23C101.035 75.978 100.971 75.78 100.843 75.636C100.715 75.488 100.543 75.414 100.327 75.414C100.079 75.414 99.8711 75.512 99.7031 75.708C99.5391 75.904 99.4571 76.172 99.4571 76.512V78H98.9411ZM103.794 79.314C103.398 79.314 103.068 79.216 102.804 79.02C102.544 78.828 102.39 78.58 102.342 78.276H102.846C102.978 78.664 103.298 78.858 103.806 78.858C104.09 78.858 104.318 78.766 104.49 78.582C104.666 78.402 104.754 78.148 104.754 77.82V77.466C104.646 77.626 104.5 77.754 104.316 77.85C104.132 77.946 103.93 77.994 103.71 77.994C103.29 77.994 102.94 77.848 102.66 77.556C102.38 77.26 102.24 76.896 102.24 76.464C102.24 76.036 102.38 75.676 102.66 75.384C102.944 75.088 103.294 74.94 103.71 74.94C103.93 74.94 104.132 74.988 104.316 75.084C104.5 75.18 104.646 75.306 104.754 75.462V75H105.27V77.814C105.27 78.294 105.13 78.664 104.85 78.924C104.574 79.184 104.222 79.314 103.794 79.314ZM103.05 77.22C103.238 77.416 103.482 77.514 103.782 77.514C104.082 77.514 104.326 77.416 104.514 77.22C104.702 77.02 104.796 76.768 104.796 76.464C104.796 76.16 104.7 75.91 104.508 75.714C104.32 75.514 104.078 75.414 103.782 75.414C103.486 75.414 103.242 75.514 103.05 75.714C102.862 75.91 102.768 76.16 102.768 76.464C102.768 76.768 102.862 77.02 103.05 77.22ZM107.52 78.06C107.084 78.06 106.722 77.912 106.434 77.616C106.15 77.32 106.008 76.948 106.008 76.5C106.008 76.048 106.146 75.676 106.422 75.384C106.702 75.088 107.072 74.94 107.532 74.94C107.996 74.94 108.36 75.104 108.624 75.432C108.888 75.76 109.004 76.162 108.972 76.638H106.53C106.538 76.91 106.638 77.138 106.83 77.322C107.022 77.502 107.254 77.592 107.526 77.592C107.934 77.592 108.224 77.424 108.396 77.088H108.924C108.848 77.368 108.686 77.6 108.438 77.784C108.19 77.968 107.884 78.06 107.52 78.06ZM108.108 75.612C107.944 75.468 107.746 75.396 107.514 75.396C107.282 75.396 107.074 75.466 106.89 75.606C106.71 75.746 106.598 75.954 106.554 76.23H108.426C108.378 75.958 108.272 75.752 108.108 75.612Z" fill="white"/>
<path opacity="0.2" d="M78.5154 90.191C75.565 90.1041 72.7593 94.1849 72 95.8865V98.9834H111.161L109.812 85.5468C106.815 86.2961 103.618 84.7976 102.705 84.7603C100.644 84.7603 97.5702 89.0324 96.1962 91.277C95.0681 93.2755 93.6291 93.7027 93.0505 93.6665C90.3605 93.7534 88.314 89.2858 87.627 87.0412C87.0195 84.5213 86.3357 84 85.9999 84C85.4366 83.9984 84.5898 84.7386 83.722 87.2584C82.8542 89.7782 81.4803 90.4806 80.9017 90.5168C80.0926 90.5674 79.13 90.191 78.5154 90.191Z" fill="url(#paint1_linear_1601_17331)"/>
<path d="M72 95.8865C72.7593 94.1849 75.565 90.1041 78.5154 90.191C79.13 90.191 80.0926 90.5674 80.9017 90.5168C81.4803 90.4806 82.8542 89.7782 83.722 87.2584C84.5898 84.7386 85.4366 83.9984 85.9999 84C86.3357 84 87.0195 84.5213 87.627 87.0412C88.314 89.2858 90.3605 93.7534 93.0505 93.6665C93.6291 93.7027 95.0681 93.2755 96.1962 91.277C97.5702 89.0324 100.644 84.7603 102.705 84.7603C103.618 84.7976 106.815 86.2961 109.812 85.5468" stroke="#27AE60" stroke-width="0.27972" stroke-linejoin="round"/>
<circle cx="99.8223" cy="86.496" r="0.35964" fill="white" stroke="#3CB054" stroke-width="0.27972"/>
<path fill-rule="evenodd" clip-rule="evenodd" d="M77.4446 104.214H74.5549C73.5483 104.214 72.9166 104.927 72.9166 105.936V108.659C72.9166 109.668 73.5449 110.381 74.5549 110.381H77.4446C78.4546 110.381 79.0833 109.668 79.0833 108.659V105.936C79.0833 104.927 78.4546 104.214 77.4446 104.214Z" stroke="#27AE60" stroke-width="0.559441" stroke-linecap="round" stroke-linejoin="round"/>
<path d="M75.9998 105.935V108.659" stroke="#27AE60" stroke-width="0.559441" stroke-linecap="round" stroke-linejoin="round"/>
<path d="M74.7506 107.19L75.9999 105.935L77.2493 107.19" stroke="#27AE60" stroke-width="0.559441" stroke-linecap="round" stroke-linejoin="round"/>
<path d="M84.45 110.797V104.547H83.08L83.78 103.697H85.31V110.797H84.45ZM88.032 110.657C87.892 110.804 87.7186 110.877 87.512 110.877C87.3053 110.877 87.1286 110.804 86.982 110.657C86.842 110.511 86.772 110.334 86.772 110.127C86.772 109.927 86.8453 109.754 86.992 109.607C87.1386 109.454 87.312 109.377 87.512 109.377C87.712 109.377 87.8853 109.454 88.032 109.607C88.1786 109.754 88.252 109.927 88.252 110.127C88.252 110.334 88.1786 110.511 88.032 110.657ZM93.2515 110.217C92.7982 110.671 92.2282 110.897 91.5415 110.897C90.8548 110.897 90.2815 110.671 89.8215 110.217C89.3615 109.764 89.1315 109.211 89.1315 108.557C89.1315 108.211 89.1982 107.901 89.3315 107.627C89.4715 107.347 89.6715 107.054 89.9315 106.747L92.5215 103.697H93.6115L91.4415 106.267C91.5615 106.254 91.6548 106.247 91.7215 106.247C92.3148 106.247 92.8315 106.474 93.2715 106.927C93.7182 107.381 93.9415 107.917 93.9415 108.537C93.9415 109.197 93.7115 109.757 93.2515 110.217ZM91.5415 110.067C91.9682 110.067 92.3282 109.917 92.6215 109.617C92.9148 109.317 93.0615 108.957 93.0615 108.537C93.0615 108.117 92.9148 107.757 92.6215 107.457C92.3282 107.157 91.9682 107.007 91.5415 107.007C91.1082 107.007 90.7448 107.157 90.4515 107.457C90.1582 107.751 90.0115 108.111 90.0115 108.537C90.0115 108.964 90.1582 109.327 90.4515 109.627C90.7448 109.921 91.1082 110.067 91.5415 110.067ZM99.4474 109.967V110.797H94.8474V110.457C94.8474 110.211 94.8841 109.977 94.9574 109.757C95.0374 109.531 95.1241 109.341 95.2174 109.187C95.3108 109.034 95.4574 108.864 95.6574 108.677C95.8574 108.484 96.0141 108.344 96.1274 108.257C96.2408 108.164 96.4308 108.024 96.6974 107.837C96.9641 107.644 97.1408 107.517 97.2274 107.457C97.7008 107.111 98.0274 106.821 98.2074 106.587C98.3941 106.347 98.4874 106.034 98.4874 105.647C98.4874 105.274 98.3674 104.977 98.1274 104.757C97.8874 104.531 97.5741 104.417 97.1874 104.417C96.7808 104.417 96.4341 104.541 96.1474 104.787C95.8608 105.034 95.7174 105.377 95.7174 105.817H94.8374C94.8374 105.151 95.0574 104.611 95.4974 104.197C95.9441 103.784 96.5041 103.577 97.1774 103.577C97.8041 103.577 98.3241 103.757 98.7374 104.117C99.1574 104.477 99.3674 104.991 99.3674 105.657C99.3674 106.164 99.2441 106.597 98.9974 106.957C98.7508 107.311 98.3274 107.704 97.7274 108.137C97.6141 108.217 97.4541 108.331 97.2474 108.477C97.0408 108.617 96.8808 108.731 96.7674 108.817C96.6541 108.904 96.5274 109.011 96.3874 109.137C96.2541 109.257 96.1474 109.387 96.0674 109.527C95.9941 109.661 95.9408 109.807 95.9074 109.967H99.4474ZM103.104 110.797H102.174L106.674 103.697H107.604L103.104 110.797ZM107.554 110.877C107.007 110.877 106.54 110.684 106.154 110.297C105.774 109.911 105.584 109.447 105.584 108.907C105.584 108.361 105.774 107.897 106.154 107.517C106.54 107.131 107.007 106.937 107.554 106.937C108.094 106.937 108.557 107.131 108.944 107.517C109.33 107.897 109.524 108.361 109.524 108.907C109.524 109.447 109.33 109.911 108.944 110.297C108.557 110.684 108.094 110.877 107.554 110.877ZM107.554 110.097C107.874 110.097 108.15 109.981 108.384 109.747C108.617 109.507 108.734 109.227 108.734 108.907C108.734 108.587 108.617 108.311 108.384 108.077C108.15 107.837 107.874 107.717 107.554 107.717C107.22 107.717 106.94 107.834 106.714 108.067C106.487 108.301 106.374 108.581 106.374 108.907C106.374 109.234 106.487 109.514 106.714 109.747C106.94 109.981 107.22 110.097 107.554 110.097ZM102.224 107.557C101.677 107.557 101.21 107.364 100.824 106.977C100.444 106.591 100.254 106.127 100.254 105.587C100.254 105.041 100.444 104.577 100.824 104.197C101.21 103.811 101.677 103.617 102.224 103.617C102.764 103.617 103.227 103.811 103.614 104.197C104 104.577 104.194 105.041 104.194 105.587C104.194 106.127 104 106.591 103.614 106.977C103.227 107.364 102.764 107.557 102.224 107.557ZM102.224 106.777C102.544 106.777 102.82 106.661 103.054 106.427C103.287 106.187 103.404 105.907 103.404 105.587C103.404 105.267 103.287 104.991 103.054 104.757C102.82 104.517 102.544 104.397 102.224 104.397C101.89 104.397 101.61 104.514 101.384 104.747C101.157 104.981 101.044 105.261 101.044 105.587C101.044 105.914 101.157 106.194 101.384 106.427C101.61 106.661 101.89 106.777 102.224 106.777Z" fill="#27AE60"/>
<path d="M137.922 74.124C138.194 74.38 138.33 74.704 138.33 75.096C138.33 75.488 138.194 75.812 137.922 76.068C137.654 76.32 137.302 76.446 136.866 76.446H136.122V78H135.564V73.74H136.866C137.302 73.74 137.654 73.868 137.922 74.124ZM137.532 75.696C137.696 75.54 137.778 75.34 137.778 75.096C137.778 74.852 137.696 74.652 137.532 74.496C137.372 74.34 137.15 74.262 136.866 74.262H136.122V75.93H136.866C137.15 75.93 137.372 75.852 137.532 75.696ZM138.961 78V75H139.477V75.582C139.533 75.398 139.641 75.25 139.801 75.138C139.965 75.026 140.137 74.97 140.317 74.97C140.405 74.97 140.483 74.978 140.551 74.994V75.528C140.479 75.496 140.385 75.48 140.269 75.48C140.061 75.48 139.877 75.57 139.717 75.75C139.557 75.93 139.477 76.184 139.477 76.512V78H138.961ZM141.68 74.094C141.612 74.162 141.526 74.196 141.422 74.196C141.318 74.196 141.23 74.162 141.158 74.094C141.086 74.022 141.05 73.934 141.05 73.83C141.05 73.73 141.086 73.644 141.158 73.572C141.23 73.5 141.318 73.464 141.422 73.464C141.526 73.464 141.612 73.5 141.68 73.572C141.748 73.644 141.782 73.73 141.782 73.83C141.782 73.934 141.748 74.022 141.68 74.094ZM141.158 78V75H141.674V78H141.158ZM143.984 78.06C143.532 78.06 143.158 77.91 142.862 77.61C142.566 77.306 142.418 76.936 142.418 76.5C142.418 76.064 142.566 75.696 142.862 75.396C143.158 75.092 143.532 74.94 143.984 74.94C144.356 74.94 144.678 75.044 144.95 75.252C145.222 75.456 145.404 75.724 145.496 76.056H144.944C144.872 75.86 144.752 75.704 144.584 75.588C144.416 75.472 144.216 75.414 143.984 75.414C143.676 75.414 143.424 75.518 143.228 75.726C143.036 75.934 142.94 76.192 142.94 76.5C142.94 76.808 143.036 77.066 143.228 77.274C143.424 77.482 143.676 77.586 143.984 77.586C144.216 77.586 144.416 77.528 144.584 77.412C144.752 77.296 144.872 77.14 144.944 76.944H145.496C145.408 77.276 145.228 77.546 144.956 77.754C144.684 77.958 144.36 78.06 143.984 78.06ZM147.457 78.06C147.021 78.06 146.659 77.912 146.371 77.616C146.087 77.32 145.945 76.948 145.945 76.5C145.945 76.048 146.083 75.676 146.359 75.384C146.639 75.088 147.009 74.94 147.469 74.94C147.933 74.94 148.297 75.104 148.561 75.432C148.825 75.76 148.941 76.162 148.909 76.638H146.467C146.475 76.91 146.575 77.138 146.767 77.322C146.959 77.502 147.191 77.592 147.463 77.592C147.871 77.592 148.161 77.424 148.333 77.088H148.861C148.785 77.368 148.623 77.6 148.375 77.784C148.127 77.968 147.821 78.06 147.457 78.06ZM148.045 75.612C147.881 75.468 147.683 75.396 147.451 75.396C147.219 75.396 147.011 75.466 146.827 75.606C146.647 75.746 146.535 75.954 146.491 76.23H148.363C148.315 75.958 148.209 75.752 148.045 75.612Z" fill="white"/>
<path d="M137.904 97.056V96.108C137.184 96.028 136.6 95.76 136.152 95.304C135.704 94.84 135.48 94.24 135.48 93.504H137.124C137.156 94.016 137.416 94.348 137.904 94.5V92.436L137.484 92.28C136.868 92.056 136.38 91.736 136.02 91.32C135.66 90.896 135.48 90.38 135.48 89.772C135.48 89.06 135.696 88.488 136.128 88.056C136.56 87.624 137.152 87.388 137.904 87.348V86.424H138.552V87.36C139.208 87.456 139.744 87.728 140.16 88.176C140.576 88.616 140.784 89.14 140.784 89.748H139.14C139.068 89.364 138.872 89.112 138.552 88.992V90.888L138.972 91.044C139.644 91.292 140.152 91.628 140.496 92.052C140.84 92.476 141.012 93.024 141.012 93.696C141.012 94.416 140.792 94.992 140.352 95.424C139.92 95.848 139.32 96.08 138.552 96.12V97.056H137.904ZM139.368 93.708C139.368 93.292 139.096 92.956 138.552 92.7V94.536C138.792 94.504 138.988 94.416 139.14 94.272C139.292 94.12 139.368 93.932 139.368 93.708ZM137.124 89.748C137.124 89.948 137.184 90.116 137.304 90.252C137.432 90.388 137.632 90.516 137.904 90.636V88.944C137.664 88.984 137.472 89.076 137.328 89.22C137.192 89.356 137.124 89.532 137.124 89.748ZM147.734 94.38V96H141.926V95.436C141.926 95.204 141.95 94.98 141.998 94.764C142.046 94.548 142.102 94.36 142.166 94.2C142.238 94.032 142.342 93.86 142.478 93.684C142.614 93.508 142.73 93.364 142.826 93.252C142.922 93.14 143.066 93.004 143.258 92.844C143.458 92.684 143.61 92.568 143.714 92.496C143.818 92.416 143.982 92.3 144.206 92.148C144.43 91.988 144.586 91.876 144.674 91.812C145.57 91.188 146.018 90.604 146.018 90.06C146.018 89.74 145.918 89.476 145.718 89.268C145.518 89.06 145.242 88.956 144.89 88.956C144.514 88.956 144.202 89.072 143.954 89.304C143.714 89.528 143.598 89.812 143.606 90.156H141.95C141.95 89.324 142.23 88.648 142.79 88.128C143.358 87.6 144.07 87.336 144.926 87.336C145.686 87.336 146.33 87.568 146.858 88.032C147.394 88.496 147.662 89.14 147.662 89.964C147.662 90.644 147.514 91.204 147.218 91.644C146.93 92.076 146.478 92.516 145.862 92.964C145.806 93.004 145.662 93.104 145.43 93.264C145.198 93.416 145.022 93.536 144.902 93.624C144.782 93.712 144.646 93.828 144.494 93.972C144.35 94.116 144.254 94.252 144.206 94.38H147.734ZM149.981 96.096C149.645 96.096 149.361 95.98 149.129 95.748C148.897 95.516 148.781 95.232 148.781 94.896C148.781 94.56 148.897 94.276 149.129 94.044C149.361 93.812 149.645 93.696 149.981 93.696C150.309 93.696 150.589 93.816 150.821 94.056C151.061 94.288 151.181 94.568 151.181 94.896C151.181 95.224 151.061 95.508 150.821 95.748C150.589 95.98 150.309 96.096 149.981 96.096ZM155.072 96.132C154.272 96.132 153.572 95.884 152.972 95.388C152.38 94.892 152.068 94.272 152.036 93.528H153.74C153.812 93.816 153.968 94.052 154.208 94.236C154.456 94.42 154.744 94.512 155.072 94.512C155.488 94.512 155.812 94.388 156.044 94.14C156.284 93.884 156.404 93.568 156.404 93.192C156.404 92.808 156.28 92.492 156.032 92.244C155.792 91.996 155.48 91.872 155.096 91.872C154.768 91.872 154.488 91.952 154.256 92.112C154.024 92.272 153.86 92.488 153.764 92.76L152.312 92.316L153.272 87.48H157.424V89.076H154.544L154.22 90.672C154.524 90.48 154.916 90.384 155.396 90.384C156.196 90.384 156.836 90.656 157.316 91.2C157.804 91.744 158.048 92.452 158.048 93.324C158.048 94.172 157.772 94.852 157.22 95.364C156.676 95.876 155.96 96.132 155.072 96.132ZM161.915 96.132C161.027 96.132 160.311 95.856 159.767 95.304C159.223 94.744 158.951 94.04 158.951 93.192C158.951 92.792 159.023 92.444 159.167 92.148C159.311 91.844 159.567 91.436 159.935 90.924L162.479 87.48H164.507L162.311 90.468C162.983 90.5 163.579 90.764 164.099 91.26C164.627 91.756 164.891 92.4 164.891 93.192C164.891 94.04 164.619 94.744 164.075 95.304C163.531 95.856 162.811 96.132 161.915 96.132ZM161.915 94.548C162.299 94.548 162.615 94.42 162.863 94.164C163.111 93.908 163.235 93.592 163.235 93.216C163.235 92.848 163.107 92.532 162.851 92.268C162.603 92.004 162.291 91.872 161.915 91.872C161.539 91.872 161.227 92.004 160.979 92.268C160.731 92.524 160.607 92.84 160.607 93.216C160.607 93.592 160.731 93.908 160.979 94.164C161.227 94.42 161.539 94.548 161.915 94.548ZM167.681 96H165.821L169.673 89.076H165.689V87.48H171.629V88.896L167.681 96Z" fill="white"/>
<path d="M197.428 78V74.268H196.102V73.74H199.3V74.268H197.974V78H197.428ZM200.701 78.06C200.249 78.06 199.873 77.91 199.573 77.61C199.277 77.306 199.129 76.936 199.129 76.5C199.129 76.064 199.277 75.696 199.573 75.396C199.873 75.092 200.249 74.94 200.701 74.94C201.149 74.94 201.521 75.092 201.817 75.396C202.117 75.696 202.267 76.064 202.267 76.5C202.267 76.936 202.117 77.306 201.817 77.61C201.521 77.91 201.149 78.06 200.701 78.06ZM199.945 77.268C200.141 77.476 200.393 77.58 200.701 77.58C201.009 77.58 201.259 77.476 201.451 77.268C201.643 77.06 201.739 76.804 201.739 76.5C201.739 76.196 201.643 75.94 201.451 75.732C201.259 75.524 201.009 75.42 200.701 75.42C200.393 75.42 200.141 75.524 199.945 75.732C199.753 75.94 199.657 76.196 199.657 76.5C199.657 76.804 199.753 77.06 199.945 77.268ZM204.119 78.03C203.843 78.03 203.621 77.952 203.453 77.796C203.285 77.64 203.201 77.412 203.201 77.112V75.474H202.565V75H203.201V74.166H203.717V75H204.581V75.474H203.717V77.046C203.717 77.234 203.757 77.366 203.837 77.442C203.917 77.518 204.043 77.556 204.215 77.556C204.367 77.556 204.489 77.536 204.581 77.496V77.958C204.437 78.006 204.283 78.03 204.119 78.03ZM206.435 78.06C206.019 78.06 205.669 77.908 205.385 77.604C205.105 77.3 204.965 76.932 204.965 76.5C204.965 76.068 205.105 75.7 205.385 75.396C205.669 75.092 206.019 74.94 206.435 74.94C206.655 74.94 206.859 74.99 207.047 75.09C207.239 75.186 207.387 75.31 207.491 75.462V75H208.007V78H207.491V77.538C207.387 77.69 207.239 77.816 207.047 77.916C206.859 78.012 206.655 78.06 206.435 78.06ZM206.513 77.586C206.809 77.586 207.053 77.482 207.245 77.274C207.437 77.066 207.533 76.808 207.533 76.5C207.533 76.192 207.437 75.934 207.245 75.726C207.053 75.518 206.809 75.414 206.513 75.414C206.213 75.414 205.967 75.518 205.775 75.726C205.583 75.934 205.487 76.192 205.487 76.5C205.487 76.808 205.583 77.066 205.775 77.274C205.967 77.482 206.213 77.586 206.513 77.586ZM208.978 78V73.5H209.494V78H208.978ZM213.112 78L211.294 73.74H211.912L213.346 77.13L214.786 73.74H215.392L213.58 78H213.112ZM216.902 78.06C216.45 78.06 216.074 77.91 215.774 77.61C215.478 77.306 215.33 76.936 215.33 76.5C215.33 76.064 215.478 75.696 215.774 75.396C216.074 75.092 216.45 74.94 216.902 74.94C217.35 74.94 217.722 75.092 218.018 75.396C218.318 75.696 218.468 76.064 218.468 76.5C218.468 76.936 218.318 77.306 218.018 77.61C217.722 77.91 217.35 78.06 216.902 78.06ZM216.146 77.268C216.342 77.476 216.594 77.58 216.902 77.58C217.21 77.58 217.46 77.476 217.652 77.268C217.844 77.06 217.94 76.804 217.94 76.5C217.94 76.196 217.844 75.94 217.652 75.732C217.46 75.524 217.21 75.42 216.902 75.42C216.594 75.42 216.342 75.524 216.146 75.732C215.954 75.94 215.858 76.196 215.858 76.5C215.858 76.804 215.954 77.06 216.146 77.268ZM219.209 78V73.5H219.725V78H219.209ZM221.765 78.06C221.437 78.06 221.171 77.95 220.967 77.73C220.763 77.506 220.661 77.21 220.661 76.842V75H221.177V76.764C221.177 77.016 221.237 77.216 221.357 77.364C221.481 77.512 221.647 77.586 221.855 77.586C222.095 77.586 222.293 77.488 222.449 77.292C222.609 77.092 222.689 76.824 222.689 76.488V75H223.205V78H222.689V77.538C222.493 77.886 222.185 78.06 221.765 78.06ZM228.041 78V76.236C228.041 75.988 227.989 75.79 227.885 75.642C227.785 75.49 227.639 75.414 227.447 75.414C227.207 75.414 227.011 75.508 226.859 75.696C226.711 75.884 226.633 76.14 226.625 76.464V78H226.109V76.236C226.109 75.984 226.057 75.784 225.953 75.636C225.853 75.488 225.709 75.414 225.521 75.414C225.273 75.414 225.073 75.514 224.921 75.714C224.769 75.91 224.693 76.176 224.693 76.512V78H224.177V75H224.693V75.462C224.885 75.114 225.187 74.94 225.599 74.94C226.055 74.94 226.363 75.154 226.523 75.582C226.603 75.386 226.731 75.23 226.907 75.114C227.083 74.998 227.283 74.94 227.507 74.94C227.831 74.94 228.087 75.05 228.275 75.27C228.463 75.49 228.557 75.786 228.557 76.158V78H228.041ZM230.764 78.06C230.328 78.06 229.966 77.912 229.678 77.616C229.394 77.32 229.252 76.948 229.252 76.5C229.252 76.048 229.39 75.676 229.666 75.384C229.946 75.088 230.316 74.94 230.776 74.94C231.24 74.94 231.604 75.104 231.868 75.432C232.132 75.76 232.248 76.162 232.216 76.638H229.774C229.782 76.91 229.882 77.138 230.074 77.322C230.266 77.502 230.498 77.592 230.77 77.592C231.178 77.592 231.468 77.424 231.64 77.088H232.168C232.092 77.368 231.93 77.6 231.682 77.784C231.434 77.968 231.128 78.06 230.764 78.06ZM231.352 75.612C231.188 75.468 230.99 75.396 230.758 75.396C230.526 75.396 230.318 75.466 230.134 75.606C229.954 75.746 229.842 75.954 229.798 76.23H231.67C231.622 75.958 231.516 75.752 231.352 75.612Z" fill="white"/>
<path d="M198.904 97.056V96.108C198.184 96.028 197.6 95.76 197.152 95.304C196.704 94.84 196.48 94.24 196.48 93.504H198.124C198.156 94.016 198.416 94.348 198.904 94.5V92.436L198.484 92.28C197.868 92.056 197.38 91.736 197.02 91.32C196.66 90.896 196.48 90.38 196.48 89.772C196.48 89.06 196.696 88.488 197.128 88.056C197.56 87.624 198.152 87.388 198.904 87.348V86.424H199.552V87.36C200.208 87.456 200.744 87.728 201.16 88.176C201.576 88.616 201.784 89.14 201.784 89.748H200.14C200.068 89.364 199.872 89.112 199.552 88.992V90.888L199.972 91.044C200.644 91.292 201.152 91.628 201.496 92.052C201.84 92.476 202.012 93.024 202.012 93.696C202.012 94.416 201.792 94.992 201.352 95.424C200.92 95.848 200.32 96.08 199.552 96.12V97.056H198.904ZM200.368 93.708C200.368 93.292 200.096 92.956 199.552 92.7V94.536C199.792 94.504 199.988 94.416 200.14 94.272C200.292 94.12 200.368 93.932 200.368 93.708ZM198.124 89.748C198.124 89.948 198.184 90.116 198.304 90.252C198.432 90.388 198.632 90.516 198.904 90.636V88.944C198.664 88.984 198.472 89.076 198.328 89.22C198.192 89.356 198.124 89.532 198.124 89.748ZM208.734 94.38V96H202.926V95.436C202.926 95.204 202.95 94.98 202.998 94.764C203.046 94.548 203.102 94.36 203.166 94.2C203.238 94.032 203.342 93.86 203.478 93.684C203.614 93.508 203.73 93.364 203.826 93.252C203.922 93.14 204.066 93.004 204.258 92.844C204.458 92.684 204.61 92.568 204.714 92.496C204.818 92.416 204.982 92.3 205.206 92.148C205.43 91.988 205.586 91.876 205.674 91.812C206.57 91.188 207.018 90.604 207.018 90.06C207.018 89.74 206.918 89.476 206.718 89.268C206.518 89.06 206.242 88.956 205.89 88.956C205.514 88.956 205.202 89.072 204.954 89.304C204.714 89.528 204.598 89.812 204.606 90.156H202.95C202.95 89.324 203.23 88.648 203.79 88.128C204.358 87.6 205.07 87.336 205.926 87.336C206.686 87.336 207.33 87.568 207.858 88.032C208.394 88.496 208.662 89.14 208.662 89.964C208.662 90.644 208.514 91.204 208.218 91.644C207.93 92.076 207.478 92.516 206.862 92.964C206.806 93.004 206.662 93.104 206.43 93.264C206.198 93.416 206.022 93.536 205.902 93.624C205.782 93.712 205.646 93.828 205.494 93.972C205.35 94.116 205.254 94.252 205.206 94.38H208.734ZM212.685 96.132C211.797 96.132 211.081 95.856 210.537 95.304C209.993 94.744 209.721 94.04 209.721 93.192C209.721 92.792 209.793 92.444 209.937 92.148C210.081 91.844 210.337 91.436 210.705 90.924L213.249 87.48H215.277L213.081 90.468C213.753 90.5 214.349 90.764 214.869 91.26C215.397 91.756 215.661 92.4 215.661 93.192C215.661 94.04 215.389 94.744 214.845 95.304C214.301 95.856 213.581 96.132 212.685 96.132ZM212.685 94.548C213.069 94.548 213.385 94.42 213.633 94.164C213.881 93.908 214.005 93.592 214.005 93.216C214.005 92.848 213.877 92.532 213.621 92.268C213.373 92.004 213.061 91.872 212.685 91.872C212.309 91.872 211.997 92.004 211.749 92.268C211.501 92.524 211.377 92.84 211.377 93.216C211.377 93.592 211.501 93.908 211.749 94.164C211.997 94.42 212.309 94.548 212.685 94.548ZM219.517 96.132C218.629 96.132 217.913 95.856 217.369 95.304C216.825 94.744 216.553 94.04 216.553 93.192C216.553 92.792 216.625 92.444 216.769 92.148C216.913 91.844 217.169 91.436 217.537 90.924L220.081 87.48H222.109L219.913 90.468C220.585 90.5 221.181 90.764 221.701 91.26C222.229 91.756 222.493 92.4 222.493 93.192C222.493 94.04 222.221 94.744 221.677 95.304C221.133 95.856 220.413 96.132 219.517 96.132ZM219.517 94.548C219.901 94.548 220.217 94.42 220.465 94.164C220.713 93.908 220.837 93.592 220.837 93.216C220.837 92.848 220.709 92.532 220.453 92.268C220.205 92.004 219.893 91.872 219.517 91.872C219.141 91.872 218.829 92.004 218.581 92.268C218.333 92.524 218.209 92.84 218.209 93.216C218.209 93.592 218.333 93.908 218.581 94.164C218.829 94.42 219.141 94.548 219.517 94.548ZM224.633 96.096C224.297 96.096 224.013 95.98 223.781 95.748C223.549 95.516 223.433 95.232 223.433 94.896C223.433 94.56 223.549 94.276 223.781 94.044C224.013 93.812 224.297 93.696 224.633 93.696C224.961 93.696 225.241 93.816 225.473 94.056C225.713 94.288 225.833 94.568 225.833 94.896C225.833 95.224 225.713 95.508 225.473 95.748C225.241 95.98 224.961 96.096 224.633 96.096ZM226.945 96L229.141 93C228.477 92.984 227.881 92.724 227.353 92.22C226.833 91.716 226.573 91.068 226.573 90.276C226.573 89.428 226.845 88.728 227.389 88.176C227.941 87.616 228.661 87.336 229.549 87.336C230.437 87.336 231.153 87.616 231.697 88.176C232.249 88.728 232.525 89.428 232.525 90.276C232.525 90.668 232.453 91.016 232.309 91.32C232.165 91.616 231.905 92.024 231.529 92.544L228.985 96H226.945ZM228.601 91.2C228.857 91.464 229.173 91.596 229.549 91.596C229.925 91.596 230.237 91.464 230.485 91.2C230.741 90.936 230.869 90.62 230.869 90.252C230.869 89.876 230.745 89.56 230.497 89.304C230.249 89.048 229.933 88.92 229.549 88.92C229.165 88.92 228.849 89.048 228.601 89.304C228.353 89.552 228.229 89.868 228.229 90.252C228.229 90.62 228.353 90.936 228.601 91.2ZM234.762 96V89.1H232.962L234.162 87.48H236.406V96H234.762ZM242.239 96L239.791 93.24V96H238.147V87H239.791V92.208L241.735 90H243.715L241.339 92.7L244.267 96H242.239Z" fill="white"/>
<path d="M59 154C59 148.399 59 145.599 60.0899 143.46C61.0487 141.578 62.5785 140.049 64.4601 139.09C66.5992 138 69.3995 138 75 138H243C248.601 138 251.401 138 253.54 139.09C255.422 140.049 256.951 141.578 257.91 143.46C259 145.599 259 148.399 259 154V314C259 319.601 259 322.401 257.91 324.54C256.951 326.422 255.422 327.951 253.54 328.91C251.401 330 248.601 330 243 330H75C69.3995 330 66.5992 330 64.4601 328.91C62.5785 327.951 61.0487 326.422 60.0899 324.54C59 322.401 59 319.601 59 314V154Z" fill="#0C0B0E"/>
<path d="M72.428 163V159.268H71.102V158.74H74.3V159.268H72.974V163H72.428ZM75.7008 163.06C75.2488 163.06 74.8728 162.91 74.5728 162.61C74.2768 162.306 74.1288 161.936 74.1288 161.5C74.1288 161.064 74.2768 160.696 74.5728 160.396C74.8728 160.092 75.2488 159.94 75.7008 159.94C76.1488 159.94 76.5208 160.092 76.8168 160.396C77.1168 160.696 77.2668 161.064 77.2668 161.5C77.2668 161.936 77.1168 162.306 76.8168 162.61C76.5208 162.91 76.1488 163.06 75.7008 163.06ZM74.9448 162.268C75.1408 162.476 75.3928 162.58 75.7008 162.58C76.0088 162.58 76.2588 162.476 76.4508 162.268C76.6428 162.06 76.7388 161.804 76.7388 161.5C76.7388 161.196 76.6428 160.94 76.4508 160.732C76.2588 160.524 76.0088 160.42 75.7008 160.42C75.3928 160.42 75.1408 160.524 74.9448 160.732C74.7528 160.94 74.6568 161.196 74.6568 161.5C74.6568 161.804 74.7528 162.06 74.9448 162.268ZM79.1188 163.03C78.8428 163.03 78.6208 162.952 78.4528 162.796C78.2848 162.64 78.2008 162.412 78.2008 162.112V160.474H77.5648V160H78.2008V159.166H78.7168V160H79.5808V160.474H78.7168V162.046C78.7168 162.234 78.7568 162.366 78.8368 162.442C78.9168 162.518 79.0428 162.556 79.2148 162.556C79.3668 162.556 79.4888 162.536 79.5808 162.496V162.958C79.4368 163.006 79.2828 163.03 79.1188 163.03ZM81.4349 163.06C81.0189 163.06 80.6689 162.908 80.3849 162.604C80.1049 162.3 79.9649 161.932 79.9649 161.5C79.9649 161.068 80.1049 160.7 80.3849 160.396C80.6689 160.092 81.0189 159.94 81.4349 159.94C81.6549 159.94 81.8589 159.99 82.0469 160.09C82.2389 160.186 82.3869 160.31 82.4909 160.462V160H83.0069V163H82.4909V162.538C82.3869 162.69 82.2389 162.816 82.0469 162.916C81.8589 163.012 81.6549 163.06 81.4349 163.06ZM81.5129 162.586C81.8089 162.586 82.0529 162.482 82.2449 162.274C82.4369 162.066 82.5329 161.808 82.5329 161.5C82.5329 161.192 82.4369 160.934 82.2449 160.726C82.0529 160.518 81.8089 160.414 81.5129 160.414C81.2129 160.414 80.9669 160.518 80.7749 160.726C80.5829 160.934 80.4869 161.192 80.4869 161.5C80.4869 161.808 80.5829 162.066 80.7749 162.274C80.9669 162.482 81.2129 162.586 81.5129 162.586ZM83.9782 163V158.5H84.4942V163H83.9782ZM87.7208 163L86.3348 160H86.9108L87.9368 162.274L88.9628 160H89.5388L88.1528 163H87.7208ZM91.2376 163.06C90.8216 163.06 90.4716 162.908 90.1876 162.604C89.9076 162.3 89.7676 161.932 89.7676 161.5C89.7676 161.068 89.9076 160.7 90.1876 160.396C90.4716 160.092 90.8216 159.94 91.2376 159.94C91.4576 159.94 91.6616 159.99 91.8496 160.09C92.0416 160.186 92.1896 160.31 92.2936 160.462V160H92.8096V163H92.2936V162.538C92.1896 162.69 92.0416 162.816 91.8496 162.916C91.6616 163.012 91.4576 163.06 91.2376 163.06ZM91.3156 162.586C91.6116 162.586 91.8556 162.482 92.0476 162.274C92.2396 162.066 92.3356 161.808 92.3356 161.5C92.3356 161.192 92.2396 160.934 92.0476 160.726C91.8556 160.518 91.6116 160.414 91.3156 160.414C91.0156 160.414 90.7696 160.518 90.5776 160.726C90.3856 160.934 90.2896 161.192 90.2896 161.5C90.2896 161.808 90.3856 162.066 90.5776 162.274C90.7696 162.482 91.0156 162.586 91.3156 162.586ZM93.7809 163V158.5H94.2969V163H93.7809ZM96.3371 163.06C96.0091 163.06 95.7431 162.95 95.5391 162.73C95.3351 162.506 95.2331 162.21 95.2331 161.842V160H95.7491V161.764C95.7491 162.016 95.8091 162.216 95.9291 162.364C96.0531 162.512 96.2191 162.586 96.4271 162.586C96.6671 162.586 96.8651 162.488 97.0211 162.292C97.1811 162.092 97.2611 161.824 97.2611 161.488V160H97.7771V163H97.2611V162.538C97.0651 162.886 96.7571 163.06 96.3371 163.06ZM100.028 163.06C99.5917 163.06 99.2297 162.912 98.9417 162.616C98.6577 162.32 98.5157 161.948 98.5157 161.5C98.5157 161.048 98.6537 160.676 98.9297 160.384C99.2097 160.088 99.5797 159.94 100.04 159.94C100.504 159.94 100.868 160.104 101.132 160.432C101.396 160.76 101.512 161.162 101.48 161.638H99.0377C99.0457 161.91 99.1457 162.138 99.3377 162.322C99.5297 162.502 99.7617 162.592 100.034 162.592C100.442 162.592 100.732 162.424 100.904 162.088H101.432C101.356 162.368 101.194 162.6 100.946 162.784C100.698 162.968 100.392 163.06 100.028 163.06ZM100.616 160.612C100.452 160.468 100.254 160.396 100.022 160.396C99.7897 160.396 99.5817 160.466 99.3977 160.606C99.2177 160.746 99.1057 160.954 99.0617 161.23H100.934C100.886 160.958 100.78 160.752 100.616 160.612ZM103.672 163V158.5H104.188V163H103.672ZM106.498 163.06C106.046 163.06 105.67 162.91 105.37 162.61C105.074 162.306 104.926 161.936 104.926 161.5C104.926 161.064 105.074 160.696 105.37 160.396C105.67 160.092 106.046 159.94 106.498 159.94C106.946 159.94 107.318 160.092 107.614 160.396C107.914 160.696 108.064 161.064 108.064 161.5C108.064 161.936 107.914 162.306 107.614 162.61C107.318 162.91 106.946 163.06 106.498 163.06ZM105.742 162.268C105.938 162.476 106.19 162.58 106.498 162.58C106.806 162.58 107.056 162.476 107.248 162.268C107.44 162.06 107.536 161.804 107.536 161.5C107.536 161.196 107.44 160.94 107.248 160.732C107.056 160.524 106.806 160.42 106.498 160.42C106.19 160.42 105.938 160.524 105.742 160.732C105.55 160.94 105.454 161.196 105.454 161.5C105.454 161.804 105.55 162.06 105.742 162.268ZM110.136 163.06C109.684 163.06 109.31 162.91 109.014 162.61C108.718 162.306 108.57 161.936 108.57 161.5C108.57 161.064 108.718 160.696 109.014 160.396C109.31 160.092 109.684 159.94 110.136 159.94C110.508 159.94 110.83 160.044 111.102 160.252C111.374 160.456 111.556 160.724 111.648 161.056H111.096C111.024 160.86 110.904 160.704 110.736 160.588C110.568 160.472 110.368 160.414 110.136 160.414C109.828 160.414 109.576 160.518 109.38 160.726C109.188 160.934 109.092 161.192 109.092 161.5C109.092 161.808 109.188 162.066 109.38 162.274C109.576 162.482 109.828 162.586 110.136 162.586C110.368 162.586 110.568 162.528 110.736 162.412C110.904 162.296 111.024 162.14 111.096 161.944H111.648C111.56 162.276 111.38 162.546 111.108 162.754C110.836 162.958 110.512 163.06 110.136 163.06ZM114.474 163L112.848 161.5V163H112.332V158.5H112.848V161.17L114.156 160H114.84L113.364 161.326L115.17 163H114.474ZM116.651 163.06C116.215 163.06 115.853 162.912 115.565 162.616C115.281 162.32 115.139 161.948 115.139 161.5C115.139 161.048 115.277 160.676 115.553 160.384C115.833 160.088 116.203 159.94 116.663 159.94C117.127 159.94 117.491 160.104 117.755 160.432C118.019 160.76 118.135 161.162 118.103 161.638H115.661C115.669 161.91 115.769 162.138 115.961 162.322C116.153 162.502 116.385 162.592 116.657 162.592C117.065 162.592 117.355 162.424 117.527 162.088H118.055C117.979 162.368 117.817 162.6 117.569 162.784C117.321 162.968 117.015 163.06 116.651 163.06ZM117.239 160.612C117.075 160.468 116.877 160.396 116.645 160.396C116.413 160.396 116.205 160.466 116.021 160.606C115.841 160.746 115.729 160.954 115.685 161.23H117.557C117.509 160.958 117.403 160.752 117.239 160.612ZM120.083 163.06C119.667 163.06 119.317 162.908 119.033 162.604C118.753 162.3 118.613 161.932 118.613 161.5C118.613 161.068 118.753 160.7 119.033 160.396C119.317 160.092 119.667 159.94 120.083 159.94C120.303 159.94 120.507 159.99 120.695 160.09C120.887 160.186 121.035 160.31 121.139 160.462V158.5H121.655V163H121.139V162.538C121.035 162.69 120.887 162.816 120.695 162.916C120.507 163.012 120.303 163.06 120.083 163.06ZM120.161 162.586C120.457 162.586 120.701 162.482 120.893 162.274C121.085 162.066 121.181 161.808 121.181 161.5C121.181 161.192 121.085 160.934 120.893 160.726C120.701 160.518 120.457 160.414 120.161 160.414C119.861 160.414 119.615 160.518 119.423 160.726C119.231 160.934 119.135 161.192 119.135 161.5C119.135 161.808 119.231 162.066 119.423 162.274C119.615 162.482 119.861 162.586 120.161 162.586Z" fill="white"/>
<rect x="191" y="150" width="56" height="22" rx="4" fill="#8E8E93"/>
<path d="M199.472 162.544C199.94 162.544 200.33 162.382 200.642 162.058C200.958 161.734 201.116 161.338 201.116 160.87C201.116 160.402 200.958 160.006 200.642 159.682C200.33 159.358 199.94 159.196 199.472 159.196C199.008 159.196 198.618 159.358 198.302 159.682C197.99 160.006 197.834 160.402 197.834 160.87C197.834 161.338 197.99 161.734 198.302 162.058C198.618 162.382 199.008 162.544 199.472 162.544ZM199.472 163.072C198.86 163.072 198.34 162.86 197.912 162.436C197.484 162.008 197.27 161.486 197.27 160.87C197.27 160.254 197.484 159.734 197.912 159.31C198.34 158.882 198.86 158.668 199.472 158.668C200.088 158.668 200.608 158.882 201.032 159.31C201.46 159.734 201.674 160.254 201.674 160.87C201.674 161.486 201.46 162.008 201.032 162.436C200.608 162.86 200.088 163.072 199.472 163.072ZM203.769 163.06C203.317 163.06 202.943 162.91 202.647 162.61C202.351 162.306 202.203 161.936 202.203 161.5C202.203 161.064 202.351 160.696 202.647 160.396C202.943 160.092 203.317 159.94 203.769 159.94C204.141 159.94 204.463 160.044 204.735 160.252C205.007 160.456 205.189 160.724 205.281 161.056H204.729C204.657 160.86 204.537 160.704 204.369 160.588C204.201 160.472 204.001 160.414 203.769 160.414C203.461 160.414 203.209 160.518 203.013 160.726C202.821 160.934 202.725 161.192 202.725 161.5C202.725 161.808 202.821 162.066 203.013 162.274C203.209 162.482 203.461 162.586 203.769 162.586C204.001 162.586 204.201 162.528 204.369 162.412C204.537 162.296 204.657 162.14 204.729 161.944H205.281C205.193 162.276 205.013 162.546 204.741 162.754C204.469 162.958 204.145 163.06 203.769 163.06ZM207.099 163.03C206.823 163.03 206.601 162.952 206.433 162.796C206.265 162.64 206.181 162.412 206.181 162.112V160.474H205.545V160H206.181V159.166H206.697V160H207.561V160.474H206.697V162.046C206.697 162.234 206.737 162.366 206.817 162.442C206.897 162.518 207.023 162.556 207.195 162.556C207.347 162.556 207.469 162.536 207.561 162.496V162.958C207.417 163.006 207.263 163.03 207.099 163.03ZM212.236 162.502V163H209.476V162.796C209.476 162.648 209.498 162.508 209.542 162.376C209.59 162.24 209.642 162.126 209.698 162.034C209.754 161.942 209.842 161.84 209.962 161.728C210.082 161.612 210.176 161.528 210.244 161.476C210.312 161.42 210.426 161.336 210.586 161.224C210.746 161.108 210.852 161.032 210.904 160.996C211.188 160.788 211.384 160.614 211.492 160.474C211.604 160.33 211.66 160.142 211.66 159.91C211.66 159.686 211.588 159.508 211.444 159.376C211.3 159.24 211.112 159.172 210.88 159.172C210.636 159.172 210.428 159.246 210.256 159.394C210.084 159.542 209.998 159.748 209.998 160.012H209.47C209.47 159.612 209.602 159.288 209.866 159.04C210.134 158.792 210.47 158.668 210.874 158.668C211.25 158.668 211.562 158.776 211.81 158.992C212.062 159.208 212.188 159.516 212.188 159.916C212.188 160.22 212.114 160.48 211.966 160.696C211.818 160.908 211.564 161.144 211.204 161.404C211.136 161.452 211.04 161.52 210.916 161.608C210.792 161.692 210.696 161.76 210.628 161.812C210.56 161.864 210.484 161.928 210.4 162.004C210.32 162.076 210.256 162.154 210.208 162.238C210.164 162.318 210.132 162.406 210.112 162.502H212.236ZM214.393 163.06C213.949 163.06 213.587 162.912 213.307 162.616C213.027 162.316 212.887 161.93 212.887 161.458V160.27C212.887 159.798 213.027 159.414 213.307 159.118C213.591 158.818 213.953 158.668 214.393 158.668C214.833 158.668 215.195 158.818 215.479 159.118C215.763 159.418 215.905 159.802 215.905 160.27V161.458C215.905 161.93 215.763 162.316 215.479 162.616C215.195 162.912 214.833 163.06 214.393 163.06ZM214.393 162.556C214.689 162.556 214.929 162.458 215.113 162.262C215.297 162.066 215.389 161.798 215.389 161.458V160.27C215.389 159.93 215.297 159.662 215.113 159.466C214.929 159.27 214.689 159.172 214.393 159.172C214.101 159.172 213.863 159.27 213.679 159.466C213.495 159.662 213.403 159.93 213.403 160.27V161.458C213.403 161.798 213.495 162.066 213.679 162.262C213.863 162.458 214.101 162.556 214.393 162.556ZM219.32 162.502V163H216.56V162.796C216.56 162.648 216.582 162.508 216.626 162.376C216.674 162.24 216.726 162.126 216.782 162.034C216.838 161.942 216.926 161.84 217.046 161.728C217.166 161.612 217.26 161.528 217.328 161.476C217.396 161.42 217.51 161.336 217.67 161.224C217.83 161.108 217.936 161.032 217.988 160.996C218.272 160.788 218.468 160.614 218.576 160.474C218.688 160.33 218.744 160.142 218.744 159.91C218.744 159.686 218.672 159.508 218.528 159.376C218.384 159.24 218.196 159.172 217.964 159.172C217.72 159.172 217.512 159.246 217.34 159.394C217.168 159.542 217.082 159.748 217.082 160.012H216.554C216.554 159.612 216.686 159.288 216.95 159.04C217.218 158.792 217.554 158.668 217.958 158.668C218.334 158.668 218.646 158.776 218.894 158.992C219.146 159.208 219.272 159.516 219.272 159.916C219.272 160.22 219.198 160.48 219.05 160.696C218.902 160.908 218.648 161.144 218.288 161.404C218.22 161.452 218.124 161.52 218 161.608C217.876 161.692 217.78 161.76 217.712 161.812C217.644 161.864 217.568 161.928 217.484 162.004C217.404 162.076 217.34 162.154 217.292 162.238C217.248 162.318 217.216 162.406 217.196 162.502H219.32ZM222.665 162.502V163H219.905V162.796C219.905 162.648 219.927 162.508 219.971 162.376C220.019 162.24 220.071 162.126 220.127 162.034C220.183 161.942 220.271 161.84 220.391 161.728C220.511 161.612 220.605 161.528 220.673 161.476C220.741 161.42 220.855 161.336 221.015 161.224C221.175 161.108 221.281 161.032 221.333 160.996C221.617 160.788 221.813 160.614 221.921 160.474C222.033 160.33 222.089 160.142 222.089 159.91C222.089 159.686 222.017 159.508 221.873 159.376C221.729 159.24 221.541 159.172 221.309 159.172C221.065 159.172 220.857 159.246 220.685 159.394C220.513 159.542 220.427 159.748 220.427 160.012H219.899C219.899 159.612 220.031 159.288 220.295 159.04C220.563 158.792 220.899 158.668 221.303 158.668C221.679 158.668 221.991 158.776 222.239 158.992C222.491 159.208 222.617 159.516 222.617 159.916C222.617 160.22 222.543 160.48 222.395 160.696C222.247 160.908 221.993 161.144 221.633 161.404C221.565 161.452 221.469 161.52 221.345 161.608C221.221 161.692 221.125 161.76 221.057 161.812C220.989 161.864 220.913 161.928 220.829 162.004C220.749 162.076 220.685 162.154 220.637 162.238C220.593 162.318 220.561 162.406 220.541 162.502H222.665Z" fill="#0C0B0E"/>
<g clip-path="url(#clip2_1601_17331)">
<path fill-rule="evenodd" clip-rule="evenodd" d="M233.917 156.521C234.089 156.521 234.229 156.661 234.229 156.833V157.354H237.771V156.833C237.771 156.661 237.911 156.521 238.083 156.521C238.256 156.521 238.396 156.661 238.396 156.833V157.358C238.462 157.36 238.523 157.363 238.58 157.367C238.77 157.38 238.939 157.407 239.098 157.473C239.481 157.632 239.785 157.936 239.944 158.319C240.01 158.478 240.037 158.646 240.05 158.836C240.063 159.021 240.063 159.249 240.062 159.531V163.303C240.063 163.585 240.063 163.812 240.05 163.997C240.037 164.187 240.01 164.355 239.944 164.515C239.785 164.898 239.481 165.202 239.098 165.36C238.939 165.426 238.77 165.454 238.58 165.467C238.395 165.479 238.168 165.479 237.886 165.479H234.114C233.832 165.479 233.605 165.479 233.42 165.467C233.23 165.454 233.061 165.426 232.902 165.36C232.519 165.202 232.215 164.898 232.056 164.515C231.99 164.355 231.963 164.187 231.95 163.997C231.937 163.812 231.937 163.585 231.938 163.303V159.531C231.937 159.249 231.937 159.021 231.95 158.836C231.963 158.646 231.99 158.478 232.056 158.319C232.215 157.936 232.519 157.632 232.902 157.473C233.061 157.407 233.23 157.38 233.42 157.367C233.477 157.363 233.538 157.36 233.604 157.358V156.833C233.604 156.661 233.744 156.521 233.917 156.521ZM232.563 160.479V163.292C232.563 163.587 232.563 163.793 232.574 163.954C232.584 164.113 232.605 164.205 232.634 164.275C232.729 164.505 232.912 164.688 233.141 164.783C233.212 164.812 233.304 164.832 233.462 164.843C233.624 164.854 233.83 164.854 234.125 164.854H237.875C238.17 164.854 238.376 164.854 238.538 164.843C238.696 164.832 238.788 164.812 238.859 164.783C239.088 164.688 239.271 164.505 239.366 164.275C239.395 164.205 239.416 164.113 239.426 163.954C239.437 163.793 239.437 163.587 239.437 163.292V160.479H232.563ZM237.875 157.979C238.09 157.979 238.258 157.979 238.396 157.984V158.5C238.396 158.673 238.256 158.813 238.083 158.813C237.911 158.813 237.771 158.673 237.771 158.5V157.979H237.875ZM234.229 157.979H234.125C233.91 157.979 233.742 157.979 233.604 157.984V158.5C233.604 158.673 233.744 158.813 233.917 158.813C234.089 158.813 234.229 158.673 234.229 158.5V157.979Z" fill="#0C0B0E"/>
</g>
<path d="M59.3782 255.575C70.8727 252.936 70.1064 268.614 85.2409 270.901C100.375 273.189 104.59 257.177 111.487 252.603C118.383 248.028 121.449 227.181 132.943 228.589C144.438 229.997 150.185 244.101 159.764 245.86C169.343 247.62 171.258 259.289 180.262 267.91C189.267 276.532 197.504 277.588 208.807 275.828C220.11 274.069 223.175 256.279 228.54 255.575C233.904 254.871 238.693 263.355 243.291 265.29C247.889 267.226 249.23 275.828 259 275.828" stroke="#8E8E93" stroke-width="0.378151" stroke-linecap="round" stroke-linejoin="round"/>
<path d="M59 280.25C67.7968 277.918 75.0305 263.702 85.5267 261.312C91.121 260.039 95.6027 262.518 100.603 266.369C105.603 270.221 104.625 271.884 115.87 274.853C125.151 277.304 127.578 250.885 136.672 251.9C145.766 252.915 149.971 221.151 159.573 223.803C169.174 226.454 171.092 219.599 180.117 232.591C189.142 245.584 197.48 215.3 208.809 212.648C220.138 209.997 223.089 238.139 228.466 237.078C233.842 236.018 238.683 256.071 243.292 258.988C247.9 261.905 249.207 251.309 259 251.309" stroke="#1F2832" stroke-width="1.51261" stroke-linecap="round" stroke-linejoin="round"/>
<path d="M85.5267 261.312C75.0305 263.702 67.7968 277.918 59 280.25V286H259V251.309C249.207 251.309 247.9 261.905 243.292 258.988C238.683 256.071 233.842 236.018 228.466 237.078C223.089 238.139 220.138 209.997 208.809 212.648C197.48 215.3 189.142 245.584 180.117 232.591C171.092 219.599 169.174 226.454 159.573 223.803C149.971 221.151 145.766 252.915 136.672 251.9C127.578 250.885 125.151 277.304 115.87 274.853C104.625 271.884 105.603 270.221 100.603 266.369C95.6027 262.518 91.121 260.039 85.5267 261.312Z" fill="url(#paint2_linear_1601_17331)"/>
<line x1="149.945" y1="236.462" x2="149.945" y2="280.328" stroke="#422F8A" stroke-opacity="0.87" stroke-width="0.378151" stroke-dasharray="1.66 1.66"/>
<g filter="url(#filter0_dd_1601_17331)">
<path d="M145.957 237.597C145.957 235.509 147.649 233.815 149.737 233.815C151.825 233.815 153.518 235.509 153.518 237.597C153.518 239.685 151.825 241.378 149.737 241.378C147.649 241.378 145.957 239.685 145.957 237.597Z" fill="#1F2832"/>
<path d="M146.335 237.597C146.335 235.717 147.858 234.193 149.737 234.193C151.616 234.193 153.14 235.717 153.14 237.597C153.14 239.476 151.616 241 149.737 241C147.858 241 146.335 239.476 146.335 237.597Z" stroke="white" stroke-width="0.756303"/>
</g>
<path fill-rule="evenodd" clip-rule="evenodd" d="M122.151 196C120.063 196 118.37 197.693 118.37 199.782V224.361C118.37 226.45 120.063 228.143 122.151 228.143H145.651L148.443 233.029C149.024 234.046 150.489 234.046 151.069 233.029L153.862 228.143H176.983C179.072 228.143 180.765 226.45 180.765 224.361V199.782C180.765 197.693 179.072 196 176.983 196H122.151Z" fill="#1F2832"/>
<g clip-path="url(#clip3_1601_17331)">
<path d="M127.308 204.367V204.007H128.115V203.205H128.479V204.007H129.281V204.367H128.479V205.169H128.115V204.367H127.308ZM130.112 205.538V202.622H129.473L129.8 202.225H130.514V205.538H130.112ZM131.783 205.473C131.718 205.541 131.637 205.575 131.541 205.575C131.444 205.575 131.362 205.541 131.294 205.473C131.228 205.404 131.196 205.322 131.196 205.225C131.196 205.132 131.23 205.051 131.298 204.983C131.367 204.911 131.448 204.875 131.541 204.875C131.634 204.875 131.715 204.911 131.783 204.983C131.852 205.051 131.886 205.132 131.886 205.225C131.886 205.322 131.852 205.404 131.783 205.473ZM133.407 205.584C133.108 205.584 132.85 205.491 132.632 205.305C132.415 205.118 132.303 204.897 132.297 204.642H132.707C132.744 204.804 132.827 204.936 132.954 205.039C133.082 205.141 133.233 205.193 133.407 205.193C133.609 205.193 133.779 205.124 133.916 204.987C134.052 204.85 134.121 204.682 134.121 204.483C134.121 204.281 134.055 204.112 133.925 203.975C133.794 203.838 133.628 203.77 133.426 203.77C133.149 203.77 132.94 203.882 132.8 204.105L132.418 203.993L132.758 202.225H134.307V202.617H133.08L132.898 203.564C133.06 203.449 133.253 203.392 133.477 203.392C133.785 203.392 134.037 203.5 134.233 203.718C134.432 203.933 134.531 204.205 134.531 204.535C134.531 204.827 134.424 205.076 134.209 205.281C133.995 205.483 133.727 205.584 133.407 205.584ZM136.168 205.584C135.822 205.584 135.541 205.469 135.323 205.239C135.105 205.006 134.996 204.706 134.996 204.339V203.415C134.996 203.048 135.105 202.749 135.323 202.519C135.544 202.286 135.825 202.169 136.168 202.169C136.51 202.169 136.791 202.286 137.012 202.519C137.233 202.752 137.343 203.051 137.343 203.415V204.339C137.343 204.706 137.233 205.006 137.012 205.239C136.791 205.469 136.51 205.584 136.168 205.584ZM136.168 205.193C136.398 205.193 136.584 205.116 136.727 204.964C136.871 204.812 136.942 204.603 136.942 204.339V203.415C136.942 203.151 136.871 202.942 136.727 202.79C136.584 202.637 136.398 202.561 136.168 202.561C135.941 202.561 135.755 202.637 135.612 202.79C135.469 202.942 135.398 203.151 135.398 203.415V204.339C135.398 204.603 135.469 204.812 135.612 204.964C135.755 205.116 135.941 205.193 136.168 205.193ZM139.103 205.538H138.669L140.768 202.225H141.202L139.103 205.538ZM141.179 205.575C140.924 205.575 140.706 205.485 140.526 205.305C140.348 205.124 140.26 204.908 140.26 204.656C140.26 204.401 140.348 204.185 140.526 204.007C140.706 203.827 140.924 203.737 141.179 203.737C141.431 203.737 141.647 203.827 141.827 204.007C142.008 204.185 142.098 204.401 142.098 204.656C142.098 204.908 142.008 205.124 141.827 205.305C141.647 205.485 141.431 205.575 141.179 205.575ZM141.179 205.211C141.328 205.211 141.457 205.157 141.566 205.048C141.675 204.936 141.729 204.805 141.729 204.656C141.729 204.507 141.675 204.378 141.566 204.269C141.457 204.157 141.328 204.101 141.179 204.101C141.023 204.101 140.893 204.155 140.787 204.264C140.681 204.373 140.628 204.504 140.628 204.656C140.628 204.808 140.681 204.939 140.787 205.048C140.893 205.157 141.023 205.211 141.179 205.211ZM138.692 204.026C138.437 204.026 138.219 203.936 138.039 203.756C137.861 203.575 137.773 203.359 137.773 203.107C137.773 202.852 137.861 202.636 138.039 202.458C138.219 202.278 138.437 202.188 138.692 202.188C138.944 202.188 139.16 202.278 139.34 202.458C139.521 202.636 139.611 202.852 139.611 203.107C139.611 203.359 139.521 203.575 139.34 203.756C139.16 203.936 138.944 204.026 138.692 204.026ZM138.692 203.662C138.841 203.662 138.97 203.608 139.079 203.499C139.188 203.387 139.242 203.256 139.242 203.107C139.242 202.958 139.188 202.829 139.079 202.72C138.97 202.608 138.841 202.552 138.692 202.552C138.536 202.552 138.406 202.606 138.3 202.715C138.194 202.824 138.141 202.955 138.141 203.107C138.141 203.259 138.194 203.39 138.3 203.499C138.406 203.608 138.536 203.662 138.692 203.662Z" fill="#27AE60"/>
<path d="M128.743 214.91V214.35C128.351 214.308 128.027 214.159 127.77 213.902C127.514 213.641 127.381 213.298 127.371 212.873H128.141C128.188 213.27 128.389 213.51 128.743 213.594V212.111L128.505 212.02C127.759 211.735 127.385 211.257 127.385 210.585C127.385 210.193 127.509 209.88 127.756 209.647C128.008 209.409 128.337 209.276 128.743 209.248V208.709H129.121V209.262C129.476 209.309 129.772 209.454 130.01 209.696C130.248 209.934 130.367 210.226 130.367 210.571H129.597C129.546 210.282 129.387 210.097 129.121 210.018V211.404L129.331 211.488C129.714 211.637 130.003 211.833 130.199 212.076C130.395 212.314 130.493 212.617 130.493 212.985C130.493 213.405 130.369 213.734 130.122 213.972C129.875 214.206 129.541 214.334 129.121 214.357V214.91H128.743ZM129.723 213.006C129.723 212.689 129.522 212.442 129.121 212.265V213.615C129.298 213.592 129.443 213.527 129.555 213.419C129.667 213.307 129.723 213.17 129.723 213.006ZM128.155 210.578C128.155 210.867 128.351 211.094 128.743 211.257V209.99C128.566 210.013 128.424 210.079 128.316 210.186C128.209 210.293 128.155 210.424 128.155 210.578ZM134.379 213.538V214.294H131.09V214.014C131.09 213.837 131.116 213.669 131.167 213.51C131.223 213.347 131.281 213.212 131.342 213.104C131.403 212.997 131.503 212.878 131.643 212.748C131.783 212.612 131.89 212.517 131.965 212.461C132.039 212.4 132.17 212.302 132.357 212.167C132.548 212.031 132.669 211.945 132.721 211.908C133.015 211.693 133.227 211.504 133.357 211.341C133.488 211.177 133.553 210.982 133.553 210.753C133.553 210.524 133.483 210.342 133.343 210.207C133.203 210.067 133.01 209.997 132.763 209.997C132.506 209.997 132.294 210.074 132.126 210.228C131.958 210.377 131.871 210.583 131.867 210.844H131.09C131.09 210.373 131.249 209.988 131.566 209.689C131.888 209.391 132.289 209.241 132.77 209.241C133.213 209.241 133.584 209.372 133.882 209.633C134.181 209.894 134.33 210.261 134.33 210.732C134.33 211.105 134.244 211.42 134.071 211.677C133.903 211.929 133.623 212.195 133.231 212.475C133.171 212.521 133.059 212.601 132.896 212.713C132.732 212.824 132.611 212.911 132.532 212.971C132.457 213.032 132.375 213.116 132.287 213.223C132.198 213.326 132.137 213.431 132.105 213.538H134.379ZM138.336 213.538V214.294H135.047V214.014C135.047 213.837 135.073 213.669 135.124 213.51C135.18 213.347 135.238 213.212 135.299 213.104C135.36 212.997 135.46 212.878 135.6 212.748C135.74 212.612 135.847 212.517 135.922 212.461C135.997 212.4 136.127 212.302 136.314 212.167C136.505 212.031 136.626 211.945 136.678 211.908C136.972 211.693 137.184 211.504 137.315 211.341C137.445 211.177 137.511 210.982 137.511 210.753C137.511 210.524 137.441 210.342 137.301 210.207C137.161 210.067 136.967 209.997 136.72 209.997C136.463 209.997 136.251 210.074 136.083 210.228C135.915 210.377 135.829 210.583 135.824 210.844H135.047C135.047 210.373 135.206 209.988 135.523 209.689C135.845 209.391 136.246 209.241 136.727 209.241C137.17 209.241 137.541 209.372 137.84 209.633C138.138 209.894 138.287 210.261 138.287 210.732C138.287 211.105 138.201 211.42 138.029 211.677C137.861 211.929 137.581 212.195 137.189 212.475C137.128 212.521 137.016 212.601 136.853 212.713C136.689 212.824 136.568 212.911 136.489 212.971C136.414 213.032 136.333 213.116 136.244 213.223C136.155 213.326 136.095 213.431 136.062 213.538H138.336ZM142.168 213.832C141.832 214.187 141.4 214.364 140.873 214.364C140.346 214.364 139.914 214.187 139.578 213.832C139.242 213.473 139.074 213.013 139.074 212.454V211.152C139.074 210.592 139.242 210.135 139.578 209.78C139.914 209.421 140.346 209.241 140.873 209.241C141.4 209.241 141.832 209.421 142.168 209.78C142.508 210.135 142.679 210.592 142.679 211.152V212.454C142.679 213.013 142.508 213.473 142.168 213.832ZM140.873 213.608C141.186 213.608 141.435 213.506 141.622 213.3C141.813 213.095 141.909 212.813 141.909 212.454V211.152C141.909 210.793 141.813 210.51 141.622 210.305C141.435 210.1 141.186 209.997 140.873 209.997C140.565 209.997 140.315 210.1 140.124 210.305C139.937 210.51 139.844 210.793 139.844 211.152V212.454C139.844 212.813 139.937 213.095 140.124 213.3C140.315 213.506 140.565 213.608 140.873 213.608ZM144.416 214.119L143.667 215.323H143.191L143.674 214.294C143.576 214.252 143.494 214.182 143.429 214.084C143.364 213.982 143.331 213.867 143.331 213.741C143.331 213.573 143.389 213.431 143.506 213.314C143.623 213.193 143.765 213.132 143.933 213.132C144.101 213.132 144.243 213.193 144.36 213.314C144.476 213.431 144.535 213.573 144.535 213.741C144.535 213.877 144.495 214.003 144.416 214.119ZM146.953 214.364C146.454 214.364 146.029 214.215 145.679 213.916C145.334 213.618 145.157 213.223 145.148 212.734H145.917C145.936 212.999 146.041 213.212 146.232 213.37C146.428 213.529 146.669 213.608 146.953 213.608C147.21 213.608 147.42 213.541 147.583 213.405C147.751 213.27 147.837 213.083 147.842 212.845C147.842 212.584 147.756 212.388 147.583 212.258C147.415 212.122 147.182 212.055 146.883 212.055H146.491V211.397H146.883C147.13 211.397 147.326 211.331 147.471 211.201C147.62 211.07 147.697 210.9 147.702 210.69C147.702 210.485 147.627 210.319 147.478 210.193C147.329 210.062 147.144 209.997 146.925 209.997C146.664 209.997 146.447 210.074 146.274 210.228C146.102 210.377 146.015 210.583 146.015 210.844H145.239C145.239 210.359 145.402 209.971 145.728 209.682C146.06 209.388 146.459 209.241 146.925 209.241C147.387 209.241 147.76 209.372 148.045 209.633C148.334 209.894 148.479 210.23 148.479 210.641C148.479 210.87 148.421 211.082 148.304 211.278C148.187 211.469 148.043 211.616 147.87 211.719C148.099 211.817 148.281 211.968 148.416 212.174C148.551 212.379 148.619 212.619 148.619 212.894C148.619 213.328 148.463 213.683 148.15 213.958C147.842 214.229 147.443 214.364 146.953 214.364ZM151.642 214.294V213.048H149.074V212.426L151.726 209.325H152.412V212.335H153.077V213.048H152.412V214.294H151.642ZM150.039 212.335H151.642V210.473L150.039 212.335ZM156.92 213.538V214.294H153.63V214.014C153.63 213.837 153.656 213.669 153.707 213.51C153.763 213.347 153.821 213.212 153.882 213.104C153.943 212.997 154.043 212.878 154.183 212.748C154.323 212.612 154.43 212.517 154.505 212.461C154.58 212.4 154.71 212.302 154.897 212.167C155.088 212.031 155.21 211.945 155.261 211.908C155.555 211.693 155.767 211.504 155.898 211.341C156.028 211.177 156.094 210.982 156.094 210.753C156.094 210.524 156.024 210.342 155.884 210.207C155.744 210.067 155.55 209.997 155.303 209.997C155.046 209.997 154.834 210.074 154.666 210.228C154.498 210.377 154.412 210.583 154.407 210.844H153.63C153.63 210.373 153.789 209.988 154.106 209.689C154.428 209.391 154.829 209.241 155.31 209.241C155.753 209.241 156.124 209.372 156.423 209.633C156.721 209.894 156.871 210.261 156.871 210.732C156.871 211.105 156.784 211.42 156.612 211.677C156.444 211.929 156.164 212.195 155.772 212.475C155.711 212.521 155.599 212.601 155.436 212.713C155.273 212.824 155.151 212.911 155.072 212.971C154.997 213.032 154.916 213.116 154.827 213.223C154.738 213.326 154.678 213.431 154.645 213.538H156.92ZM158.686 214.119L157.937 215.323H157.461L157.944 214.294C157.846 214.252 157.765 214.182 157.699 214.084C157.634 213.982 157.601 213.867 157.601 213.741C157.601 213.573 157.66 213.431 157.776 213.314C157.893 213.193 158.035 213.132 158.203 213.132C158.371 213.132 158.514 213.193 158.63 213.314C158.747 213.431 158.805 213.573 158.805 213.741C158.805 213.877 158.765 214.003 158.686 214.119ZM159.88 214.294V210.088H158.879L159.467 209.325H160.65V214.294H159.88ZM164.875 213.538V214.294H161.586V214.014C161.586 213.837 161.611 213.669 161.663 213.51C161.719 213.347 161.777 213.212 161.838 213.104C161.898 212.997 161.999 212.878 162.138 212.748C162.278 212.612 162.386 212.517 162.46 212.461C162.535 212.4 162.666 212.302 162.852 212.167C163.044 212.031 163.165 211.945 163.216 211.908C163.51 211.693 163.722 211.504 163.853 211.341C163.984 211.177 164.049 210.982 164.049 210.753C164.049 210.524 163.979 210.342 163.839 210.207C163.699 210.067 163.506 209.997 163.258 209.997C163.002 209.997 162.789 210.074 162.621 210.228C162.453 210.377 162.367 210.583 162.362 210.844H161.586C161.586 210.373 161.744 209.988 162.061 209.689C162.383 209.391 162.785 209.241 163.265 209.241C163.708 209.241 164.079 209.372 164.378 209.633C164.677 209.894 164.826 210.261 164.826 210.732C164.826 211.105 164.74 211.42 164.567 211.677C164.399 211.929 164.119 212.195 163.727 212.475C163.666 212.521 163.555 212.601 163.391 212.713C163.228 212.824 163.107 212.911 163.027 212.971C162.953 213.032 162.871 213.116 162.782 213.223C162.694 213.326 162.633 213.431 162.6 213.538H164.875ZM167.306 214.364C166.807 214.364 166.383 214.215 166.033 213.916C165.687 213.618 165.51 213.223 165.501 212.734H166.271C166.289 212.999 166.394 213.212 166.586 213.37C166.782 213.529 167.022 213.608 167.306 213.608C167.563 213.608 167.773 213.541 167.936 213.405C168.104 213.27 168.191 213.083 168.195 212.845C168.195 212.584 168.109 212.388 167.936 212.258C167.768 212.122 167.535 212.055 167.236 212.055H166.845V211.397H167.236C167.484 211.397 167.68 211.331 167.824 211.201C167.974 211.07 168.051 210.9 168.055 210.69C168.055 210.485 167.981 210.319 167.831 210.193C167.682 210.062 167.498 209.997 167.278 209.997C167.017 209.997 166.8 210.074 166.628 210.228C166.455 210.377 166.369 210.583 166.369 210.844H165.592C165.592 210.359 165.755 209.971 166.082 209.682C166.413 209.388 166.812 209.241 167.278 209.241C167.74 209.241 168.114 209.372 168.398 209.633C168.687 209.894 168.832 210.23 168.832 210.641C168.832 210.87 168.774 211.082 168.657 211.278C168.54 211.469 168.396 211.616 168.223 211.719C168.452 211.817 168.634 211.968 168.769 212.174C168.904 212.379 168.972 212.619 168.972 212.894C168.972 213.328 168.816 213.683 168.503 213.958C168.195 214.229 167.796 214.364 167.306 214.364Z" fill="white"/>
<path d="M129.045 221.696C129.409 221.696 129.712 221.57 129.955 221.318C130.2 221.066 130.323 220.758 130.323 220.394C130.323 220.03 130.2 219.722 129.955 219.47C129.712 219.218 129.409 219.092 129.045 219.092C128.684 219.092 128.381 219.218 128.135 219.47C127.892 219.722 127.771 220.03 127.771 220.394C127.771 220.758 127.892 221.066 128.135 221.318C128.381 221.57 128.684 221.696 129.045 221.696ZM129.045 222.106C128.569 222.106 128.164 221.942 127.832 221.612C127.499 221.279 127.332 220.873 127.332 220.394C127.332 219.915 127.499 219.511 127.832 219.181C128.164 218.848 128.569 218.682 129.045 218.682C129.524 218.682 129.928 218.848 130.258 219.181C130.591 219.511 130.757 219.915 130.757 220.394C130.757 220.873 130.591 221.279 130.258 221.612C129.928 221.942 129.524 222.106 129.045 222.106ZM132.386 222.097C132.035 222.097 131.744 221.98 131.514 221.747C131.284 221.511 131.169 221.223 131.169 220.884C131.169 220.545 131.284 220.259 131.514 220.025C131.744 219.789 132.035 219.671 132.386 219.671C132.676 219.671 132.926 219.752 133.137 219.914C133.349 220.072 133.49 220.281 133.562 220.539H133.133C133.077 220.386 132.983 220.265 132.853 220.175C132.722 220.085 132.567 220.039 132.386 220.039C132.147 220.039 131.951 220.12 131.798 220.282C131.649 220.444 131.574 220.644 131.574 220.884C131.574 221.123 131.649 221.324 131.798 221.486C131.951 221.648 132.147 221.728 132.386 221.728C132.567 221.728 132.722 221.683 132.853 221.593C132.983 221.503 133.077 221.382 133.133 221.229H133.562C133.494 221.487 133.354 221.697 133.142 221.859C132.931 222.018 132.679 222.097 132.386 222.097ZM134.976 222.074C134.761 222.074 134.589 222.013 134.458 221.892C134.327 221.77 134.262 221.593 134.262 221.36V220.086H133.767V219.718H134.262V219.069H134.663V219.718H135.335V220.086H134.663V221.309C134.663 221.455 134.694 221.557 134.756 221.617C134.819 221.676 134.917 221.705 135.05 221.705C135.169 221.705 135.263 221.69 135.335 221.658V222.018C135.223 222.055 135.103 222.074 134.976 222.074ZM137.272 222.05V219.134H136.632L136.959 218.738H137.673V222.05H137.272ZM139.391 222.097C139.092 222.097 138.834 222.004 138.616 221.817C138.399 221.631 138.287 221.41 138.28 221.155H138.691C138.728 221.316 138.811 221.449 138.938 221.551C139.066 221.654 139.217 221.705 139.391 221.705C139.593 221.705 139.762 221.637 139.899 221.5C140.036 221.363 140.105 221.195 140.105 220.996C140.105 220.794 140.039 220.624 139.909 220.487C139.778 220.351 139.612 220.282 139.409 220.282C139.133 220.282 138.924 220.394 138.784 220.618L138.402 220.506L138.742 218.738H140.291V219.13H139.064L138.882 220.077C139.044 219.962 139.237 219.904 139.461 219.904C139.769 219.904 140.021 220.013 140.217 220.231C140.416 220.445 140.515 220.718 140.515 221.047C140.515 221.34 140.408 221.589 140.193 221.794C139.979 221.996 139.711 222.097 139.391 222.097ZM141.983 222.074C141.769 222.074 141.596 222.013 141.466 221.892C141.335 221.77 141.27 221.593 141.27 221.36V220.086H140.775V219.718H141.27V219.069H141.671V219.718H142.343V220.086H141.671V221.309C141.671 221.455 141.702 221.557 141.764 221.617C141.826 221.676 141.924 221.705 142.058 221.705C142.176 221.705 142.271 221.69 142.343 221.658V222.018C142.231 222.055 142.111 222.074 141.983 222.074ZM143.257 222.05H142.855V218.551H143.257V220.077C143.415 219.806 143.662 219.671 143.998 219.671C144.263 219.671 144.476 219.756 144.638 219.928C144.799 220.099 144.88 220.327 144.88 220.613V222.05H144.484V220.674C144.484 220.478 144.434 220.324 144.334 220.212C144.235 220.097 144.101 220.039 143.933 220.039C143.74 220.039 143.578 220.116 143.448 220.268C143.32 220.421 143.257 220.629 143.257 220.893V222.05ZM146.102 221.948L145.621 222.718H145.355L145.668 222.05C145.541 221.988 145.477 221.884 145.477 221.738C145.477 221.644 145.511 221.564 145.579 221.495C145.648 221.424 145.729 221.388 145.822 221.388C145.915 221.388 145.996 221.424 146.065 221.495C146.133 221.564 146.167 221.644 146.167 221.738C146.167 221.806 146.146 221.876 146.102 221.948ZM149.919 221.663V222.05H147.773V221.892C147.773 221.777 147.79 221.668 147.824 221.565C147.861 221.459 147.902 221.371 147.945 221.299C147.989 221.228 148.057 221.148 148.151 221.061C148.244 220.971 148.317 220.906 148.37 220.865C148.423 220.822 148.511 220.756 148.636 220.669C148.76 220.579 148.843 220.52 148.883 220.492C149.104 220.33 149.256 220.195 149.34 220.086C149.427 219.974 149.471 219.828 149.471 219.648C149.471 219.473 149.415 219.335 149.303 219.232C149.191 219.127 149.045 219.074 148.864 219.074C148.675 219.074 148.513 219.131 148.379 219.246C148.245 219.361 148.179 219.522 148.179 219.727H147.768C147.768 219.416 147.871 219.164 148.076 218.971C148.284 218.778 148.546 218.682 148.86 218.682C149.152 218.682 149.395 218.766 149.588 218.934C149.784 219.102 149.882 219.341 149.882 219.652C149.882 219.889 149.824 220.091 149.709 220.259C149.594 220.424 149.396 220.607 149.116 220.809C149.063 220.847 148.989 220.9 148.892 220.968C148.796 221.033 148.721 221.086 148.668 221.127C148.616 221.167 148.556 221.217 148.491 221.276C148.429 221.332 148.379 221.393 148.342 221.458C148.308 221.52 148.283 221.589 148.267 221.663H149.919ZM151.597 222.097C151.251 222.097 150.97 221.982 150.752 221.752C150.534 221.519 150.426 221.218 150.426 220.851V219.928C150.426 219.56 150.534 219.262 150.752 219.032C150.973 218.798 151.255 218.682 151.597 218.682C151.939 218.682 152.22 218.798 152.441 219.032C152.662 219.265 152.772 219.564 152.772 219.928V220.851C152.772 221.218 152.662 221.519 152.441 221.752C152.22 221.982 151.939 222.097 151.597 222.097ZM151.597 221.705C151.827 221.705 152.014 221.629 152.157 221.477C152.3 221.324 152.371 221.116 152.371 220.851V219.928C152.371 219.663 152.3 219.455 152.157 219.302C152.014 219.15 151.827 219.074 151.597 219.074C151.37 219.074 151.185 219.15 151.041 219.302C150.898 219.455 150.827 219.663 150.827 219.928V220.851C150.827 221.116 150.898 221.324 151.041 221.477C151.185 221.629 151.37 221.705 151.597 221.705ZM155.427 221.663V222.05H153.281V221.892C153.281 221.777 153.298 221.668 153.333 221.565C153.37 221.459 153.41 221.371 153.454 221.299C153.497 221.228 153.566 221.148 153.659 221.061C153.752 220.971 153.826 220.906 153.878 220.865C153.931 220.822 154.02 220.756 154.144 220.669C154.269 220.579 154.351 220.52 154.392 220.492C154.613 220.33 154.765 220.195 154.849 220.086C154.936 219.974 154.98 219.828 154.98 219.648C154.98 219.473 154.924 219.335 154.812 219.232C154.7 219.127 154.553 219.074 154.373 219.074C154.183 219.074 154.022 219.131 153.888 219.246C153.754 219.361 153.687 219.522 153.687 219.727H153.277C153.277 219.416 153.379 219.164 153.585 218.971C153.793 218.778 154.054 218.682 154.368 218.682C154.661 218.682 154.903 218.766 155.096 218.934C155.292 219.102 155.39 219.341 155.39 219.652C155.39 219.889 155.333 220.091 155.218 220.259C155.102 220.424 154.905 220.607 154.625 220.809C154.572 220.847 154.497 220.9 154.401 220.968C154.305 221.033 154.23 221.086 154.177 221.127C154.124 221.167 154.065 221.217 154 221.276C153.938 221.332 153.888 221.393 153.85 221.458C153.816 221.52 153.791 221.589 153.776 221.663H155.427ZM158.029 221.663V222.05H155.883V221.892C155.883 221.777 155.9 221.668 155.934 221.565C155.972 221.459 156.012 221.371 156.056 221.299C156.099 221.228 156.168 221.148 156.261 221.061C156.354 220.971 156.427 220.906 156.48 220.865C156.533 220.822 156.622 220.756 156.746 220.669C156.87 220.579 156.953 220.52 156.993 220.492C157.214 220.33 157.367 220.195 157.451 220.086C157.538 219.974 157.581 219.828 157.581 219.648C157.581 219.473 157.525 219.335 157.413 219.232C157.301 219.127 157.155 219.074 156.975 219.074C156.785 219.074 156.623 219.131 156.489 219.246C156.356 219.361 156.289 219.522 156.289 219.727H155.878C155.878 219.416 155.981 219.164 156.186 218.971C156.395 218.778 156.656 218.682 156.97 218.682C157.262 218.682 157.505 218.766 157.698 218.934C157.894 219.102 157.992 219.341 157.992 219.652C157.992 219.889 157.934 220.091 157.819 220.259C157.704 220.424 157.507 220.607 157.227 220.809C157.174 220.847 157.099 220.9 157.003 220.968C156.906 221.033 156.832 221.086 156.779 221.127C156.726 221.167 156.667 221.217 156.601 221.276C156.539 221.332 156.489 221.393 156.452 221.458C156.418 221.52 156.393 221.589 156.377 221.663H158.029Z" fill="#8E8E93"/>
</g>
<rect x="167" y="298" width="16" height="16" rx="2" fill="#8E8E93"/>
<path d="M171.87 308V304.25H171.048L171.468 303.74H172.386V308H171.87ZM176.833 308L175.789 305.108L174.751 308H174.253L173.089 303.74H173.671L174.559 307.064L175.789 303.668L177.019 307.064L177.913 303.74H178.495L177.331 308H176.833Z" fill="#0C0B0E"/>
<path d="M193.87 308V304.25H193.048L193.468 303.74H194.386V308H193.87ZM195.515 303.74H196.025L197.603 305.864L199.193 303.74H199.697V308H199.145V304.688L197.609 306.752L196.073 304.688V308H195.515V303.74Z" fill="#8E8E93"/>
<path d="M215.87 308V304.25H215.048L215.468 303.74H216.386V308H215.87ZM218.685 308V306.194L217.029 303.74H217.695L218.961 305.636L220.233 303.74H220.899L219.237 306.2V308H218.685Z" fill="#8E8E93"/>
<path d="M235.036 308L236.92 303.74H237.382L239.272 308H238.69L238.138 306.758H236.152L235.612 308H235.036ZM237.142 304.496L236.374 306.254H237.916L237.142 304.496ZM239.793 308V303.5H240.309V308H239.793ZM241.287 308V303.5H241.803V308H241.287Z" fill="#8E8E93"/>
<defs>
<filter id="filter0_dd_1601_17331" x="143.94" y="232.807" width="11.5951" height="11.5966" filterUnits="userSpaceOnUse" color-interpolation-filters="sRGB">
<feFlood flood-opacity="0" result="BackgroundImageFix"/>
<feColorMatrix in="SourceAlpha" type="matrix" values="0 0 0 0 0 0 0 0 0 0 0 0 0 0 0 0 0 0 127 0" result="hardAlpha"/>
<feOffset dy="1.0084"/>
<feGaussianBlur stdDeviation="1.0084"/>
<feColorMatrix type="matrix" values="0 0 0 0 0.196487 0 0 0 0 0.196487 0 0 0 0 0.279476 0 0 0 0.06 0"/>
<feBlend mode="multiply" in2="BackgroundImageFix" result="effect1_dropShadow_1601_17331"/>
<feColorMatrix in="SourceAlpha" type="matrix" values="0 0 0 0 0 0 0 0 0 0 0 0 0 0 0 0 0 0 127 0" result="hardAlpha"/>
<feOffset dy="1.0084"/>
<feGaussianBlur stdDeviation="0.504202"/>
<feColorMatrix type="matrix" values="0 0 0 0 0.196487 0 0 0 0 0.196487 0 0 0 0 0.279476 0 0 0 0.06 0"/>
<feBlend mode="multiply" in2="effect1_dropShadow_1601_17331" result="effect2_dropShadow_1601_17331"/>
<feBlend mode="normal" in="SourceGraphic" in2="effect2_dropShadow_1601_17331" result="shape"/>
</filter>
<linearGradient id="paint0_linear_1601_17331" x1="317" y1="323.8" x2="148.369" y2="-42.2295" gradientUnits="userSpaceOnUse">
<stop stop-color="#26D0CE"/>
<stop offset="1" stop-color="#1A2980"/>
</linearGradient>
<linearGradient id="paint1_linear_1601_17331" x1="91.5804" y1="84" x2="91.5305" y2="98.9834" gradientUnits="userSpaceOnUse">
<stop stop-color="#27AE60"/>
<stop offset="1" stop-color="#3CB054" stop-opacity="0"/>
</linearGradient>
<linearGradient id="paint2_linear_1601_17331" x1="159" y1="212.472" x2="159" y2="316.757" gradientUnits="userSpaceOnUse">
<stop stop-color="#7459D9" stop-opacity="0.1"/>
<stop offset="0.998978" stop-color="white" stop-opacity="0"/>
</linearGradient>
<clipPath id="clip0_1601_17331">
<rect width="24" height="24" fill="white" transform="translate(89 18)"/>
</clipPath>
<clipPath id="clip1_1601_17331">
<rect width="24" height="24" fill="white" transform="translate(205 18)"/>
</clipPath>
<clipPath id="clip2_1601_17331">
<rect width="10" height="10" fill="white" transform="translate(231 156)"/>
</clipPath>
<clipPath id="clip3_1601_17331">
<rect width="43" height="22.5126" fill="white" transform="translate(126.689 200.538)"/>
</clipPath>
</defs>
</svg>
