<svg width="1440" height="1200" viewBox="0 0 1440 1200" fill="none" xmlns="http://www.w3.org/2000/svg">
<g opacity="0.1" clip-path="url(#clip0_1091_17861)">
<path fill-rule="evenodd" clip-rule="evenodd" d="M473.837 374.091C473.729 345.849 430.655 314.089 412.255 297.716C375.874 265.33 338.036 235.424 300.549 205.04C263.061 174.656 225.473 144.355 189.726 110.998C166.516 89.3442 139.244 64.9564 123.502 34.0371C89.9689 -31.8537 195.697 -22.0688 223.084 -23.5101C292.756 -27.1918 372.669 -25.5116 437.975 -59.8242C476.96 -80.308 492.506 -114.662 484.133 -164.731C481.434 -181.014 473.445 -199.752 480.213 -215.615C487.439 -232.557 504.064 -242.333 517.862 -248.89C568.189 -272.775 626.053 -275.542 679.302 -278.54C736.72 -281.835 794.679 -280.871 851.693 -281.127C875.868 -281.234 901.116 -291.834 924.137 -300.449C954.317 -311.741 984.14 -324.425 1014.07 -336.689C1079.92 -363.605 1147.77 -391.955 1217.43 -398.791C1261.06 -403.074 1308.74 -397.284 1342.63 -360.031C1359.65 -341.326 1368.55 -313.52 1378.39 -288.819C1390.3 -258.979 1401.74 -228.851 1414.41 -199.48C1455.26 -104.885 1513.56 -12.4488 1608.21 -7.80347C1622.52 -7.10338 1636.59 -9.38482 1650.84 -9.81311C1659.91 -10.0767 1667.99 -7.39982 1671.36 4.18872C1679.84 33.2548 1653.18 79.1394 1642.25 102.201C1618.32 152.682 1591.33 200.897 1566.05 250.365C1549.32 283.08 1520.37 327.786 1520.07 367.535C1519.8 402.951 1558.39 428.55 1579.4 445.994C1599.09 462.327 1634.76 485.183 1636.92 518.408C1637.97 534.519 1629.27 547.87 1620.18 558.231C1604.25 576.351 1585.89 589.134 1571.56 609.807C1548.06 643.724 1528.43 690.391 1531.62 736.095C1533.83 767.764 1548.64 788.503 1567.47 808.328C1575.38 816.663 1581.81 822.56 1582.22 836.092C1582.9 857.581 1576 880.322 1570.32 900.245C1550 971.547 1521.13 1040.49 1489.03 1104.87C1472.98 1137.04 1455.65 1169.11 1434.37 1196.56C1420.44 1214.58 1401.65 1236.02 1380.4 1236C1355.79 1236 1329.75 1225.16 1305.83 1217.06C1261.16 1201.91 1217.03 1184.4 1173.07 1166.44C1071.41 1124.88 970.708 1079.95 870.963 1031.66C800.704 997.582 728.954 963.459 662.9 918.159C650.017 909.264 637.858 898.891 626.586 887.182C614.542 874.886 599.597 869.384 584.443 865.282C490.387 839.823 387.344 859.368 292.897 871.624C268.924 874.729 244.952 877.851 220.911 880.025C200.245 881.895 175.503 887.257 155.417 879.201C115.838 863.347 150.437 804.91 165.065 781.098C216.566 697.261 283.013 626.329 344.601 553.915C373.884 519.43 403.389 485.035 431.08 448.597C445.498 429.654 473.931 398.85 473.837 374.091Z" stroke="#1F2832"/>
<path fill-rule="evenodd" clip-rule="evenodd" d="M491.584 369.33C475.799 339.445 448.103 317.357 425.113 296.57C392.029 266.644 357.905 238.381 324.295 209.303C292.514 181.806 260.666 153.996 231.235 122.769C213.288 103.727 190.771 80.955 182.271 52.7909C163.831 -8.25462 263.029 1.00717 287.518 -0.589966C348.399 -4.54167 417.423 -5.44729 473.746 -37.5878C508.916 -57.6591 523.365 -90.9439 515.864 -137.154C513.271 -153.142 508.599 -166.792 514.514 -182.697C521.353 -201.106 537.085 -212.582 551.507 -220.683C596.683 -246.065 650.083 -251.457 699.054 -255.944C749.645 -260.579 802.357 -263.847 851.321 -260.455C870.901 -259.105 893.439 -266.77 912.816 -272.648C942.632 -281.704 972.145 -292.151 1001.81 -301.866C1062.11 -321.624 1123.97 -340.658 1186.69 -342.823C1231.97 -344.388 1279.19 -335.908 1316.87 -303.134C1355.05 -269.898 1371.99 -218.378 1393.16 -169.402C1429.73 -84.7282 1479.12 18.2218 1563.72 36.1115C1576.55 38.8282 1588.88 37.3546 1601.69 38.0215C1608.28 38.359 1615.78 39.4292 1619.12 47.3573C1627.8 67.9391 1604.03 105.571 1596.03 121.336C1573.92 164.904 1549.07 206.339 1525.9 249.067C1507.5 282.994 1484.18 320.691 1477.07 360.908C1468.43 409.712 1524.85 444.437 1544.7 478.8C1579.1 538.389 1513.92 572.34 1481.79 600.752C1444.89 633.37 1414.44 692.875 1447.51 743.342C1460.17 762.639 1475.74 774.141 1481.39 799.324C1490.22 838.71 1483.54 883.718 1476.37 922.65C1465.57 981.177 1448.47 1039.07 1425.23 1091.96C1408.58 1129.83 1380.96 1189.22 1340.51 1184.76C1313.28 1181.79 1285.6 1170.93 1259.08 1161.33C1219.38 1146.97 1180.18 1130.59 1141.19 1113.58C1051.18 1074.43 962.165 1031.26 874.898 983.77C815.354 951.358 649.26 818.902 636.762 814.176C599.499 800.098 557.131 802.576 518.713 804.758C467.609 807.656 416.761 815.164 365.953 822.121C341.769 825.414 317.462 829.44 293.149 831.061C275.844 832.214 253.117 833.202 237.959 820.927C208.373 796.978 241.335 742.181 254.967 718.998C296.727 647.925 349.553 586.377 399.085 523.446C423.391 492.549 448.069 461.701 470.134 428.326C479.033 414.849 501.341 387.788 491.584 369.33Z" stroke="#1F2832"/>
<path fill-rule="evenodd" clip-rule="evenodd" d="M513.423 354.003C470.313 294.201 410.811 249.723 359.458 199.778C333.683 174.703 307.746 148.943 285.516 119.075C273.952 103.544 259.512 83.9033 257.284 62.2534C251.33 4.33658 340.737 12.1681 367.498 9.96936C419.236 5.70362 477.684 2.46732 524.623 -27.0881C553.3 -45.1558 567.423 -74.8101 562.063 -113.786C559.687 -131.08 555.987 -145.771 562.063 -162.752C568.22 -179.955 581.046 -192.093 594.035 -201.193C631.36 -227.364 677.745 -235.73 719.769 -241.964C769.067 -249.225 818.736 -252.06 868.375 -250.446C911.85 -249.055 955.116 -264.709 997.565 -275.028C1053.8 -288.69 1111.05 -300.622 1168.6 -298.819C1214.04 -297.386 1259.85 -286.129 1298.7 -256.211C1338.18 -225.741 1361.91 -180.136 1383.31 -130.923C1415.66 -56.5284 1455.98 43.1647 1526.95 71.4191C1537.27 75.5366 1546.89 75.9895 1557.54 76.7059C1562.71 77.0518 1569.39 77.1589 1571.95 83.7386C1578.12 99.5828 1555.31 130.299 1548.94 141.005C1528.62 175.18 1506.6 207.816 1485.77 241.538C1466.33 273.02 1445.15 305.829 1433.07 342.721C1413.85 401.478 1475.3 435.835 1473.58 491.825C1472.51 526.585 1445.23 551.512 1423.62 568.756C1397.02 589.961 1358.73 603.903 1345.41 642.599C1335.5 671.422 1351.06 688.197 1363.04 710.069C1383.35 747.126 1384.73 797.36 1382.62 840.256C1379.77 898.222 1368.64 957.045 1349.69 1010.33C1341.1 1034.48 1330.58 1059.6 1315.1 1078.36C1300.59 1095.95 1286.86 1100.45 1267.47 1096.85C1208.12 1085.82 1148.19 1055.06 1091.27 1027.59C1019.76 993.065 949.236 954.953 880.816 912.074C834.161 882.831 786.454 851.892 745.503 811.491C734.83 800.959 723.9 789.512 716.096 775.62C710.196 765.178 707.692 756.556 697.748 750.593C668.274 732.929 627.276 737.549 595.696 739.386C545.199 742.309 494.946 750.091 444.761 757.099C415.476 761.217 360.308 774.17 336.923 743.1C316.738 716.27 341.095 670.524 353.537 646.89C385.009 587.12 425.494 534.663 463.056 480.65C480.27 455.895 498.16 430.951 512.377 403.43C516.009 396.414 521.828 387.116 522.827 378.593C523.948 368.826 518.716 361.374 513.423 354.003Z" stroke="#1F2832"/>
<path fill-rule="evenodd" clip-rule="evenodd" d="M517.13 367.925C477.294 315.049 429.302 271.608 386.536 222.127C367.36 199.942 347.996 176.668 333.385 149.603C325.526 135.049 317.181 116.729 319.348 98.6389C325.567 46.7184 399.101 51.4078 428.809 48.3667C472.952 43.8999 523.665 39.4001 562.698 11.4042C588.267 -6.93283 597.854 -34.0139 593.081 -68.9408C587.956 -106.406 599.414 -133.602 625.49 -154.502C658.182 -180.685 699.449 -191.358 737.408 -198.94C783.141 -208.031 829.453 -212.061 875.78 -210.98C920.835 -209.926 964.485 -219.139 1009.24 -225.131C1068.59 -233.067 1129.83 -236.982 1188.5 -220.714C1239.59 -206.547 1285.73 -175.328 1320.32 -127.051C1356.45 -76.6629 1374.33 -13.1797 1403.67 42.5648C1421.97 77.3351 1447.48 123.33 1481.68 136.846C1493.08 141.354 1513.86 135.272 1504.75 157.449C1499.55 170.133 1489.8 181.258 1482.11 191.626C1469.67 208.381 1456.82 224.674 1444.18 241.198C1417.22 276.421 1388.36 312.395 1368.16 354.104C1342.7 406.618 1380.54 447.034 1375.93 500.281C1373.45 528.936 1357.12 551.806 1339.85 569.772C1328.68 581.409 1316.45 591.488 1303.97 600.892C1290.93 610.715 1275.5 618.199 1264.13 630.898C1247.93 648.972 1254.96 670.366 1258 693.731C1263.35 734.791 1264.52 776.5 1261.5 817.911C1257.8 868.67 1249.12 920.879 1230.85 967.006C1223.74 984.964 1214.73 1004 1201.35 1016.04C1187.98 1028.08 1174.14 1027.26 1158.82 1023.63C1113.36 1012.92 1067.99 987.988 1024.87 964.36C970.893 934.782 917.979 901.726 867.448 864.121C832.568 838.16 797.573 810.115 768.392 774.916C759.905 764.672 751.83 753.703 745.301 741.456C740.818 733.058 738.414 722.221 731.919 715.908C711.596 696.203 670.794 702.087 646.96 703.233C599.394 705.516 552.577 716.37 505.071 719.007C479.144 720.449 438.538 724.075 419.498 697.134C401.592 671.809 417.81 631.92 428.512 607.518C449.544 559.537 477.8 516.789 503.126 472.187C513.538 453.833 524.948 434.631 531.693 413.673C537.689 394.998 527.338 381.482 517.13 367.925Z" stroke="#1F2832"/>
<path fill-rule="evenodd" clip-rule="evenodd" d="M526.927 368.79C495.219 322.26 456.994 280.956 425.057 233.669C406.363 205.977 374.169 159.422 388.626 120.381C404.487 77.4807 459.774 76.3122 491.732 72.8558C529.768 68.7411 574.435 63.1203 606.987 36.3331C617.282 27.8649 626.052 16.6562 629.769 1.89246C633.75 -13.9083 629.398 -27.7339 628.832 -43.551C627.644 -76.7325 643.876 -103.372 665.357 -121.666C695.715 -147.531 733.677 -159.76 769.534 -168.286C810.158 -177.902 851.457 -182.643 892.838 -182.441C932.385 -182.276 971.514 -183.346 1011.1 -184.581C1062.87 -186.227 1115.37 -183.568 1165.59 -166.788C1215.07 -150.247 1260.04 -119.246 1295.37 -73.6465C1329.84 -29.1494 1353.1 25.2396 1373.46 80.6409C1385.02 112.086 1404.54 159.077 1432.11 174.96C1444.37 182.029 1456.4 181.543 1443.36 199.928C1426.95 223.078 1404.83 241.652 1385.82 261.452C1358.39 290.025 1330.28 319.158 1307.26 353.129C1292.56 374.822 1286.01 395.873 1287.02 423.961C1287.81 445.358 1291.35 466.532 1289.56 488.011C1285.36 538.426 1252.82 572.998 1224.05 605.192C1205.55 625.897 1188.65 641.69 1179.12 671.143C1167.85 705.954 1163.13 743.827 1155.6 779.971C1147.33 819.662 1137.77 860.949 1119.72 895.909C1103.65 927.033 1084.1 940.99 1054.85 932.604C1009.23 919.536 964.255 887.342 923.75 857.559C882.523 827.258 842.004 793.187 807.84 751.538C789.396 729.046 776.807 702.638 760.427 678.476C739.823 648.142 693.212 659.63 665.512 662.198C619.528 666.461 474.839 698.358 488.19 595.045C493.762 551.922 515.708 512.124 531.758 474.071C538.41 458.278 548.037 439.325 549.541 421.229C551.181 401.519 536.46 382.797 526.927 368.79Z" stroke="#1F2832"/>
<path fill-rule="evenodd" clip-rule="evenodd" d="M543.669 372.741C519.438 330.576 490.44 290.74 469.648 245.199C456.161 215.706 442.916 176.298 460.315 145.092C479.953 109.876 523.255 101.667 555.073 97.1795C587.854 92.5603 626.989 88.674 653.782 61.9717C662.306 53.4661 669.333 41.9964 670.642 28.2623C671.903 15.0882 668.342 1.91413 669.522 -11.4988C672.166 -41.6181 687.13 -66.4349 706.424 -84.4341C763.498 -137.682 848.443 -149.523 917.304 -150.914C951.772 -151.606 987.245 -147.975 1021.93 -145.373C1066.95 -141.997 1112.03 -134.751 1154.96 -117.287C1246.24 -80.169 1307.42 2.15289 1350.15 104.59C1363.6 136.834 1373.89 171.72 1394.96 197.632C1405.83 211.012 1403.45 220.621 1392.35 232.824C1374.98 251.893 1353.8 266.467 1334.53 282.383C1307.11 305.018 1279.11 327.99 1254.87 355.104C1238.16 373.795 1226.29 391.802 1222.69 419.83C1220.12 439.814 1220.72 460.176 1219.18 480.283C1216.24 518.48 1206.17 556.388 1188.35 588.072C1174.18 613.185 1157.32 636.01 1139.9 657.772C1117.25 686.104 1098.09 714.89 1080.88 748.517C1058.08 793.029 1026.03 875.136 972.307 853.407C913.056 829.43 857.52 768.508 819.505 709.48C806.739 689.661 796.259 665.355 779.042 650.74C753.267 628.896 727.115 629.661 696.457 629.752C650.558 629.875 550.682 642.037 549.603 558.118C549.178 524.869 560.967 493.433 566.611 461.452C572.977 425.635 560.218 401.477 543.669 372.741Z" stroke="#1F2832"/>
<path fill-rule="evenodd" clip-rule="evenodd" d="M561.716 376.501C537.749 321.545 484.004 231.242 524.881 170.132C546.473 137.837 584.665 125.701 616.702 118.468C642.484 112.618 673.577 110.421 693.057 85.6219C707.376 67.3885 701.02 40.853 706.505 18.0283C713.314 -10.268 728.941 -33.4218 748.145 -50.8242C801.808 -99.4604 876.423 -114.386 940.977 -117.562C1008.02 -120.853 1081.89 -105.459 1144.98 -75.8458C1223.65 -38.91 1282.58 31.0286 1323.79 119.596C1331.4 135.945 1338.31 152.722 1345.61 169.268C1350.51 180.368 1357.79 191.106 1361.65 202.781C1368.09 222.249 1360.51 238.162 1348.35 250.85C1330.86 269.116 1309.37 282.116 1289.43 295.824C1262.17 314.584 1234.29 333.007 1208.93 355.017C1191.88 369.828 1174.04 385.782 1167.94 411.478C1163.78 429.004 1162.92 447.567 1163.07 465.718C1163.39 504.636 1161.72 536.109 1146.83 571.753C1122.34 630.271 1084.67 682.889 1044.88 726.671C1013.65 761.031 964.242 814.407 918.743 791.434C877.921 770.864 854.041 721.627 827.145 681.82C814.068 662.467 799.379 644.793 782.119 631.028C760.358 613.675 739.872 606.393 714.09 603.554C670.696 598.774 605.265 597.531 591.851 534.011C586.898 510.569 589.725 486.288 587.127 462.542C583.733 431.143 573.808 404.221 561.716 376.501Z" stroke="#1F2832"/>
<path fill-rule="evenodd" clip-rule="evenodd" d="M586.638 378.536C569.571 318.404 547.15 242.621 588.371 189.178C608.338 163.289 636.423 148.816 663.604 138C683.072 130.249 713.983 127.968 725.918 104.137C734.684 86.6002 735.898 62.4075 743.828 43.6184C754.725 17.7865 771.232 -3.49033 790.599 -20.146C841.051 -63.5479 906.763 -80.3189 966.69 -85.1212C1096.9 -95.5413 1229.39 -12.5512 1299.07 123.989C1319.84 164.689 1346.66 208.009 1313.09 249.59C1276.43 294.952 1221.21 316.205 1177.46 348.437C1160.74 360.743 1139.44 375.537 1130.12 397.819C1124.51 411.213 1124.12 428.017 1123.87 442.761C1123.19 480.315 1120.64 514.087 1108.26 549.128C1089.15 603.28 1058.68 653.239 1024.15 694.161C994.033 729.845 951.086 771.781 907.35 746.056C873.816 726.286 852.548 684.326 826.493 653.395C797.497 618.947 761.637 595.735 722.257 584.392C683.949 573.387 641.932 565.965 621.743 519.211C614.818 503.173 607.582 482.407 604.986 464.656C600.795 435.388 594.659 406.586 586.638 378.536Z" stroke="#1F2832"/>
<path fill-rule="evenodd" clip-rule="evenodd" d="M614.426 378.959C606.531 318.239 605.653 254.925 642.338 207.068C659.459 184.742 681.101 168.88 702.986 154.509C719.088 143.935 735.716 135.016 747.741 117.68C758.883 101.629 767.352 82.9925 778.109 66.5215C792.299 44.6939 809.277 25.7985 828.392 10.5614C876.306 -27.5607 934.592 -45.3906 990.354 -51.5754C1017.35 -54.5814 1046.63 -56.1461 1073.44 -47.9518C1099.33 -40.0457 1124.94 -27.5442 1148.75 -12.9674C1199.36 17.9898 1243.22 63.3261 1275.02 120.645C1296.83 159.961 1308.62 198.19 1280.38 238.075C1248.55 283.032 1198.64 307.838 1157.5 337.016C1129.28 357.028 1097.66 376.645 1092.39 419.173C1088.19 453.013 1084.78 485.131 1073.93 517.118C1057.77 564.299 1034.01 607.038 1004.05 642.8C976.661 675.379 942.008 703.026 902.827 685.624C871.784 671.813 847.699 640.872 820.577 618.752C790.351 594.045 757.142 580.424 722.172 569.471C690.744 559.588 661.152 544.402 640.84 512.16C636.683 505.572 632.316 498.399 629.111 491.028C625.021 481.623 625.339 472.3 624.536 461.759C622.444 433.939 617.996 406.441 614.426 378.959Z" stroke="#1F2832"/>
<path fill-rule="evenodd" clip-rule="evenodd" d="M645.066 373.996C645.74 316.321 657.106 261.813 688.236 216.866C701.544 197.638 717.436 181.801 732.08 164.181C743.871 149.977 755.014 136.779 768.572 125.074C800.733 97.3582 826.871 61.4927 861.05 36.8124C906.675 3.81747 958.937 -14.4205 1010.79 -21.7123C1036.12 -25.2758 1062.27 -26.5214 1087.89 -22.496C1109.9 -19.0398 1130.97 -6.90587 1150.52 5.50848C1188.83 29.8258 1226.03 64.388 1250.91 108.115C1305.75 204.518 1197.62 274.607 1142.12 315.653C1116.59 334.534 1077.59 356.402 1067.14 393.802C1059.66 420.519 1055.11 447.691 1045.49 473.583C1019.63 543.12 967.146 624.906 897.204 614.018C867.276 609.366 839.998 590.468 812.059 577.781C783.29 564.715 753.597 557.432 723.696 549.439C695.75 541.974 673.477 531.349 655.427 502.866C646.799 489.264 647.562 472.981 646.793 456.294C645.538 428.883 644.762 401.316 645.066 373.996Z" stroke="#1F2832"/>
<path fill-rule="evenodd" clip-rule="evenodd" d="M672.966 366.609C684.202 279.553 725.934 184.513 787.297 133.956C859.477 74.484 937.674 24.404 1023.91 10.0073C1063.9 3.33158 1107.7 0.0472298 1145.42 21.877C1174.14 38.4797 1207.49 63.2975 1223.29 98.1987C1261.95 183.567 1175.96 251.525 1126.97 291.02C1100.59 312.281 1067.02 333 1047.14 364.049C1035.6 382.051 1029.71 405.864 1020.4 425.636C992.183 485.553 945.73 533.879 887.866 542.522C861.111 546.515 834.161 541.576 807.609 537.649C780.429 533.633 752.912 531.451 725.9 525.846C704.339 521.368 678.928 513.787 670.987 485.627C660.973 450.141 668.38 402.16 672.966 366.609Z" stroke="#1F2832"/>
<path fill-rule="evenodd" clip-rule="evenodd" d="M700.324 352.624C716.712 270.777 751.414 190.94 809.752 142.079C840.688 116.17 876.601 98.285 911.08 80.614C950.163 60.5868 990.998 45.0413 1032.7 37.3303C1084.63 27.7245 1168.73 19.0661 1195.86 91.2742C1222.79 162.947 1154.75 226.381 1114.51 262.531C1088.71 285.688 1061.1 306.943 1036.45 332.259C1023.08 345.984 1012.79 361.843 1001.48 377.94C970.215 422.542 925.649 457.851 880.225 476.7C836.199 494.973 781.736 503.063 735.263 497.024C715.211 494.429 700.879 485.672 694.814 460.776C686.411 426.167 693.55 386.434 700.324 352.624Z" stroke="#1F2832"/>
<path fill-rule="evenodd" clip-rule="evenodd" d="M727.51 330.58C743.79 258.517 778.904 192.697 830.124 149.446C887.538 100.961 961.469 74.0191 1029.42 60.3186C1065.54 53.0417 1143.81 33.3114 1162.22 89.7789C1180.63 146.246 1127.41 201.893 1096.78 232.527C1059.6 269.649 1019.52 305.492 979.481 338.8C944.697 367.76 907.58 397.368 869.903 419.732C848.654 432.419 826.518 442.777 803.759 450.685C786.906 456.493 765.476 465.157 747.807 460.833C703.241 449.914 719.724 365.036 727.51 330.58Z" stroke="#1F2832"/>
<path fill-rule="evenodd" clip-rule="evenodd" d="M761.067 309C796.787 172.721 909.959 105.696 1018.92 82.3337C1044.25 76.9108 1115.23 57.3588 1129.38 98.9891C1143.1 139.352 1099.48 187.22 1079.06 209.899C1015.78 280.174 937.598 332.28 863.516 383.9C840.392 400.013 798.687 434.978 770.003 418.849C738.86 401.305 753.667 337.259 761.067 309Z" stroke="#1F2832"/>
<path fill-rule="evenodd" clip-rule="evenodd" d="M797.655 282.77C828.719 182.41 919.071 124.85 1002.14 105.875C1022.49 101.232 1074.16 86.7756 1089.57 114.782C1103.83 140.689 1069.8 178.228 1057.07 193.145C1028.72 226.363 995.129 253.727 961.942 280.029C931.256 304.364 900.239 329.307 867.952 349.888C850.945 360.722 819.05 383.838 799.724 367.11C778.918 349.114 790.758 305.055 797.655 282.77Z" stroke="#1F2832"/>
<path fill-rule="evenodd" clip-rule="evenodd" d="M837.974 253.449C861.651 187.91 925.063 145.351 980.999 131.208C996.051 127.411 1028.58 117.56 1041.28 135.063C1052.97 151.182 1034.13 174.813 1025.77 185.727C988.711 234.101 934.445 277.31 884.725 303.849C872.224 310.521 849.752 323.617 836.892 310.15C823.701 296.321 832.536 268.497 837.974 253.449Z" stroke="#1F2832"/>
<path fill-rule="evenodd" clip-rule="evenodd" d="M880.747 225.918C894.088 193.374 928.957 168.821 957.842 161.005C978.169 155.509 1002.6 160.256 984.888 188.585C967.289 216.697 934.634 242.373 906.957 253.756C885.84 262.437 869.29 253.873 880.747 225.918Z" stroke="#1F2832"/>
<path fill-rule="evenodd" clip-rule="evenodd" d="M-201.146 451.323C-202.002 387.028 -229.996 320.206 -216.171 254.693C-204.818 200.887 -147.663 196.395 -113.375 172.018C-86.1284 152.651 -70.6656 118.343 -55.9305 85.4264C-42.6911 55.8743 -30.7993 25.4337 -16.8524 -3.63306C-7.82403 -22.424 7.6792 -59.323 27.2587 -59.9894C46.0027 -60.6311 63.1903 -31.877 74.0782 -14.8796C88.2744 7.27622 100.86 30.8965 114.645 53.4061C137.877 91.3747 165.75 119.479 197.666 146.077C233.986 176.343 270.906 205.574 308.425 233.771C336.05 254.594 363.862 275.261 390.415 298.141C407.071 312.497 443.831 339.433 444 365.9C444.08 378.529 434.277 392.515 427.668 402.61C416.483 419.698 403.736 435.321 390.948 450.607C367.13 479.082 342.302 506.264 317.744 533.776C285.868 569.482 255.421 604.604 227.399 645.14C198.427 687.098 170.749 730.439 142.505 773.188C123.377 802.148 104.269 834.67 76.679 852.44C42.1218 874.654 13.7565 851.231 -21.1914 850.96C-51.2546 850.721 -49.0379 765.685 -52.8582 742.04C-56.6918 718.107 -65.1408 695.827 -68.4153 671.837C-72.4983 641.89 -72.5522 611.252 -73.5561 580.984C-74.7756 543.961 -75.2607 508.716 -107.675 494.598C-126.123 486.577 -146.08 484.89 -165.174 480.085C-177.544 476.967 -200.876 471.636 -201.146 451.323Z" stroke="#1F2832"/>
<path fill-rule="evenodd" clip-rule="evenodd" d="M-186.366 439.886C-189.518 385.99 -208.135 317.008 -190.53 261.374C-175.489 213.831 -128.45 207.668 -96.7758 182.693C-70.628 162.094 -58.988 128.386 -45.9175 95.2704C-35.4314 68.7057 -25.2625 41.8856 -13.3593 16.1697C-4.58716 -2.78152 8.80727 -34.7761 27.0466 -38.6981C43.4438 -42.2247 61.0286 -13.9792 70.2326 0.390747C83.6607 21.3689 95.1455 44.1516 107.008 66.4563C127.852 105.636 149.195 140.869 179.702 169.65C210.344 198.554 243.867 220.167 277.748 242.661C304.253 260.261 330.624 278.372 355.807 298.691C374.566 313.819 401.537 333.182 410.12 360.159C416.915 381.499 382.454 416.913 372.292 429.413C351.373 455.113 329.207 479.238 307 503.216C279.928 532.433 251.992 557.985 228.084 591.314C185.323 650.903 149.58 725.109 94.5584 769.398C61.3727 796.111 24.4419 802.941 -12.4686 798.945C-27.0844 797.363 -30.5932 772.174 -32.4354 757.483C-35.4989 733.077 -35.8835 708.251 -38.2385 683.746C-40.445 660.807 -45.3439 639.013 -49.2914 616.519C-53.2861 593.728 -54.4063 570.377 -57.3483 547.43C-59.1702 533.183 -60.9719 516.605 -68.941 505.152C-77.1869 493.295 -90.7905 488.326 -102.68 484.553C-125.009 477.533 -184.14 477.92 -186.366 439.886Z" stroke="#1F2832"/>
<path fill-rule="evenodd" clip-rule="evenodd" d="M-167.344 417.324C-172.644 367.852 -180.064 306.234 -158.473 260.654C-140.826 223.386 -103.188 215.346 -76.3047 191.062C-53.9448 170.869 -45.4991 138.751 -34.4002 108.905C-25.2928 84.4243 -16.1382 59.8364 -5.10007 36.5404C3.27139 18.873 14.0598 -5.08143 30.6812 -11.2449C44.8924 -16.5114 60.9467 7.08098 68.8253 18.8236C82.2399 38.8363 93.1768 61.2599 104.039 83.3874C121.809 119.595 138.16 158.27 163.45 187.721C188.024 216.3 217.216 233.17 246.955 252.137C269.734 266.669 292.37 281.761 313.832 299.091C330.312 312.389 350.734 328.148 359.322 350.275C366.748 369.358 347.683 391.946 338.157 405.409C322.427 427.627 304.968 448.01 287.753 468.475C269.173 490.553 248.596 510.919 230.617 533.541C192.811 581.145 162.606 633.851 116.009 670.321C85.8315 693.946 45.2232 715.407 9.54999 711.548C-16.1045 708.767 -14.4167 639.463 -16.8809 617.319C-20.9316 581.112 -28.7562 543.07 -41.1851 509.718C-51.8587 481.139 -77.2229 472.326 -100.555 465.916C-115.171 461.892 -130.49 459.719 -144.627 453.498C-160.992 446.29 -165.123 438.061 -167.344 417.324Z" stroke="#1F2832"/>
<path fill-rule="evenodd" clip-rule="evenodd" d="M-149.601 394.135C-152.756 352.309 -152.047 302.848 -131.607 266.667C-113.695 234.976 -81.8021 226.632 -59.1192 201.667C-41.4161 182.19 -34.4632 150.432 -24.9427 124.675C-13.3074 93.1811 2.99706 35.014 32.3491 23.1627C59.6537 12.145 88.2084 82.5265 98.0938 103.514C113.743 136.732 126.831 173.161 145.811 203.837C162.156 230.247 184.055 244.846 207.299 260.535C236.935 280.574 281.929 304.334 297.774 343.387C309.585 372.487 271.179 415.749 258.063 435.911C244.347 456.973 234.016 481.938 219.86 502.257C197.522 534.32 161.325 560.135 131.439 579.835C102.384 598.999 64.6538 620.209 31.6936 618.946C10.031 618.121 5.90929 577.285 1.28757 557.338C-5.3342 528.98 -14.1384 503.569 -33.051 484.282C-52.3014 464.648 -74.9911 455.397 -98.843 447.3C-111.087 443.174 -125.053 439.955 -136.006 431.62C-148.108 422.55 -148.385 410.212 -149.601 394.135Z" stroke="#1F2832"/>
<path fill-rule="evenodd" clip-rule="evenodd" d="M-127.982 370.026C-127.807 333.892 -121.038 295.359 -100.968 267.486C-84.2515 244.269 -58.0861 236.509 -42.0837 212.775C-29.4084 193.985 -22.9563 167.606 -14.4702 145.786C-4.09158 119.046 10.584 72.3338 36.3925 63.0537C61.5814 54.02 83.8608 105.471 93.5188 125.83C107.662 155.682 119.112 187.324 133.383 217.094C144.563 240.451 158.235 255.504 176.44 270.557C197.81 288.239 227.626 307.825 239.042 337.078C247.272 358.258 227.35 392.101 220.117 410.76C215.267 423.292 210.829 436.021 208.391 449.605C206.492 460.182 206.303 469.972 200.801 479.055C186.947 501.902 156.572 504.883 135.963 512.414C108.592 522.408 79.5504 533.766 50.9064 535.934C33.3011 537.289 24.3167 517.489 14.268 503.561C2.39423 487.095 -14.4163 475.252 -29.0986 462.827C-48.4752 446.402 -69.5625 436.186 -91.3772 425.723C-101.217 421.001 -112.774 416.369 -120.398 406.982C-128.359 397.251 -128.042 383.068 -127.982 370.026Z" stroke="#1F2832"/>
<path fill-rule="evenodd" clip-rule="evenodd" d="M-105.276 348.575C-101.797 318.227 -90.9558 289.221 -72.6449 267.767C-58.6084 251.296 -39.9671 242.022 -28.7014 222.232C-18.2044 203.784 -10.8894 182.808 -2.21939 163.084C6.95629 142.231 20.5883 107.378 41.7511 101.704C64.5588 95.5929 82.1281 130.751 91.8566 150.236C104.147 174.861 113.485 201.355 124.474 226.828C132.753 245.814 143.313 263.178 155.803 278.341C168.903 294.327 186.668 309.637 193.295 331.618C199.153 351.087 188.191 374.641 186.256 394.381C184.187 415.473 187.814 437.627 176.339 455.737C152.675 493.085 93.2859 486.159 59.3339 486.958C25.8335 487.781 -1.10024 464.928 -28.2093 443.186C-46.1157 428.831 -64.7637 416.675 -83.1218 403.3C-101.837 389.654 -108.336 375.283 -105.276 348.575Z" stroke="#1F2832"/>
<path fill-rule="evenodd" clip-rule="evenodd" d="M-84.1792 331.205C-73.8916 287.239 -41.7607 263.871 -18.7907 230.645C0.00350189 203.445 14.0958 147.115 45.7478 139.664C81.6834 131.207 103.196 205.843 115.69 234.643C129.553 266.583 154.243 292.563 164.51 326.374C169.907 344.121 165.272 360.68 162.399 378.418C159.248 397.895 156.881 417.809 146.006 433.487C124.601 464.339 82.7965 464.124 52.6894 464.973C21.5231 465.855 -6.04762 444.713 -30.8795 423.612C-57.2156 401.266 -94.7164 376.291 -84.1792 331.205Z" stroke="#1F2832"/>
<path fill-rule="evenodd" clip-rule="evenodd" d="M-66.9486 319.283C-55.3564 287.958 -30.9965 262.492 -11.23 238.452C5.26809 218.41 23.0165 178.065 48.1714 175.189C77.7362 171.797 95.6545 214.879 107.287 241.295C118.737 267.253 135.235 294.661 141.575 323.15C148.186 352.827 130.58 392.796 113.79 413.796C95.0633 437.214 64.4249 445.866 38.1353 444.932C10.6089 443.982 -14.6479 424.628 -35.4948 404.554C-57.7822 383.095 -80.4297 355.646 -66.9486 319.283Z" stroke="#1F2832"/>
<path fill-rule="evenodd" clip-rule="evenodd" d="M-50.9603 313.385C-39.8874 287.332 -20.6933 265.292 -2.99567 245.633C10.6619 230.456 30.8149 204.648 50.519 204.016C72.1956 203.319 90.5666 224.981 99.1842 247.184C107.679 269.085 116.63 296.542 117.902 320.568C120.664 372.888 64.4418 431.496 22.2245 426.727C-17.8027 422.204 -73.0382 365.295 -50.9603 313.385Z" stroke="#1F2832"/>
<path fill-rule="evenodd" clip-rule="evenodd" d="M-36.1741 310.513C-20.8984 276.567 16.2067 228.173 50.5584 227.024C89.9884 225.71 99.8867 279.563 94.7472 318.591C89.5261 358.422 44.066 416.076 7.8176 408.286C-27.5607 400.684 -54.2779 350.771 -36.1741 310.513Z" stroke="#1F2832"/>
<path fill-rule="evenodd" clip-rule="evenodd" d="M-20.5621 305.024C-7.62863 276.602 19.9704 241.101 48.7556 240.026C83.0538 238.755 82.4068 284.222 74.6292 312.521C66.5416 341.903 30.9224 392.086 0.890343 384.163C-28.3127 376.428 -32.9564 332.265 -20.5621 305.024Z" stroke="#1F2832"/>
<path fill-rule="evenodd" clip-rule="evenodd" d="M-6.96436 301.753C1.57262 281.472 22.9387 255.84 43.2504 255.02C68.0772 254.034 63.2511 290.096 56.8366 307.502C49.2121 328.213 23.6552 364.201 2.20801 358.369C-18.908 352.628 -14.0075 318.463 -6.96436 301.753Z" stroke="#1F2832"/>
<path fill-rule="evenodd" clip-rule="evenodd" d="M1160.93 1460.51C1105.98 1501.2 1043.86 1534.78 985.277 1568.92C899.669 1618.8 812.8 1667.34 722.848 1704.5C674.621 1724.42 612.128 1753.14 560.381 1737.53C541.461 1731.83 524.207 1714.58 507.243 1703.37C483.852 1687.91 460.116 1673.22 436.421 1658.5C388.888 1628.98 341.208 1599.77 294.492 1568.36C271.997 1553.24 250.17 1534.18 226.751 1521.28C213.066 1513.73 196.689 1517.26 182.065 1517.74C148.192 1518.85 114.339 1520.96 80.4854 1522.75C39.0776 1524.94 -2.42458 1527.27 -43.8795 1526.41C-62.5767 1526.01 -108.369 1530.06 -118.662 1510.41C-124.199 1499.82 -111.148 1480.74 -105.097 1471.91C-93.9884 1455.68 -81.2199 1441.05 -68.6202 1426.57C-39.4817 1393.09 -8.53555 1361.21 17.3654 1323.81C30.6733 1304.59 48.1092 1281.1 39.4216 1254.85C30.6531 1228.35 15.4632 1205.39 6.19556 1178.97C-4.47507 1148.57 -8.89981 1116.93 -13.9384 1084.7C-17.6684 1060.87 -26.3559 1039.76 -34.5242 1017.8C-43.549 993.517 -52.8977 969.032 -59.1638 943.429C-63.3053 926.516 -69.9895 896.089 -55.5012 885.382C-34.9154 870.157 3.68638 882.485 27.1523 886.971C59.5824 893.16 91.7765 901.044 124.119 907.834C147.598 912.772 171.159 918.187 195.029 918.763C233.51 919.693 272.118 916.475 310.498 913.48C381.563 907.932 452.119 900.41 523.425 900.41C585.896 900.41 730.261 988.612 764.054 1004.14C831.504 1035.14 900.748 1064.53 964.576 1105.78C981.844 1116.95 1008.42 1131.83 1017.5 1154.82C1023.11 1168.98 1020.53 1177.17 1033.75 1186.3C1051.79 1198.75 1074.9 1203.64 1094.86 1209.21C1127.02 1218.18 1159.42 1225.78 1191.72 1233.9C1257.05 1250.29 1321.94 1268.82 1387 1286.66C1406.67 1292.05 1430.47 1293.24 1449.22 1302.74C1461.31 1308.84 1460.05 1316.51 1450.7 1325.78C1434.29 1342.04 1411.29 1351.07 1391.9 1360.35C1363.5 1373.94 1334.63 1386.06 1305.75 1398.01C1276.86 1409.96 1247.83 1421.54 1218.94 1433.51C1199.85 1441.4 1178.08 1447.81 1160.93 1460.51Z" stroke="#1F2832"/>
<path fill-rule="evenodd" clip-rule="evenodd" d="M1115.71 1451.56C1057.58 1492.33 993.06 1524.81 930.857 1556.5C851.249 1597.08 769.839 1635.12 685.96 1660.49C636.711 1675.37 578.603 1691.81 528.281 1674.74C510.329 1668.65 496.917 1654.96 481.528 1642.87C463.987 1629.09 445.772 1616.45 427.556 1604.01C390.059 1578.41 352.167 1553.69 313.878 1529.84C293.598 1517.15 271.274 1500.17 248.363 1495.77C230.148 1492.26 209.456 1497.33 191.16 1498.81C158.21 1501.46 125.267 1504.2 92.3036 1506.52C54.2669 1509.2 16.1224 1511.67 -21.9952 1511.24C-43.2399 1511 -79.7114 1514.95 -94.7358 1498.2C-107.844 1483.58 -60.1197 1430.7 -51.7271 1420.65C-25.517 1389.28 2.04919 1359.41 26.4445 1325.87C40.8617 1306.09 58.416 1282.03 64.4946 1255.81C69.6692 1233.47 59.6844 1208.01 53.788 1187.36C46.4141 1161.49 40.4637 1134.67 31.8956 1109.34C24.2654 1086.77 12.1216 1066.67 1.45544 1046.16C-10.2767 1023.59 -22.1572 1000.65 -30.8669 976.036C-36.2034 960.888 -45.0345 935.52 -34.4291 921.08C-22.1775 904.431 15.5894 915.311 31.113 917.684C62.6056 922.564 93.8553 929.816 125.132 936.311C177.08 947.091 226.606 956.52 279.505 954.262C348.393 951.311 417.214 944.371 486.089 940.531C511.523 939.096 537.362 936.212 562.817 937.77C577.409 938.668 588.521 944.108 597.008 956.38C608.598 973.127 635.294 982.399 653.86 992.009C682.809 1006.98 712.123 1020.91 741.355 1035.02C805.528 1066.01 870.935 1095.88 931.795 1135.96C951.049 1148.64 973.097 1162.77 987.339 1183.71C995.286 1195.39 993.282 1206.64 998.133 1219.05C1004.56 1235.38 1025.67 1242.75 1038.29 1248.09C1062.66 1258.41 1088.02 1265.32 1113.18 1271.8C1170.12 1286.46 1227.2 1296.09 1285.06 1303.19C1298.62 1304.84 1352.02 1310.55 1323.97 1338.07C1292.99 1368.5 1248.25 1383.41 1211.77 1400.55C1178.91 1415.96 1146.02 1430.3 1115.71 1451.56Z" stroke="#1F2832"/>
<path fill-rule="evenodd" clip-rule="evenodd" d="M1035.38 1444.02C980.741 1479.89 920.214 1506.65 861.369 1532.25C789.962 1563.31 716.765 1591 641.872 1606.51C594.826 1616.25 542.957 1623.73 496.228 1607.55C464.317 1596.51 439.632 1566.65 411.604 1546.11C383.576 1525.57 354.413 1506.29 324.379 1490.22C305.739 1480.25 285.687 1470.2 264.946 1471.52C214.516 1474.71 164.147 1482.32 113.662 1486.02C80.2651 1488.49 46.8004 1490.52 13.3019 1489.91C-6.89856 1489.55 -34.6498 1491.03 -52.5337 1478.06C-72.3019 1463.72 32.9552 1341.25 42.9034 1327.47C67.845 1292.91 98.0478 1247.04 93.2256 1197.89C88.6128 1150.9 68.6217 1115.82 46.0101 1079.01C33.178 1058.06 -7.97248 1002.12 7.27747 974.879C15.9898 959.31 44.7067 964.7 58.3492 965.761C85.2359 967.851 111.974 972.344 138.719 976.245C177.715 981.898 217.785 990.629 256.95 993.188C284.221 994.966 311.655 992.587 338.974 992.538C378.146 992.472 417.317 992.834 456.489 993.262C489.38 993.624 522.547 993.262 555.323 997.113C575.699 999.483 591.165 1004.81 605.781 1019.85C618.498 1032.93 637.685 1040.59 653.894 1048.91C680.666 1062.65 707.789 1075.38 734.824 1088.31C791.427 1115.4 848.679 1141.93 902.857 1175.78C927.589 1191.22 969.172 1212.85 974.974 1250.3C977.067 1263.8 978.607 1269.64 989.413 1277.32C1004.75 1288.21 1023.12 1293.12 1040.33 1297.39C1080.45 1307.35 1121.73 1305.86 1161.78 1315.7C1178.09 1319.76 1199.38 1328.52 1180.76 1348.56C1159.03 1372.01 1127.41 1384.89 1101.38 1399.37C1088.38 1406.6 1075 1413.36 1062.66 1422.19C1053.18 1428.98 1045.07 1437.7 1035.38 1444.02Z" stroke="#1F2832"/>
<path fill-rule="evenodd" clip-rule="evenodd" d="M931.894 1432.82C881.415 1461.95 826.594 1483.13 772.757 1502.23C712.96 1523.41 651.719 1540.96 589.669 1548.42C546.824 1553.59 501.173 1555.12 459.589 1539.29C433.291 1529.28 415.462 1508.22 392.832 1490.56C358.679 1463.86 321.727 1442.72 280.695 1447.86C234.694 1453.62 188.542 1457.94 142.239 1460.82C114.31 1462.56 86.2719 1463.87 58.3083 1462.65C40.628 1461.89 17.8499 1460.61 2.46899 1450.84C-18.1109 1437.75 59.1917 1338.14 68.8275 1323.62C92.725 1287.62 110.244 1249.84 120.479 1205.23C128.827 1168.83 111.774 1140.22 94.1815 1112.99C83.2443 1096.08 47.9038 1053.55 58.9692 1031.59C65.038 1019.48 85.0379 1020.11 95.7797 1019.49C116.252 1018.32 136.811 1019.54 157.283 1020.08C187.512 1020.9 219.69 1015.23 249.663 1019.8C316.089 1029.89 382.347 1038.64 449.184 1045.56C486.028 1049.37 523.095 1052.83 559.609 1060.18C572.717 1062.82 586.257 1065.62 598.678 1071.59C606.669 1075.42 611.025 1081.96 617.768 1087.32C649.919 1112.84 691.888 1125.97 728.098 1142.33C776.237 1164.07 824.632 1185.48 871.489 1211.16C896.135 1224.67 930.559 1240.2 947.518 1267.77C952.642 1276.1 950.458 1282.77 953.681 1290.78C957.389 1300.02 968.657 1302.77 975.933 1305.34C992.447 1311.19 1061.57 1320.03 1029.72 1354.34C1014.52 1370.68 995.151 1381.16 978.016 1394.01C971.813 1398.66 965.764 1403.34 960.592 1409.61C951.941 1420.14 943.418 1426.14 931.894 1432.82Z" stroke="#1F2832"/>
<path fill-rule="evenodd" clip-rule="evenodd" d="M821.63 1420.2C721.979 1467.34 605.192 1499.45 496.547 1493.23C460.417 1491.15 421.544 1484.22 390.226 1460.51C371.759 1446.5 357.002 1430.69 334.819 1425.63C318.805 1421.98 301.561 1426.12 285.453 1427.62C262.121 1429.8 238.776 1431.74 215.41 1433.31C186.443 1435.23 157.381 1436.72 128.36 1435.93C107.623 1435.36 78.9873 1436 60.9733 1422.4C39.4659 1406.19 94.2108 1330.11 101.914 1316.56C120.583 1283.7 133.671 1251.87 138.401 1212.28C139.793 1200.74 144.483 1188.91 143.874 1177.29C143.239 1165.41 137.246 1154.84 131.712 1145.5C124.475 1133.27 99.3663 1104.24 106.556 1089.32C110.529 1081.08 125.441 1080.04 133.171 1078.3C147.672 1075 162.382 1073.23 176.97 1070.61C201.721 1066.14 226.296 1051.6 251.134 1052.01C317.927 1053.1 385.685 1078.38 451.14 1092.26C490.053 1100.54 529.23 1108.06 567.67 1119.27C579.833 1122.83 592.36 1126.5 603.921 1132.53C611.989 1136.73 617.172 1144.22 624.645 1148.92C653.301 1166.99 686.255 1177.96 717.026 1190.13C756.973 1205.95 797.055 1221.29 836.725 1238.13C861.591 1248.69 893.565 1257.98 914.991 1277.56C930.64 1291.85 919.944 1296.13 911.687 1309.45C907.471 1316.24 908.444 1322.93 906.612 1330.61C903.998 1341.59 896.605 1349.49 889.673 1356.6C880.112 1366.41 867.375 1374.49 859.557 1386.53C856.8 1390.76 856.929 1396.02 854.699 1399.71C848.212 1410.46 831.002 1415.77 821.63 1420.2Z" stroke="#1F2832"/>
<path fill-rule="evenodd" clip-rule="evenodd" d="M715.68 1403.41C634.802 1433.05 544.811 1449.92 459.319 1442.09C429.574 1439.36 399.647 1433.02 371.939 1419.1C359.332 1412.78 349.869 1405.74 336.056 1405.36C304.004 1404.49 271.851 1407.55 239.806 1408.28C216.873 1408.81 193.826 1409 170.947 1406.75C155.649 1405.25 134.963 1403.45 122.431 1392C104.219 1375.33 137.094 1318.64 143.785 1302.98C154.874 1277 165.875 1248.13 161.477 1218.07C160.128 1208.88 157.74 1200.76 157.43 1191.39C157.133 1183.34 157.963 1175.9 155.622 1168.2C152.729 1158.66 139.86 1143.84 144.284 1135.06C147.299 1129.05 156.243 1128.77 162.192 1126.85C171.841 1123.74 181.262 1119.65 190.359 1114.64C199.936 1109.33 208.091 1101.13 218.013 1096.74C234.12 1089.64 252.149 1088.97 269.079 1089C336.629 1089.13 405.036 1105.4 470.873 1122.4C505.158 1131.26 539.631 1140.69 572.951 1154.12C583.068 1158.2 594.535 1162.3 603.431 1169.83C608.982 1174.52 612.746 1180.4 619.052 1183.93C672.924 1214.05 735.207 1225.24 792.397 1246.99C807.283 1252.65 889.78 1281.26 846.646 1308.18C820.442 1324.53 792.754 1331.97 768.844 1354.34C761.559 1361.14 756.703 1366.77 753.856 1377.15C751.981 1384.06 756.494 1380.55 750.194 1387.77C742.552 1396.45 725.103 1399.96 715.68 1403.41Z" stroke="#1F2832"/>
<path fill-rule="evenodd" clip-rule="evenodd" d="M631.585 1385.89C536.895 1410.08 436.618 1411.23 340.433 1389.78C316.186 1384.38 290.951 1385.67 266.406 1384.3C242.557 1382.99 200.156 1385.72 182.835 1363.34C170.275 1347.12 183.903 1312.64 188.618 1294.49C194.624 1271.37 199.872 1247.49 190.011 1225.04C184.235 1211.88 176.321 1199.37 170.126 1186.34C167.163 1180.12 161.063 1170.58 163.606 1164.69C167.813 1154.97 187.495 1150.88 197.045 1146.29C227.569 1131.63 259.892 1127.9 292.527 1128C352.804 1128.19 413.392 1138.25 472.519 1151.89C499.722 1158.17 527.304 1164.87 553.54 1175.79C568.386 1181.96 579.336 1193.87 593.513 1200.93C639.16 1223.68 688.203 1235.83 734.635 1256.64C748.074 1262.66 798.274 1282.72 772.985 1306.36C748.501 1329.25 712.789 1326.53 687.331 1348.06C684.449 1350.53 680.885 1353.48 679.214 1357.47C678.227 1359.85 679.965 1364.39 679.214 1365.74C671.396 1380.48 643.604 1382.82 631.585 1385.89Z" stroke="#1F2832"/>
<path fill-rule="evenodd" clip-rule="evenodd" d="M570.237 1369.9C521.658 1378.03 472.011 1380.05 422.614 1380.56C395.614 1380.84 365.948 1382.94 339.529 1374.6C323.3 1369.46 307.626 1364.96 290.896 1361.72C272.896 1358.23 243.914 1355.7 232.952 1336.8C224.763 1322.68 230.376 1293.64 230.673 1276.47C230.991 1257.64 227.827 1243.67 216.933 1230.2C210.083 1221.71 178.66 1190.9 182.291 1182.02C185.746 1173.56 207.642 1172.26 217.109 1170.06C247.031 1163.09 277.352 1160.66 307.788 1161.04C354.926 1161.62 402.24 1167.48 448.642 1177.57C467.826 1181.75 487.652 1186.09 505.977 1194.46C518.318 1200.11 528.61 1210.12 540.869 1215.95C575.978 1232.68 613.101 1244.05 648.332 1261.09C659.638 1266.56 696.478 1281.15 687.646 1303.63C680.282 1322.39 655.236 1328.1 642.929 1340.68C621.994 1362.13 596.933 1365.44 570.237 1369.9Z" stroke="#1F2832"/>
<path fill-rule="evenodd" clip-rule="evenodd" d="M539.634 1359.12C501.098 1364.5 461.667 1366.85 422.565 1366.97C397.331 1367.04 370.708 1367.46 345.945 1360.54C333.506 1357.07 322.697 1348.94 310.925 1343.15C298.803 1337.19 282.074 1330.54 276.834 1316.87C271.911 1304.03 273.75 1285.3 269.426 1269.82C265.581 1256.08 257.533 1247.59 248.865 1238.31C243.343 1232.37 214.983 1206.68 218.263 1201.01C221.779 1194.94 238.811 1195.43 247.673 1194.59C272.092 1192.24 296.596 1191.49 321.081 1192.34C354.498 1193.59 388.171 1197.08 421.01 1204.99C444.305 1210.58 461.875 1223.92 483.595 1233.7C511.732 1246.4 540.879 1256.44 568.747 1270.33C582.634 1277.26 603.188 1286.16 610.3 1304.03C613.034 1310.88 615.688 1328.3 612.644 1335.15C608.987 1343.38 595.376 1346.87 588.951 1348.98C572.856 1354.26 556.012 1356.83 539.634 1359.12Z" stroke="#1F2832"/>
</g>
<defs>
<clipPath id="clip0_1091_17861">
<rect width="1600" height="1200" fill="white" transform="translate(-74)"/>
</clipPath>
</defs>
</svg>
