<svg width="1206" height="904" viewBox="0 0 1206 904" fill="none" xmlns="http://www.w3.org/2000/svg">
<g opacity="0.05" clip-path="url(#clip0_889_11244)">
<path fill-rule="evenodd" clip-rule="evenodd" d="M412.932 281.815C412.85 260.54 380.383 236.614 366.515 224.279C339.093 199.882 310.572 177.353 282.316 154.464C254.06 131.575 225.728 108.747 198.784 83.6183C181.289 67.3061 160.732 48.9339 148.867 25.6414C123.592 -23.9963 203.284 -16.625 223.927 -17.7108C276.442 -20.4844 336.677 -19.2186 385.901 -45.0675C415.286 -60.4986 427.004 -86.3785 420.693 -124.097C418.658 -136.364 412.637 -150.479 417.738 -162.43C423.185 -175.193 435.716 -182.558 446.116 -187.497C484.05 -205.49 527.665 -207.575 567.801 -209.834C611.081 -212.316 654.767 -211.59 697.741 -211.782C715.963 -211.863 734.993 -219.848 752.346 -226.338C775.094 -234.845 797.573 -244.4 820.133 -253.639C869.764 -273.916 920.906 -295.273 973.416 -300.422C1006.3 -303.649 1042.24 -299.287 1067.79 -271.223C1080.61 -257.132 1087.33 -236.185 1094.74 -217.577C1103.72 -195.097 1112.34 -172.401 1121.89 -150.275C1152.68 -79.0135 1196.63 -9.37795 1267.96 -5.87849C1278.76 -5.35109 1289.35 -7.06978 1300.1 -7.39242C1306.94 -7.59097 1313.02 -5.57441 1315.57 3.15562C1321.96 25.0521 1301.87 59.6185 1293.63 76.9917C1275.59 115.02 1255.24 151.343 1236.19 188.608C1223.58 213.253 1201.76 246.933 1201.53 276.877C1201.33 303.557 1230.42 322.841 1246.25 335.983C1261.09 348.287 1287.98 365.505 1289.61 390.534C1290.4 402.671 1283.84 412.729 1276.99 420.534C1264.98 434.185 1251.15 443.814 1240.34 459.388C1222.63 484.939 1207.83 520.095 1210.24 554.525C1211.9 578.382 1223.06 594.006 1237.26 608.94C1243.22 615.22 1248.06 619.662 1248.38 629.856C1248.89 646.045 1243.69 663.176 1239.41 678.185C1224.09 731.899 1202.33 783.839 1178.13 832.335C1166.04 856.57 1152.97 880.732 1136.94 901.406C1126.43 914.982 1112.27 931.139 1096.25 931.12C1077.7 931.12 1058.08 922.955 1040.05 916.849C1006.38 905.439 973.111 892.248 939.977 878.715C863.353 847.406 787.449 813.561 712.266 777.181C659.308 751.512 605.227 725.806 555.438 691.68C545.728 684.979 536.563 677.165 528.067 668.344C518.989 659.081 507.724 654.936 496.302 651.846C425.407 632.667 347.738 647.391 276.549 656.624C258.479 658.963 240.41 661.314 222.29 662.952C206.712 664.361 188.063 668.4 172.923 662.332C143.09 650.388 169.169 606.365 180.195 588.428C219.014 525.27 269.098 471.835 315.52 417.283C337.592 391.304 359.832 365.393 380.704 337.943C391.572 323.672 413.003 300.467 412.932 281.815Z" stroke="white"/>
<path fill-rule="evenodd" clip-rule="evenodd" d="M426.309 278.229C414.411 255.716 393.535 239.076 376.207 223.416C351.27 200.872 325.549 179.58 300.215 157.675C276.26 136.96 252.254 116.01 230.071 92.4861C216.544 78.1409 199.571 60.9862 193.164 39.7693C179.266 -6.21835 254.036 0.758866 272.494 -0.444313C318.383 -3.42126 370.41 -4.1035 412.864 -28.316C439.373 -43.4364 450.264 -68.5109 444.61 -103.323C442.656 -115.367 439.134 -125.65 443.592 -137.632C448.748 -151.5 460.605 -160.145 471.476 -166.248C505.528 -185.369 545.778 -189.431 582.69 -192.811C620.823 -196.303 660.554 -198.765 697.461 -196.21C712.219 -195.192 729.207 -200.966 743.813 -205.395C766.287 -212.217 788.532 -220.087 810.894 -227.405C856.34 -242.29 902.967 -256.629 950.245 -258.26C984.378 -259.439 1019.97 -253.051 1048.36 -228.361C1077.14 -203.323 1089.91 -164.511 1105.87 -127.616C1133.44 -63.8285 1170.66 13.7272 1234.43 27.2041C1244.1 29.2507 1253.39 28.1406 1263.05 28.643C1268.02 28.8973 1273.67 29.7035 1276.19 35.676C1282.73 51.1809 1264.81 79.5301 1258.78 91.4069C1242.12 124.228 1223.39 155.442 1205.93 187.63C1192.06 213.189 1174.48 241.588 1169.12 271.884C1162.61 308.65 1205.14 334.809 1220.09 360.697C1246.02 405.586 1196.9 431.163 1172.68 452.566C1144.87 477.139 1121.91 521.966 1146.84 559.984C1156.38 574.522 1168.11 583.186 1172.37 602.158C1179.03 631.828 1174 665.734 1168.59 695.063C1160.45 739.153 1147.56 782.765 1130.05 822.613C1117.5 851.142 1096.68 895.877 1066.19 892.522C1045.66 890.283 1024.8 882.102 1004.81 874.871C974.887 864.049 945.339 851.713 915.949 838.9C848.106 809.403 781.01 776.88 715.232 741.107C670.351 716.69 545.157 616.906 535.737 613.346C507.65 602.741 475.715 604.608 446.758 606.251C408.238 608.434 369.911 614.09 331.615 619.331C313.386 621.812 295.065 624.845 276.739 626.066C263.695 626.935 246.565 627.679 235.14 618.432C212.839 600.39 237.684 559.11 247.959 541.645C279.436 488.104 319.254 441.738 356.588 394.33C374.909 371.054 393.51 347.815 410.141 322.672C416.849 312.52 433.663 292.134 426.309 278.229Z" stroke="white"/>
<path fill-rule="evenodd" clip-rule="evenodd" d="M442.77 266.683C410.276 221.631 365.426 188.125 326.719 150.5C307.291 131.609 287.741 112.204 270.985 89.7034C262.269 78.0032 251.384 63.2073 249.705 46.8978C245.217 3.26711 312.608 9.16687 332.779 7.51048C371.777 4.29695 415.832 1.85894 451.212 -20.4062C472.828 -34.0171 483.473 -56.3567 479.432 -85.7188C477.641 -98.7466 474.853 -109.814 479.432 -122.606C484.073 -135.566 493.741 -144.71 503.531 -151.565C531.665 -171.28 566.628 -177.583 598.303 -182.28C635.462 -187.749 672.9 -189.885 710.315 -188.669C743.084 -187.621 775.696 -199.414 807.692 -207.187C850.079 -217.479 893.234 -226.469 936.608 -225.11C970.863 -224.031 1005.39 -215.55 1034.67 -193.012C1064.43 -170.058 1082.32 -135.702 1098.45 -98.6288C1122.83 -42.5845 1153.22 32.5177 1206.72 53.8026C1214.5 56.9044 1221.75 57.2456 1229.77 57.7854C1233.67 58.0459 1238.7 58.1266 1240.64 63.0833C1245.29 75.0193 1228.09 98.1591 1223.29 106.224C1207.98 131.969 1191.37 156.555 1175.68 181.959C1161.02 205.676 1145.06 230.391 1135.96 258.184C1121.47 302.447 1167.79 328.329 1166.49 370.508C1165.68 396.694 1145.12 415.473 1128.83 428.463C1108.78 444.438 1079.92 454.941 1069.88 484.092C1062.41 505.805 1074.14 518.442 1083.17 534.919C1098.48 562.835 1099.52 600.678 1097.93 632.993C1095.78 676.661 1087.39 720.974 1073.1 761.112C1066.63 779.308 1058.7 798.235 1047.03 812.367C1036.1 825.612 1025.75 829.006 1011.13 826.294C966.395 817.982 921.225 794.811 878.325 774.115C824.423 748.109 771.264 719.398 719.693 687.096C684.527 665.066 648.567 641.759 617.7 611.324C609.656 603.389 601.417 594.766 595.535 584.3C591.088 576.434 589.2 569.939 581.705 565.447C559.489 552.14 528.587 555.621 504.783 557.004C466.722 559.206 428.843 565.069 391.016 570.348C368.942 573.45 327.36 583.208 309.733 559.802C294.519 539.59 312.878 505.129 322.256 487.324C345.978 442.297 376.494 402.78 404.806 362.09C417.781 343.441 431.265 324.65 441.982 303.917C444.719 298.632 449.105 291.628 449.859 285.207C450.703 277.849 446.76 272.235 442.77 266.683Z" stroke="white"/>
<path fill-rule="evenodd" clip-rule="evenodd" d="M445.564 277.17C415.538 237.337 379.364 204.612 347.129 167.336C332.675 150.623 318.08 133.09 307.067 112.701C301.143 101.737 294.853 87.9355 296.486 74.3079C301.173 35.1944 356.6 38.7271 378.992 36.4362C412.265 33.0712 450.49 29.6813 479.911 8.59107C499.184 -5.22281 506.41 -25.6239 502.812 -51.9355C498.949 -80.1593 507.586 -100.647 527.24 -116.392C551.882 -136.116 582.987 -144.156 611.599 -149.868C646.07 -156.717 680.978 -159.753 715.897 -158.939C749.857 -158.144 782.758 -165.085 816.495 -169.599C861.223 -175.577 907.388 -178.526 951.613 -166.271C990.117 -155.599 1024.9 -132.081 1050.97 -95.7115C1078.2 -57.7528 1091.68 -9.92878 1113.79 32.0654C1127.59 58.259 1146.82 92.9085 1172.59 103.09C1181.19 106.486 1196.85 101.905 1189.99 118.612C1186.06 128.167 1178.72 136.548 1172.92 144.358C1163.54 156.98 1153.86 169.254 1144.32 181.702C1124.01 208.237 1102.25 235.337 1087.03 266.759C1067.84 306.319 1096.36 336.765 1092.88 376.878C1091.02 398.465 1078.71 415.694 1065.69 429.228C1057.27 437.995 1048.05 445.588 1038.64 452.672C1028.82 460.072 1017.19 465.71 1008.62 475.277C996.403 488.892 1001.71 505.009 1004 522.61C1008.03 553.542 1008.91 584.963 1006.63 616.16C1003.84 654.398 997.303 693.729 983.527 728.477C978.168 742.006 971.379 756.347 961.297 765.418C951.216 774.489 940.788 773.868 929.235 771.136C894.97 763.065 860.776 744.284 828.271 726.485C787.588 704.202 747.704 679.3 709.616 650.971C683.326 631.414 656.948 610.287 634.953 583.77C628.556 576.053 622.469 567.789 617.548 558.564C614.169 552.237 612.357 544.073 607.461 539.317C592.143 524.473 561.389 528.906 543.424 529.769C507.571 531.488 472.282 539.665 436.475 541.652C416.932 542.738 386.326 545.47 371.974 525.174C358.478 506.096 370.702 476.047 378.768 457.663C394.621 421.517 415.919 389.314 435.009 355.714C442.856 341.887 451.457 327.422 456.541 311.634C461.06 297.565 453.259 287.383 445.564 277.17Z" stroke="white"/>
<path fill-rule="evenodd" clip-rule="evenodd" d="M452.949 277.822C429.049 242.769 400.237 211.654 376.164 176.031C362.074 155.169 337.808 120.098 348.705 90.6873C360.66 58.3689 402.332 57.4886 426.42 54.8848C455.09 51.785 488.758 47.5507 513.294 27.371C521.054 20.9916 527.665 12.5477 530.466 1.42569C533.467 -10.4775 530.187 -20.8928 529.76 -32.8084C528.865 -57.8051 541.099 -77.8733 557.29 -91.6549C580.173 -111.14 608.787 -120.353 635.814 -126.776C666.435 -134.02 697.563 -137.591 728.754 -137.439C758.563 -137.315 788.057 -138.121 817.896 -139.051C856.919 -140.291 896.491 -138.288 934.345 -125.647C971.634 -113.186 1005.54 -89.8322 1032.17 -55.4803C1058.15 -21.9592 1075.67 19.0139 1091.03 60.7495C1099.74 84.4381 1114.45 119.838 1135.23 131.803C1144.47 137.128 1153.54 136.763 1143.71 150.613C1131.34 168.052 1114.67 182.044 1100.34 196.961C1079.67 218.486 1058.48 240.432 1041.13 266.024C1030.05 282.366 1025.11 298.225 1025.87 319.384C1026.46 335.503 1029.14 351.454 1027.78 367.635C1024.62 405.614 1000.09 431.658 978.407 455.911C964.458 471.509 951.72 483.406 944.54 505.595C936.048 531.819 932.483 560.349 926.808 587.578C920.574 617.479 913.374 648.582 899.766 674.918C887.653 698.365 872.922 708.879 850.873 702.562C816.482 692.717 782.585 668.464 752.054 646.028C720.979 623.201 690.438 597.535 664.687 566.158C650.785 549.215 641.296 529.321 628.949 511.119C613.419 488.267 578.287 496.921 557.407 498.856C522.747 502.067 413.687 526.097 423.751 448.267C427.951 415.781 444.493 385.8 456.59 357.133C461.604 345.236 468.861 330.959 469.995 317.326C471.23 302.478 460.135 288.374 452.949 277.822Z" stroke="white"/>
<path fill-rule="evenodd" clip-rule="evenodd" d="M465.568 280.798C447.304 249.034 425.446 219.024 409.775 184.717C399.609 162.498 389.625 132.811 402.74 109.303C417.542 82.7733 450.181 76.5891 474.164 73.2086C498.873 69.7288 528.37 66.8011 548.566 46.6854C554.991 40.2779 560.288 31.6373 561.274 21.291C562.224 11.3665 559.54 1.442 560.43 -8.66239C562.423 -31.3523 573.702 -50.0476 588.245 -63.607C631.264 -103.721 695.292 -112.64 747.196 -113.689C773.176 -114.21 799.913 -111.474 826.061 -109.514C859.991 -106.971 893.972 -101.512 926.332 -88.3563C995.132 -60.394 1041.25 1.62187 1073.45 78.7911C1083.59 103.081 1091.35 129.363 1107.23 148.883C1115.42 158.963 1113.63 166.201 1105.26 175.394C1092.17 189.76 1076.2 200.739 1061.68 212.729C1041.01 229.78 1019.91 247.086 1001.63 267.512C989.038 281.592 980.096 295.158 977.382 316.272C975.445 331.326 975.898 346.666 974.734 361.813C972.517 390.588 964.928 419.146 951.493 443.014C940.819 461.933 928.111 479.127 914.976 495.521C897.902 516.865 883.46 538.55 870.493 563.883C853.302 597.415 829.147 659.27 788.654 642.9C743.993 624.838 702.133 578.943 673.48 534.475C663.857 519.545 655.958 501.234 642.981 490.224C623.553 473.768 603.84 474.345 580.732 474.413C546.136 474.506 470.854 483.668 470.041 420.449C469.721 395.402 478.606 371.719 482.861 347.627C487.659 320.645 478.042 302.446 465.568 280.798Z" stroke="white"/>
<path fill-rule="evenodd" clip-rule="evenodd" d="M479.171 283.631C461.106 242.231 420.596 174.203 451.407 128.166C467.682 103.837 496.468 94.6947 520.617 89.2462C540.05 84.8391 563.486 83.1841 578.17 64.5019C588.962 50.7661 584.171 30.776 588.306 13.5814C593.438 -7.73517 605.217 -25.1777 619.692 -38.2875C660.14 -74.9267 716.381 -86.1708 765.039 -88.5634C815.573 -91.0428 871.254 -79.4454 918.808 -57.1371C978.1 -29.3121 1022.52 23.375 1053.59 90.0954C1059.32 102.412 1064.53 115.05 1070.03 127.516C1073.73 135.877 1079.21 143.966 1082.12 152.762C1086.98 167.428 1081.26 179.416 1072.09 188.974C1058.91 202.734 1042.72 212.528 1027.69 222.854C1007.14 236.987 986.126 250.865 967.008 267.446C954.161 278.604 940.713 290.622 936.116 309.98C932.978 323.183 932.327 337.167 932.439 350.841C932.683 380.16 931.421 403.869 920.202 430.721C901.74 474.804 873.35 514.443 843.358 547.426C819.82 573.31 782.575 613.52 748.28 596.214C717.51 580.718 699.511 543.626 679.238 513.638C669.382 499.059 658.309 485.744 645.299 475.374C628.897 462.302 613.456 456.816 594.023 454.678C561.315 451.076 511.996 450.14 501.885 402.288C498.152 384.629 500.283 366.337 498.325 348.448C495.767 324.795 488.285 304.513 479.171 283.631Z" stroke="white"/>
<path fill-rule="evenodd" clip-rule="evenodd" d="M497.956 285.164C485.092 239.864 468.192 182.775 499.262 142.514C514.312 123.011 535.481 112.108 555.969 103.96C570.643 98.1212 593.942 96.4023 602.938 78.4502C609.546 65.2389 610.461 47.0138 616.438 32.8593C624.651 13.3992 637.094 -2.62928 651.691 -15.1766C689.72 -47.8727 739.25 -60.5068 784.42 -64.1246C882.566 -71.9744 982.43 -9.45517 1034.95 93.4051C1050.61 124.066 1070.82 156.7 1045.52 188.025C1017.89 222.198 976.265 238.207 943.289 262.489C930.689 271.76 914.633 282.905 907.603 299.69C903.375 309.78 903.085 322.439 902.892 333.547C902.383 361.837 900.457 387.279 891.13 413.677C876.726 454.471 853.758 492.107 827.729 522.935C805.03 549.817 772.659 581.408 739.692 562.029C714.416 547.136 698.386 515.526 678.746 492.224C656.891 466.274 629.861 448.787 600.178 440.242C571.304 431.952 539.634 426.361 524.416 391.139C519.196 379.057 513.743 363.413 511.786 350.041C508.627 327.992 504.002 306.295 497.956 285.164Z" stroke="white"/>
<path fill-rule="evenodd" clip-rule="evenodd" d="M518.902 285.483C512.95 239.74 512.289 192.043 539.94 155.992C552.845 139.172 569.157 127.223 585.653 116.397C597.79 108.431 610.324 101.712 619.388 88.6526C627.786 76.5609 634.17 62.5211 642.278 50.113C652.973 33.6695 665.771 19.435 680.178 7.95639C716.293 -20.7622 760.226 -34.1941 802.257 -38.8534C822.604 -41.1178 844.675 -42.2966 864.884 -36.1235C884.401 -30.1676 903.7 -20.7498 921.645 -9.76864C959.795 13.5524 992.858 47.7058 1016.83 90.8861C1033.26 120.504 1042.15 149.304 1020.86 179.35C996.871 213.218 959.251 231.905 928.243 253.886C906.975 268.961 883.14 283.739 879.167 315.777C876.003 341.27 873.434 365.466 865.25 389.562C853.069 425.105 835.159 457.302 812.583 484.242C791.936 508.786 765.817 529.613 736.284 516.504C712.885 506.099 694.731 482.791 674.288 466.127C651.505 447.514 626.474 437.253 600.115 429.001C576.426 421.557 554.121 410.116 538.811 385.827C535.677 380.864 532.386 375.46 529.97 369.908C526.888 362.823 527.127 355.8 526.521 347.859C524.945 326.901 521.593 306.186 518.902 285.483Z" stroke="white"/>
<path fill-rule="evenodd" clip-rule="evenodd" d="M541.996 281.744C542.505 238.295 551.072 197.233 574.535 163.372C584.567 148.887 596.545 136.956 607.583 123.683C616.47 112.983 624.87 103.04 635.089 94.2224C659.331 73.3432 679.032 46.3245 704.794 27.7321C739.184 2.87588 778.577 -10.8634 817.665 -16.3566C836.751 -19.0411 856.468 -19.9794 875.778 -16.9469C892.362 -14.3432 908.246 -5.20237 922.98 4.14978C951.858 22.4688 979.898 48.5057 998.649 81.4464C1039.99 154.07 958.483 206.871 916.65 237.792C897.411 252.016 868.014 268.489 860.133 296.664C854.5 316.791 851.068 337.26 843.813 356.766C824.325 409.151 784.764 470.763 732.046 462.56C709.487 459.056 688.926 444.819 667.867 435.262C646.183 425.419 623.802 419.932 601.263 413.911C580.199 408.287 563.411 400.283 549.806 378.826C543.303 368.579 543.877 356.313 543.298 343.741C542.352 323.092 541.767 302.325 541.996 281.744Z" stroke="white"/>
<path fill-rule="evenodd" clip-rule="evenodd" d="M563.025 276.179C571.495 210.597 602.951 139 649.203 100.914C703.609 56.1114 762.55 18.3845 827.553 7.53895C857.69 2.50994 890.703 0.0357247 919.14 16.4808C940.783 28.9882 965.922 47.6842 977.832 73.9765C1006.97 138.287 942.157 189.483 905.23 219.235C885.349 235.252 860.042 250.86 845.057 274.25C836.363 287.812 831.925 305.751 824.906 320.646C803.635 365.783 768.622 402.189 725.006 408.7C704.84 411.708 684.526 407.987 664.513 405.029C644.026 402.003 623.285 400.36 602.925 396.137C586.673 392.764 567.52 387.053 561.534 365.839C553.986 339.107 559.569 302.961 563.025 276.179Z" stroke="white"/>
<path fill-rule="evenodd" clip-rule="evenodd" d="M583.647 265.644C595.999 203.986 622.156 143.842 666.128 107.033C689.447 87.5151 716.516 74.0416 742.504 60.7294C771.963 45.6423 802.742 33.9313 834.178 28.1224C873.319 20.886 936.711 14.3633 957.161 68.7602C977.457 122.754 926.168 170.541 895.838 197.773C876.392 215.219 855.581 231.231 837.001 250.302C826.927 260.642 819.166 272.588 810.64 284.715C787.077 318.315 753.486 344.915 719.247 359.114C686.063 372.88 645.011 378.974 609.982 374.425C594.868 372.47 584.065 365.873 579.494 347.118C573.16 321.046 578.541 291.114 583.647 265.644Z" stroke="white"/>
<path fill-rule="evenodd" clip-rule="evenodd" d="M604.138 249.037C616.409 194.749 642.877 145.165 681.484 112.583C724.76 76.0572 780.485 55.7611 831.703 45.4401C858.928 39.9582 917.925 25.0946 931.802 67.6335C945.678 110.172 905.563 152.093 882.474 175.17C854.451 203.136 824.239 230.138 794.062 255.23C767.843 277.046 739.866 299.351 711.468 316.198C695.451 325.755 678.766 333.559 661.611 339.516C648.908 343.892 632.755 350.418 619.438 347.161C585.846 338.935 598.27 274.994 604.138 249.037Z" stroke="white"/>
<path fill-rule="evenodd" clip-rule="evenodd" d="M629.431 232.78C656.355 130.116 741.659 79.6243 823.792 62.0249C842.878 57.9396 896.38 43.2105 907.048 74.572C917.386 104.979 884.508 141.039 869.116 158.124C821.42 211.065 762.492 250.318 706.652 289.205C689.223 301.343 657.788 327.683 636.168 315.533C612.693 302.316 623.854 254.068 629.431 232.78Z" stroke="white"/>
<path fill-rule="evenodd" clip-rule="evenodd" d="M657.01 213.02C680.425 137.416 748.528 94.0538 811.141 79.7589C826.477 76.2612 865.427 65.3711 877.042 86.4691C887.791 105.986 862.139 134.265 852.542 145.503C831.177 170.527 805.856 191.141 780.841 210.955C757.712 229.287 734.333 248.078 709.996 263.583C697.178 271.744 673.136 289.158 658.57 276.556C642.887 263 651.812 229.808 657.01 213.02Z" stroke="white"/>
<path fill-rule="evenodd" clip-rule="evenodd" d="M687.401 190.931C705.247 141.559 753.043 109.498 795.206 98.8437C806.551 95.9832 831.071 88.5621 840.642 101.748C849.453 113.891 835.252 131.693 828.95 139.914C801.019 176.356 760.116 208.907 722.639 228.9C713.216 233.926 696.278 243.791 686.585 233.646C676.642 223.228 683.301 202.268 687.401 190.931Z" stroke="white"/>
<path fill-rule="evenodd" clip-rule="evenodd" d="M719.641 170.192C729.697 145.675 755.98 127.178 777.751 121.29C793.073 117.15 811.491 120.726 798.137 142.067C784.872 163.245 760.258 182.588 739.397 191.163C723.48 197.702 711.005 191.251 719.641 170.192Z" stroke="white"/>
<path fill-rule="evenodd" clip-rule="evenodd" d="M-95.8363 339.997C-96.4812 291.561 -117.582 241.222 -107.161 191.869C-98.6041 151.335 -55.5234 147.951 -29.6791 129.587C-9.1418 114.997 2.51329 89.1523 13.6199 64.3548C23.5991 42.0922 32.5626 19.1602 43.075 -2.7367C49.8802 -16.8925 61.5657 -44.6898 76.3237 -45.1918C90.452 -45.6752 103.407 -24.0138 111.614 -11.2091C122.314 5.48163 131.801 23.2756 142.191 40.2328C159.702 68.8358 180.712 90.0076 204.768 110.045C232.145 132.845 259.973 154.866 288.253 176.108C309.075 191.794 330.039 207.363 350.053 224.6C362.607 235.415 390.315 255.706 390.443 275.645C390.503 285.159 383.114 295.695 378.132 303.3C369.702 316.172 360.093 327.942 350.454 339.458C332.502 360.908 313.788 381.386 295.277 402.112C271.251 429.01 248.301 455.469 227.18 486.005C205.342 517.614 184.48 550.264 163.191 582.468C148.773 604.285 134.371 628.785 113.574 642.172C87.5268 658.906 66.1465 641.261 39.8045 641.056C17.1444 640.877 18.8152 576.816 15.9357 559.003C13.046 540.974 6.67764 524.19 4.2095 506.117C1.13195 483.557 1.09131 460.476 0.334617 437.675C-0.584586 409.784 -0.950227 383.233 -25.3827 372.598C-39.2876 366.555 -54.33 365.284 -68.7223 361.665C-78.0464 359.316 -95.6331 355.299 -95.8363 339.997Z" stroke="white"/>
<path fill-rule="evenodd" clip-rule="evenodd" d="M-84.6961 331.381C-87.0714 290.779 -101.104 238.812 -87.8343 196.901C-76.4972 161.086 -41.0416 156.443 -17.1671 137.629C2.54174 122.111 11.3154 96.7172 21.1673 71.7704C29.0712 51.7584 36.736 31.5539 45.708 12.1812C52.32 -2.09538 62.4161 -26.1979 76.164 -29.1525C88.5233 -31.8092 101.778 -10.531 108.715 0.294399C118.837 16.0979 127.494 33.2609 136.435 50.0638C152.146 79.579 168.234 106.121 191.228 127.803C214.324 149.578 239.593 165.859 265.13 182.805C285.109 196.063 304.985 209.707 323.967 225.014C338.106 236.41 358.436 250.997 364.905 271.32C370.027 287.396 344.052 314.075 336.392 323.491C320.625 342.851 303.917 361.026 287.179 379.089C266.773 401.1 245.716 420.348 227.696 445.457C195.465 490.347 168.524 546.249 127.051 579.613C102.037 599.737 74.2007 604.882 46.3794 601.872C35.3628 600.68 32.718 581.705 31.3294 570.637C29.0203 552.252 28.7304 533.549 26.9553 515.089C25.2921 497.808 21.5996 481.39 18.6242 464.444C15.6132 447.275 14.7689 429.684 12.5513 412.397C11.178 401.665 9.82004 389.176 3.81328 380.548C-2.40202 371.616 -12.6557 367.873 -21.6176 365.03C-38.4477 359.741 -83.0177 360.033 -84.6961 331.381Z" stroke="white"/>
<path fill-rule="evenodd" clip-rule="evenodd" d="M-70.3582 314.384C-74.3529 277.115 -79.9453 230.696 -63.6717 196.36C-50.3698 168.284 -22.0003 162.227 -1.73712 143.934C15.1167 128.721 21.4826 104.526 29.8485 82.0421C36.7131 63.5998 43.6134 45.077 51.9334 27.5273C58.2434 14.2178 66.3752 -3.82781 78.9035 -8.47093C89.6152 -12.4383 101.716 5.33454 107.655 14.1807C117.766 29.2569 126.01 46.1493 134.197 62.8187C147.591 90.0947 159.916 119.23 178.978 141.417C197.501 162.947 219.504 175.655 241.92 189.944C259.089 200.891 276.152 212.26 292.329 225.316C304.75 235.333 320.144 247.205 326.616 263.874C332.214 278.25 317.843 295.266 310.663 305.408C298.807 322.146 285.647 337.501 272.671 352.918C258.667 369.55 243.157 384.893 229.605 401.934C201.109 437.796 178.342 477.501 143.22 504.976C120.473 522.773 89.8646 538.94 62.9759 536.033C43.6388 533.938 44.911 481.729 43.0536 465.047C40.0004 437.771 34.1026 409.113 24.7343 383.988C16.6891 362.458 -2.42917 355.819 -20.0157 350.99C-31.0328 347.959 -42.579 346.322 -53.2348 341.636C-65.5698 336.205 -68.684 330.006 -70.3582 314.384Z" stroke="white"/>
<path fill-rule="evenodd" clip-rule="evenodd" d="M-56.9839 296.915C-59.3623 265.406 -58.8275 228.146 -43.4211 200.89C-29.9195 177.015 -5.88051 170.73 11.2167 151.922C24.5605 137.25 29.8012 113.326 36.9772 93.9216C45.7474 70.1966 58.0369 26.3774 80.1609 17.4494C100.742 9.14936 122.265 62.1701 129.716 77.9806C141.511 103.005 151.377 130.448 165.683 153.558C178.003 173.453 194.509 184.451 212.029 196.27C234.367 211.366 268.282 229.265 280.225 258.685C289.127 280.607 260.179 313.198 250.293 328.387C239.954 344.253 232.167 363.06 221.497 378.367C204.66 402.521 177.376 421.969 154.85 436.809C132.95 451.246 104.511 467.224 79.6669 466.273C63.3387 465.651 60.232 434.888 56.7483 419.861C51.7572 398.499 45.121 379.356 30.8656 364.826C16.3556 350.035 -0.746751 343.066 -18.7251 336.967C-27.9537 333.858 -38.4809 331.433 -46.7367 325.154C-55.8583 318.321 -56.0671 309.026 -56.9839 296.915Z" stroke="white"/>
<path fill-rule="evenodd" clip-rule="evenodd" d="M-40.6885 278.753C-40.5565 251.532 -35.4546 222.504 -20.3266 201.506C-7.72672 184.016 11.9955 178.17 24.0573 160.29C33.6113 146.135 38.4746 126.263 44.871 109.825C52.6939 89.6813 63.7556 54.4914 83.2087 47.5004C102.195 40.695 118.988 79.4547 126.268 94.7916C136.928 117.28 145.558 141.118 156.315 163.544C164.742 181.139 175.048 192.48 188.77 203.82C204.877 217.14 227.351 231.895 235.956 253.932C242.159 269.888 227.143 295.383 221.691 309.439C218.036 318.88 214.69 328.469 212.853 338.702C211.421 346.671 211.279 354.045 207.131 360.888C196.689 378.099 173.794 380.345 158.26 386.018C137.629 393.547 115.739 402.104 94.1486 403.737C80.8786 404.758 74.1066 389.842 66.5324 379.349C57.5825 366.945 44.9116 358.023 33.8448 348.663C19.2397 336.289 3.34514 328.593 -13.0977 320.711C-20.5144 317.154 -29.2257 313.665 -34.9723 306.593C-40.9727 299.262 -40.7341 288.578 -40.6885 278.753Z" stroke="white"/>
<path fill-rule="evenodd" clip-rule="evenodd" d="M-23.5739 262.593C-20.9518 239.731 -12.7804 217.88 1.02142 201.718C11.6015 189.31 25.6523 182.324 34.1438 167.415C42.056 153.518 47.5696 137.716 54.1047 122.857C61.0208 107.148 71.296 80.8917 87.2474 76.617C104.439 72.0135 117.682 98.4991 125.014 113.178C134.278 131.729 141.317 151.687 149.6 170.877C155.84 185.18 163.8 198.261 173.214 209.684C183.088 221.726 196.478 233.26 201.473 249.819C205.889 264.485 197.627 282.229 196.168 297.101C194.608 312.99 197.342 329.679 188.693 343.322C170.856 371.458 126.092 366.24 100.5 366.842C75.2496 367.462 54.9482 350.246 34.5148 333.867C21.0178 323.053 6.9619 313.895 -6.87552 303.82C-20.9823 293.54 -25.881 282.713 -23.5739 262.593Z" stroke="white"/>
<path fill-rule="evenodd" clip-rule="evenodd" d="M-7.6725 249.508C0.0817525 216.387 24.3005 198.783 41.6141 173.753C55.7802 153.262 66.4023 110.827 90.26 105.213C117.346 98.8425 133.562 155.069 142.979 176.764C153.428 200.826 172.038 220.398 179.777 245.869C183.845 259.238 180.352 271.712 178.186 285.075C175.811 299.748 174.026 314.75 165.83 326.56C149.696 349.802 118.185 349.64 95.4922 350.28C72.0006 350.944 51.2192 335.017 32.5022 319.121C12.6513 302.287 -15.6149 283.473 -7.6725 249.508Z" stroke="white"/>
<path fill-rule="evenodd" clip-rule="evenodd" d="M5.31522 240.526C14.0528 216.929 32.4141 197.744 47.3131 179.634C59.7485 164.536 73.1264 134.142 92.0869 131.976C114.371 129.42 127.877 161.876 136.646 181.776C145.276 201.331 157.711 221.978 162.49 243.44C167.473 265.797 154.203 295.906 141.547 311.727C127.432 329.368 104.338 335.886 84.5222 335.182C63.7742 334.466 44.7369 319.887 29.0235 304.764C12.2244 288.598 -4.84621 267.92 5.31522 240.526Z" stroke="white"/>
<path fill-rule="evenodd" clip-rule="evenodd" d="M17.3664 236.084C25.7126 216.457 40.1801 199.853 53.5197 185.044C63.8141 173.61 79.0044 154.169 93.8564 153.692C110.195 153.167 124.042 169.485 130.538 186.212C136.941 202.71 143.688 223.395 144.646 241.494C146.728 280.909 104.351 325.06 72.5294 321.468C42.3589 318.06 0.725194 275.189 17.3664 236.084Z" stroke="white"/>
<path fill-rule="evenodd" clip-rule="evenodd" d="M28.5115 233.919C40.0256 208.347 67.9935 171.89 93.8861 171.024C123.606 170.035 131.067 210.604 127.193 240.005C123.258 270.011 88.9925 313.444 61.6702 307.575C35.0038 301.849 14.8657 264.248 28.5115 233.919Z" stroke="white"/>
<path fill-rule="evenodd" clip-rule="evenodd" d="M40.2788 229.785C50.0274 208.373 70.8302 181.629 92.527 180.82C118.379 179.862 117.892 214.114 112.029 235.433C105.933 257.567 79.0852 295.372 56.4486 289.403C34.4368 283.576 30.9366 250.306 40.2788 229.785Z" stroke="white"/>
<path fill-rule="evenodd" clip-rule="evenodd" d="M50.5284 227.321C56.9631 212.043 73.0678 192.733 88.3777 192.115C107.091 191.372 103.453 218.539 98.6183 231.652C92.8714 247.254 73.6079 274.365 57.442 269.971C41.5258 265.646 45.2196 239.909 50.5284 227.321Z" stroke="white"/>
<path fill-rule="evenodd" clip-rule="evenodd" d="M930.829 1100.25C889.409 1130.9 842.585 1156.2 798.43 1181.92C733.903 1219.5 668.426 1256.07 600.624 1284.06C564.273 1299.06 517.169 1320.7 478.165 1308.94C463.904 1304.64 450.899 1291.65 438.112 1283.2C420.481 1271.56 402.59 1260.49 384.73 1249.4C348.902 1227.17 312.963 1205.16 277.751 1181.5C260.795 1170.1 244.343 1155.75 226.691 1146.03C216.376 1140.34 204.032 1143 193.009 1143.36C167.477 1144.2 141.96 1145.79 116.443 1147.14C85.2324 1148.79 53.9501 1150.54 22.7035 1149.89C8.61045 1149.59 -25.9052 1152.64 -33.6635 1137.84C-37.8375 1129.87 -27.9999 1115.49 -23.4395 1108.84C-15.0661 1096.61 -5.44187 1085.59 4.05516 1074.69C26.0183 1049.46 49.344 1025.45 68.8668 997.273C78.8977 982.79 92.04 965.095 85.4917 945.324C78.8824 925.353 67.4331 908.062 60.4476 888.16C52.4046 865.257 49.0694 841.424 45.2716 817.139C42.4601 799.19 35.9119 783.287 29.7551 766.739C22.9526 748.449 15.906 730.004 11.1829 710.716C8.06132 697.975 3.02305 675.054 13.9436 666.988C29.4602 655.518 58.5563 664.805 76.2437 668.184C100.688 672.847 124.954 678.786 149.332 683.901C167.03 687.621 184.789 691.701 202.781 692.135C231.786 692.836 260.887 690.411 289.815 688.155C343.381 683.976 396.563 678.309 450.309 678.309C497.397 678.309 606.212 744.754 631.683 756.454C682.524 779.809 734.717 801.949 782.827 833.023C795.842 841.437 815.874 852.646 822.722 869.963C826.947 880.633 825.005 886.802 834.969 893.678C848.564 903.058 865.982 906.741 881.031 910.938C905.267 917.696 929.691 923.419 954.038 929.538C1003.28 941.883 1052.19 955.845 1101.23 969.28C1116.06 973.341 1133.99 974.24 1148.13 981.395C1157.24 985.989 1156.29 991.774 1149.24 998.755C1136.87 1011.01 1119.53 1017.81 1104.92 1024.79C1083.51 1035.03 1061.75 1044.16 1039.98 1053.17C1018.21 1062.17 996.332 1070.89 974.552 1079.91C960.164 1085.85 943.758 1090.68 930.829 1100.25Z" stroke="white"/>
<path fill-rule="evenodd" clip-rule="evenodd" d="M896.744 1093.51C852.931 1124.22 804.296 1148.69 757.411 1172.56C697.406 1203.14 636.044 1231.79 572.82 1250.9C535.698 1262.11 491.9 1274.49 453.969 1261.64C440.438 1257.05 430.329 1246.73 418.729 1237.63C405.508 1227.24 391.778 1217.73 378.048 1208.36C349.785 1189.07 321.223 1170.45 292.363 1152.48C277.077 1142.92 260.25 1130.13 242.981 1126.81C229.251 1124.17 213.655 1127.99 199.864 1129.1C175.028 1131.1 150.197 1133.16 125.351 1134.91C96.6811 1136.93 67.9297 1138.79 39.1985 1138.47C23.1854 1138.29 -4.30507 1141.26 -15.6297 1128.64C-25.5102 1117.63 10.4622 1077.79 16.7882 1070.22C36.544 1046.59 57.322 1024.09 75.7099 998.821C86.5769 983.92 99.8085 965.797 104.39 946.046C108.291 929.214 100.765 910.035 96.3201 894.476C90.762 874.986 86.2769 854.783 79.8188 835.703C74.0674 818.703 64.9141 803.56 56.8745 788.106C48.0314 771.106 39.0764 753.827 32.5115 735.281C28.4891 723.869 21.8326 704.758 29.8265 693.88C39.0612 681.339 67.5279 689.534 79.2289 691.323C102.966 694.998 126.521 700.462 150.096 705.354C189.251 713.476 226.582 720.579 266.454 718.877C318.379 716.655 370.252 711.427 422.167 708.533C441.338 707.453 460.814 705.28 480 706.453C491 707.13 499.375 711.228 505.772 720.473C514.508 733.089 534.63 740.074 548.625 747.314C570.445 758.595 592.54 769.088 614.574 779.718C662.944 803.063 712.245 825.564 758.118 855.757C772.631 865.307 789.249 875.955 799.984 891.731C805.974 900.529 804.464 909.004 808.12 918.355C812.961 930.655 828.878 936.205 838.392 940.229C856.755 948.002 875.87 953.211 894.837 958.092C937.756 969.131 980.777 976.389 1024.39 981.735C1034.61 982.977 1074.86 987.279 1053.72 1008.02C1030.37 1030.93 996.642 1042.17 969.147 1055.08C944.377 1066.69 919.587 1077.49 896.744 1093.51Z" stroke="white"/>
<path fill-rule="evenodd" clip-rule="evenodd" d="M836.194 1087.83C795.011 1114.85 749.389 1135.01 705.034 1154.29C651.211 1177.69 596.039 1198.55 539.589 1210.24C504.127 1217.57 465.031 1223.21 429.809 1211.02C405.756 1202.7 387.15 1180.21 366.024 1164.74C344.898 1149.27 322.916 1134.74 300.278 1122.63C286.228 1115.12 271.114 1107.55 255.481 1108.54C217.469 1110.95 179.503 1116.68 141.45 1119.47C116.277 1121.33 91.0532 1122.86 65.8037 1122.4C50.5776 1122.13 29.6601 1123.24 16.1801 1113.47C1.27984 1102.67 80.6174 1010.41 88.1159 1000.03C106.916 973.992 129.681 939.438 126.046 902.411C122.569 867.014 107.501 840.587 90.4575 812.852C80.7853 797.076 49.7681 754.928 61.2628 734.409C67.8297 722.68 89.4751 726.74 99.7581 727.54C120.024 729.115 140.178 732.499 160.337 735.438C189.73 739.697 219.933 746.274 249.453 748.202C270.009 749.541 290.687 747.749 311.279 747.712C340.805 747.662 370.33 747.935 399.856 748.258C424.647 748.53 449.648 748.258 474.352 751.159C489.711 752.944 501.368 756.955 512.384 768.287C521.97 778.144 536.433 783.915 548.65 790.182C568.829 800.528 589.273 810.118 609.651 819.863C652.316 840.271 695.469 860.251 736.306 885.754C754.948 897.389 786.291 913.681 790.664 941.893C792.242 952.066 793.403 956.461 801.548 962.245C813.108 970.452 826.955 974.153 839.926 977.37C870.164 984.871 901.278 983.749 931.466 991.163C943.76 994.22 959.81 1000.82 945.775 1015.92C929.399 1033.58 905.559 1043.29 885.94 1054.2C876.146 1059.64 866.056 1064.73 856.756 1071.38C849.613 1076.5 843.5 1083.07 836.194 1087.83Z" stroke="white"/>
<path fill-rule="evenodd" clip-rule="evenodd" d="M758.192 1079.39C720.144 1101.34 678.823 1117.29 638.243 1131.68C593.171 1147.64 547.011 1160.85 500.241 1166.48C467.946 1170.37 433.537 1171.52 402.192 1159.6C382.37 1152.05 368.932 1136.19 351.875 1122.89C326.131 1102.78 298.279 1086.85 267.351 1090.72C232.678 1095.06 197.891 1098.31 162.99 1100.49C141.938 1101.8 120.805 1102.78 99.7274 1101.86C86.4008 1101.29 69.2319 1100.33 57.6385 1092.97C42.1264 1083.1 100.393 1008.07 107.656 997.129C125.669 970.006 138.874 941.546 146.589 907.941C152.881 880.519 140.027 858.963 126.767 838.451C118.523 825.712 91.885 793.674 100.226 777.132C104.8 768.01 119.875 768.482 127.971 768.016C143.402 767.134 158.899 768.054 174.33 768.457C197.115 769.079 221.369 764.81 243.961 768.246C294.03 775.852 343.971 782.439 394.35 787.652C422.121 790.523 450.06 793.133 477.582 798.67C487.463 800.658 497.669 802.764 507.031 807.263C513.054 810.153 516.337 815.074 521.42 819.113C545.654 838.339 577.288 848.232 604.581 860.554C640.866 876.934 677.344 893.059 712.663 912.409C731.239 922.587 757.186 934.282 769.969 955.055C773.832 961.331 772.185 966.352 774.614 972.386C777.41 979.345 785.903 981.421 791.387 983.359C803.834 987.765 855.936 994.426 831.926 1020.27C820.469 1032.58 805.872 1040.48 792.957 1050.15C788.281 1053.66 783.722 1057.18 779.824 1061.91C773.303 1069.84 766.879 1074.36 758.192 1079.39Z" stroke="white"/>
<path fill-rule="evenodd" clip-rule="evenodd" d="M675.081 1069.89C599.969 1105.4 511.941 1129.59 430.05 1124.9C402.817 1123.34 373.517 1118.11 349.91 1100.25C335.991 1089.7 324.868 1077.78 308.147 1073.97C296.077 1071.22 283.079 1074.34 270.938 1075.47C253.351 1077.11 235.755 1078.58 218.143 1079.76C196.309 1081.21 174.404 1082.33 152.529 1081.73C136.899 1081.3 115.314 1081.79 101.736 1071.54C85.525 1059.33 126.789 1002.02 132.595 991.806C146.667 967.056 156.532 943.075 160.097 913.247C161.147 904.556 164.681 895.648 164.223 886.889C163.744 877.944 159.227 869.979 155.055 862.946C149.601 853.728 130.675 831.864 136.094 820.622C139.089 814.414 150.329 813.632 156.155 812.316C167.085 809.833 178.173 808.498 189.169 806.524C207.824 803.159 226.348 792.203 245.07 792.513C295.415 793.333 346.488 812.378 395.824 822.838C425.155 829.077 454.685 834.738 483.659 843.187C492.827 845.862 502.269 848.631 510.983 853.169C517.064 856.335 520.971 861.978 526.604 865.522C548.203 879.136 573.042 887.398 596.236 896.561C626.346 908.48 656.558 920.038 686.459 932.727C705.202 940.679 729.302 947.675 745.452 962.425C757.248 973.195 749.185 976.417 742.962 986.449C739.783 991.564 740.517 996.605 739.137 1002.4C737.166 1010.67 731.594 1016.62 726.368 1021.97C719.162 1029.36 709.561 1035.45 703.669 1044.52C701.591 1047.71 701.687 1051.67 700.007 1054.45C695.117 1062.55 682.145 1066.55 675.081 1069.89Z" stroke="white"/>
<path fill-rule="evenodd" clip-rule="evenodd" d="M595.222 1057.24C534.26 1079.56 466.429 1092.27 401.99 1086.37C379.569 1084.32 357.012 1079.54 336.127 1069.05C326.625 1064.3 319.492 1058.99 309.08 1058.71C284.921 1058.05 260.685 1060.35 236.531 1060.91C219.246 1061.3 201.874 1061.45 184.629 1059.75C173.098 1058.62 157.506 1057.27 148.06 1048.64C134.333 1036.08 159.112 993.374 164.156 981.576C172.514 962.009 180.806 940.256 177.491 917.614C176.474 910.691 174.674 904.574 174.441 897.513C174.217 891.446 174.842 885.845 173.078 880.045C170.897 872.854 161.197 861.695 164.532 855.075C166.805 850.555 173.546 850.343 178.03 848.897C185.303 846.55 192.404 843.472 199.261 839.694C206.48 835.694 212.626 829.516 220.105 826.212C232.246 820.859 245.835 820.356 258.596 820.38C309.512 820.48 361.074 832.732 410.698 845.543C436.54 852.213 462.525 859.323 487.639 869.439C495.265 872.513 503.908 875.599 510.614 881.275C514.798 884.808 517.635 889.236 522.389 891.893C562.994 914.584 609.94 923.011 653.047 939.399C664.267 943.665 726.449 965.219 693.937 985.494C674.186 997.815 653.316 1003.42 635.294 1020.27C629.803 1025.39 626.142 1029.63 623.997 1037.45C622.584 1042.66 625.985 1040.02 621.236 1045.46C615.476 1052 602.324 1054.63 595.222 1057.24Z" stroke="white"/>
<path fill-rule="evenodd" clip-rule="evenodd" d="M531.835 1044.04C460.462 1062.26 384.878 1063.12 312.379 1046.97C294.103 1042.9 275.082 1043.87 256.581 1042.84C238.605 1041.85 206.645 1043.91 193.589 1027.05C184.122 1014.83 194.395 988.856 197.948 975.185C202.475 957.768 206.431 939.775 198.998 922.86C194.645 912.953 188.68 903.524 184.01 893.71C181.777 889.023 177.179 881.841 179.095 877.401C182.266 870.077 197.102 866.993 204.3 863.538C227.308 852.499 251.671 849.681 276.27 849.76C321.703 849.904 367.372 857.483 411.939 867.761C432.443 872.491 453.233 877.537 473.009 885.76C484.199 890.41 492.452 899.381 503.138 904.7C537.545 921.838 574.511 930.996 609.509 946.667C619.639 951.205 657.477 966.313 638.415 984.126C619.96 1001.37 593.042 999.32 573.853 1015.54C571.681 1017.4 568.995 1019.62 567.735 1022.63C566.991 1024.42 568.301 1027.84 567.735 1028.86C561.842 1039.96 540.894 1041.73 531.835 1044.04Z" stroke="white"/>
<path fill-rule="evenodd" clip-rule="evenodd" d="M485.594 1031.99C448.977 1038.12 411.556 1039.64 374.323 1040.02C353.971 1040.24 331.611 1041.82 311.698 1035.53C299.465 1031.66 287.65 1028.27 275.041 1025.83C261.473 1023.2 239.627 1021.29 231.365 1007.05C225.193 996.415 229.423 974.546 229.648 961.61C229.887 947.422 227.502 936.902 219.291 926.748C214.128 920.355 190.442 897.147 193.179 890.455C195.784 884.08 212.288 883.103 219.423 881.447C241.977 876.193 264.832 874.363 287.773 874.649C323.303 875.085 358.966 879.505 393.941 887.099C408.401 890.256 423.345 893.524 437.158 899.83C446.46 904.082 454.217 911.621 463.458 916.016C489.921 928.622 517.903 937.182 544.458 950.018C552.98 954.146 580.748 965.133 574.091 982.066C568.54 996.204 549.662 1000.51 540.385 1009.98C524.605 1026.14 505.716 1028.63 485.594 1031.99Z" stroke="white"/>
<path fill-rule="evenodd" clip-rule="evenodd" d="M462.526 1023.87C433.48 1027.92 403.759 1029.7 374.286 1029.78C355.265 1029.84 335.199 1030.16 316.534 1024.94C307.158 1022.32 299.011 1016.2 290.137 1011.84C281 1007.35 268.391 1002.34 264.441 992.045C260.731 982.371 262.117 968.258 258.858 956.594C255.959 946.245 249.893 939.852 243.36 932.857C239.197 928.386 217.821 909.033 220.293 904.761C222.943 900.185 235.781 900.557 242.461 899.924C260.867 898.151 279.337 897.586 297.792 898.231C322.981 899.174 348.362 901.803 373.113 907.756C390.672 911.973 403.916 922.018 420.287 929.385C441.495 938.953 463.465 946.518 484.471 956.985C494.938 962.2 510.431 968.909 515.791 982.371C517.852 987.531 519.852 1000.65 517.558 1005.81C514.801 1012.01 504.542 1014.64 499.7 1016.23C487.567 1020.21 474.872 1022.14 462.526 1023.87Z" stroke="white"/>
</g>
<defs>
<clipPath id="clip0_889_11244">
<rect width="1206" height="904" fill="white"/>
</clipPath>
</defs>
</svg>
